<?xml version="1.0" encoding="UTF-8" standalone="no"?>
<!-- Created with Inkscape (http://www.inkscape.org/) -->

<svg
   xmlns:dc="http://purl.org/dc/elements/1.1/"
   xmlns:cc="http://creativecommons.org/ns#"
   xmlns:rdf="http://www.w3.org/1999/02/22-rdf-syntax-ns#"
   xmlns:svg="http://www.w3.org/2000/svg"
   xmlns="http://www.w3.org/2000/svg"
   xmlns:sodipodi="http://sodipodi.sourceforge.net/DTD/sodipodi-0.dtd"
   xmlns:inkscape="http://www.inkscape.org/namespaces/inkscape"
   id="svg2"
   version="1.1"
   inkscape:version="0.48.3.1 r9886"
   width="315"
   height="220"
   xml:space="preserve"
   sodipodi:docname="1dANN_e1.svg"><metadata
     id="metadata8"><rdf:RDF><cc:Work
         rdf:about=""><dc:format>image/svg+xml</dc:format><dc:type
           rdf:resource="http://purl.org/dc/dcmitype/StillImage" /><dc:title /></cc:Work></rdf:RDF></metadata><defs
     id="defs6" /><sodipodi:namedview
     pagecolor="#ffffff"
     bordercolor="#666666"
     borderopacity="1"
     objecttolerance="10"
     gridtolerance="10"
     guidetolerance="10"
     inkscape:pageopacity="0"
     inkscape:pageshadow="2"
     inkscape:window-width="1548"
     inkscape:window-height="876"
     id="namedview4"
     showgrid="false"
     inkscape:zoom="3.5629764"
     inkscape:cx="154.73617"
     inkscape:cy="108.1575"
     inkscape:window-x="52"
     inkscape:window-y="24"
     inkscape:window-maximized="1"
     inkscape:current-layer="g10" /><g
     id="g10"
     inkscape:groupmode="layer"
     inkscape:label="ink_ext_XXXXXX"
     transform="matrix(1.25,0,0,-1.25,0,220)"><g
   id="g12"
   transform="scale(0.1,0.1)"><path
     d="m 343,224 2050.5,0"
     style="fill:none;stroke:#000000;stroke-opacity:1;stroke-width:0.625;stroke-linecap:butt;stroke-linejoin:miter;stroke-miterlimit:3.8;stroke-dasharray:5,10;stroke-dashoffset:0"
     id="path14" /><path
     d="m 343,224 31.5,0 m 2019,0 -31.5,0"
     style="fill:none;stroke:#000000;stroke-opacity:1;stroke-width:5;stroke-linecap:butt;stroke-linejoin:miter;stroke-miterlimit:3.8;stroke-dasharray:none"
     id="path16" /><g
     id="g18"
     transform="scale(10,10)"><text
   transform="matrix(1,0,0,-1,26.2085,20.1)"
   id="text20"><tspan
     style="fill:#000000;fill-opacity:1;fill-rule:nonzero;stroke:none;font-family:Helvetica;font-variant:normal;font-weight:normal;font-size:7;writing-mode:lr;-inkscape-font-specification:Helvetica"
     x="0"
     y="0"
     id="tspan22">0</tspan></text>


</g><path
     d="m 343,369.5 2050.5,0"
     style="fill:none;stroke:#000000;stroke-opacity:1;stroke-width:0.625;stroke-linecap:butt;stroke-linejoin:miter;stroke-miterlimit:3.8;stroke-dasharray:5,10;stroke-dashoffset:0"
     id="path24" /><path
     d="m 343,369.5 31.5,0 m 2019,0 -31.5,0"
     style="fill:none;stroke:#000000;stroke-opacity:1;stroke-width:5;stroke-linecap:butt;stroke-linejoin:miter;stroke-miterlimit:3.8;stroke-dasharray:none"
     id="path26" /><g
     id="g28"
     transform="scale(10,10)"><text
   transform="matrix(1,0,0,-1,20.371,34.65)"
   id="text30"><tspan
     style="fill:#000000;fill-opacity:1;fill-rule:nonzero;stroke:none;font-family:Helvetica;font-variant:normal;font-weight:normal;font-size:7;writing-mode:lr;-inkscape-font-specification:Helvetica"
     x="0 3.892 5.838"
     y="0"
     sodipodi:role="line"
     id="tspan32">0.1</tspan></text>


</g><path
     d="m 343,515 2050.5,0"
     style="fill:none;stroke:#000000;stroke-opacity:1;stroke-width:0.625;stroke-linecap:butt;stroke-linejoin:miter;stroke-miterlimit:3.8;stroke-dasharray:5,10;stroke-dashoffset:0"
     id="path34" /><path
     d="m 343,515 31.5,0 m 2019,0 -31.5,0"
     style="fill:none;stroke:#000000;stroke-opacity:1;stroke-width:5;stroke-linecap:butt;stroke-linejoin:miter;stroke-miterlimit:3.8;stroke-dasharray:none"
     id="path36" /><g
     id="g38"
     transform="scale(10,10)"><text
   transform="matrix(1,0,0,-1,20.371,49.2)"
   id="text40"><tspan
     style="fill:#000000;fill-opacity:1;fill-rule:nonzero;stroke:none;font-family:Helvetica;font-variant:normal;font-weight:normal;font-size:7;writing-mode:lr;-inkscape-font-specification:Helvetica"
     x="0 3.892 5.838"
     y="0"
     sodipodi:role="line"
     id="tspan42">0.2</tspan></text>


</g><path
     d="m 343,660.5 2050.5,0"
     style="fill:none;stroke:#000000;stroke-opacity:1;stroke-width:0.625;stroke-linecap:butt;stroke-linejoin:miter;stroke-miterlimit:3.8;stroke-dasharray:5,10;stroke-dashoffset:0"
     id="path44" /><path
     d="m 343,660.5 31.5,0 m 2019,0 -31.5,0"
     style="fill:none;stroke:#000000;stroke-opacity:1;stroke-width:5;stroke-linecap:butt;stroke-linejoin:miter;stroke-miterlimit:3.8;stroke-dasharray:none"
     id="path46" /><g
     id="g48"
     transform="scale(10,10)"><text
   transform="matrix(1,0,0,-1,20.371,63.75)"
   id="text50"><tspan
     style="fill:#000000;fill-opacity:1;fill-rule:nonzero;stroke:none;font-family:Helvetica;font-variant:normal;font-weight:normal;font-size:7;writing-mode:lr;-inkscape-font-specification:Helvetica"
     x="0 3.892 5.838"
     y="0"
     sodipodi:role="line"
     id="tspan52">0.3</tspan></text>


</g><path
     d="m 343,806 2050.5,0"
     style="fill:none;stroke:#000000;stroke-opacity:1;stroke-width:0.625;stroke-linecap:butt;stroke-linejoin:miter;stroke-miterlimit:3.8;stroke-dasharray:5,10;stroke-dashoffset:0"
     id="path54" /><path
     d="m 343,806 31.5,0 m 2019,0 -31.5,0"
     style="fill:none;stroke:#000000;stroke-opacity:1;stroke-width:5;stroke-linecap:butt;stroke-linejoin:miter;stroke-miterlimit:3.8;stroke-dasharray:none"
     id="path56" /><g
     id="g58"
     transform="scale(10,10)"><text
   transform="matrix(1,0,0,-1,20.371,78.3)"
   id="text60"><tspan
     style="fill:#000000;fill-opacity:1;fill-rule:nonzero;stroke:none;font-family:Helvetica;font-variant:normal;font-weight:normal;font-size:7;writing-mode:lr;-inkscape-font-specification:Helvetica"
     x="0 3.892 5.838"
     y="0"
     sodipodi:role="line"
     id="tspan62">0.4</tspan></text>


</g><path
     d="m 343,952 2050.5,0"
     style="fill:none;stroke:#000000;stroke-opacity:1;stroke-width:0.625;stroke-linecap:butt;stroke-linejoin:miter;stroke-miterlimit:3.8;stroke-dasharray:5,10;stroke-dashoffset:0"
     id="path64" /><path
     d="m 343,952 31.5,0 m 2019,0 -31.5,0"
     style="fill:none;stroke:#000000;stroke-opacity:1;stroke-width:5;stroke-linecap:butt;stroke-linejoin:miter;stroke-miterlimit:3.8;stroke-dasharray:none"
     id="path66" /><g
     id="g68"
     transform="scale(10,10)"><text
   transform="matrix(1,0,0,-1,20.371,92.9)"
   id="text70"><tspan
     style="fill:#000000;fill-opacity:1;fill-rule:nonzero;stroke:none;font-family:Helvetica;font-variant:normal;font-weight:normal;font-size:7;writing-mode:lr;-inkscape-font-specification:Helvetica"
     x="0 3.892 5.838"
     y="0"
     sodipodi:role="line"
     id="tspan72">0.5</tspan></text>


</g><path
     d="m 343,1097.5 2050.5,0"
     style="fill:none;stroke:#000000;stroke-opacity:1;stroke-width:0.625;stroke-linecap:butt;stroke-linejoin:miter;stroke-miterlimit:3.8;stroke-dasharray:5,10;stroke-dashoffset:0"
     id="path74" /><path
     d="m 343,1097.5 31.5,0 m 2019,0 -31.5,0"
     style="fill:none;stroke:#000000;stroke-opacity:1;stroke-width:5;stroke-linecap:butt;stroke-linejoin:miter;stroke-miterlimit:3.8;stroke-dasharray:none"
     id="path76" /><g
     id="g78"
     transform="scale(10,10)"><text
   transform="matrix(1,0,0,-1,20.371,107.45)"
   id="text80"><tspan
     style="fill:#000000;fill-opacity:1;fill-rule:nonzero;stroke:none;font-family:Helvetica;font-variant:normal;font-weight:normal;font-size:7;writing-mode:lr;-inkscape-font-specification:Helvetica"
     x="0 3.892 5.838"
     y="0"
     sodipodi:role="line"
     id="tspan82">0.6</tspan></text>


</g><path
     d="m 343,1243 2050.5,0"
     style="fill:none;stroke:#000000;stroke-opacity:1;stroke-width:0.625;stroke-linecap:butt;stroke-linejoin:miter;stroke-miterlimit:3.8;stroke-dasharray:5,10;stroke-dashoffset:0"
     id="path84" /><path
     d="m 343,1243 31.5,0 m 2019,0 -31.5,0"
     style="fill:none;stroke:#000000;stroke-opacity:1;stroke-width:5;stroke-linecap:butt;stroke-linejoin:miter;stroke-miterlimit:3.8;stroke-dasharray:none"
     id="path86" /><g
     id="g88"
     transform="scale(10,10)"><text
   transform="matrix(1,0,0,-1,20.371,122)"
   id="text90"><tspan
     style="fill:#000000;fill-opacity:1;fill-rule:nonzero;stroke:none;font-family:Helvetica;font-variant:normal;font-weight:normal;font-size:7;writing-mode:lr;-inkscape-font-specification:Helvetica"
     x="0 3.892 5.838"
     y="0"
     sodipodi:role="line"
     id="tspan92">0.7</tspan></text>


</g><path
     d="m 343,1388.5 2050.5,0"
     style="fill:none;stroke:#000000;stroke-opacity:1;stroke-width:0.625;stroke-linecap:butt;stroke-linejoin:miter;stroke-miterlimit:3.8;stroke-dasharray:5,10;stroke-dashoffset:0"
     id="path94" /><path
     d="m 343,1388.5 31.5,0 m 2019,0 -31.5,0"
     style="fill:none;stroke:#000000;stroke-opacity:1;stroke-width:5;stroke-linecap:butt;stroke-linejoin:miter;stroke-miterlimit:3.8;stroke-dasharray:none"
     id="path96" /><g
     id="g98"
     transform="scale(10,10)"><text
   transform="matrix(1,0,0,-1,20.371,136.55)"
   id="text100"><tspan
     style="fill:#000000;fill-opacity:1;fill-rule:nonzero;stroke:none;font-family:Helvetica;font-variant:normal;font-weight:normal;font-size:7;writing-mode:lr;-inkscape-font-specification:Helvetica"
     x="0 3.892 5.838"
     y="0"
     sodipodi:role="line"
     id="tspan102">0.8</tspan></text>


</g><path
     d="m 343,1534 2050.5,0"
     style="fill:none;stroke:#000000;stroke-opacity:1;stroke-width:0.625;stroke-linecap:butt;stroke-linejoin:miter;stroke-miterlimit:3.8;stroke-dasharray:5,10;stroke-dashoffset:0"
     id="path104" /><path
     d="m 343,1534 31.5,0 m 2019,0 -31.5,0"
     style="fill:none;stroke:#000000;stroke-opacity:1;stroke-width:5;stroke-linecap:butt;stroke-linejoin:miter;stroke-miterlimit:3.8;stroke-dasharray:none"
     id="path106" /><g
     id="g108"
     transform="scale(10,10)"><text
   transform="matrix(1,0,0,-1,20.371,151.1)"
   id="text110"><tspan
     style="fill:#000000;fill-opacity:1;fill-rule:nonzero;stroke:none;font-family:Helvetica;font-variant:normal;font-weight:normal;font-size:7;writing-mode:lr;-inkscape-font-specification:Helvetica"
     x="0 3.892 5.838"
     y="0"
     sodipodi:role="line"
     id="tspan112">0.9</tspan></text>


</g><path
     d="m 343,1679.5 2050.5,0"
     style="fill:none;stroke:#000000;stroke-opacity:1;stroke-width:0.625;stroke-linecap:butt;stroke-linejoin:miter;stroke-miterlimit:3.8;stroke-dasharray:5,10;stroke-dashoffset:0"
     id="path114" /><path
     d="m 343,1679.5 31.5,0 m 2019,0 -31.5,0"
     style="fill:none;stroke:#000000;stroke-opacity:1;stroke-width:5;stroke-linecap:butt;stroke-linejoin:miter;stroke-miterlimit:3.8;stroke-dasharray:none"
     id="path116" /><g
     id="g118"
     transform="scale(10,10)"><text
   transform="matrix(1,0,0,-1,26.2085,165.65)"
   id="text120"><tspan
     style="fill:#000000;fill-opacity:1;fill-rule:nonzero;stroke:none;font-family:Helvetica;font-variant:normal;font-weight:normal;font-size:7;writing-mode:lr;-inkscape-font-specification:Helvetica"
     x="0"
     y="0"
     id="tspan122">1</tspan></text>


</g><path
     d="m 343,224 0,1455.5"
     style="fill:none;stroke:#000000;stroke-opacity:1;stroke-width:0.625;stroke-linecap:butt;stroke-linejoin:miter;stroke-miterlimit:3.8;stroke-dasharray:5,10;stroke-dashoffset:0"
     id="path124" /><path
     d="m 343,224 0,31.5 m 0,1424 0,-31.5"
     style="fill:none;stroke:#000000;stroke-opacity:1;stroke-width:5;stroke-linecap:butt;stroke-linejoin:miter;stroke-miterlimit:3.8;stroke-dasharray:none"
     id="path126" /><g
     id="g128"
     transform="scale(10,10)"><text
   transform="matrix(1,0,0,-1,28.2699,13.1)"
   id="text130"><tspan
     style="fill:#000000;fill-opacity:1;fill-rule:nonzero;stroke:none;font-family:Helvetica;font-variant:normal;font-weight:normal;font-size:7;writing-mode:lr;-inkscape-font-specification:Helvetica"
     x="0 2.331 6.223 8.169"
     y="0"
     sodipodi:role="line"
     id="tspan132">-0.2</tspan></text>


</g><path
     d="m 753,224 0,1455.5"
     style="fill:none;stroke:#000000;stroke-opacity:1;stroke-width:0.625;stroke-linecap:butt;stroke-linejoin:miter;stroke-miterlimit:3.8;stroke-dasharray:5,10;stroke-dashoffset:0"
     id="path134" /><path
     d="m 753,224 0,31.5 m 0,1424 0,-31.5"
     style="fill:none;stroke:#000000;stroke-opacity:1;stroke-width:5;stroke-linecap:butt;stroke-linejoin:miter;stroke-miterlimit:3.8;stroke-dasharray:none"
     id="path136" /><g
     id="g138"
     transform="scale(10,10)"><text
   transform="matrix(1,0,0,-1,69.2699,13.1)"
   id="text140"><tspan
     style="fill:#000000;fill-opacity:1;fill-rule:nonzero;stroke:none;font-family:Helvetica;font-variant:normal;font-weight:normal;font-size:7;writing-mode:lr;-inkscape-font-specification:Helvetica"
     x="0 2.331 6.223 8.169"
     y="0"
     sodipodi:role="line"
     id="tspan142">-0.1</tspan></text>


</g><path
     d="m 1163,224 0,1455.5"
     style="fill:none;stroke:#000000;stroke-opacity:1;stroke-width:0.625;stroke-linecap:butt;stroke-linejoin:miter;stroke-miterlimit:3.8;stroke-dasharray:5,10;stroke-dashoffset:0"
     id="path144" /><path
     d="m 1163,224 0,31.5 m 0,1424 0,-31.5"
     style="fill:none;stroke:#000000;stroke-opacity:1;stroke-width:5;stroke-linecap:butt;stroke-linejoin:miter;stroke-miterlimit:3.8;stroke-dasharray:none"
     id="path146" /><g
     id="g148"
     transform="scale(10,10)"><text
   transform="matrix(1,0,0,-1,115.327,13.1)"
   id="text150"><tspan
     style="fill:#000000;fill-opacity:1;fill-rule:nonzero;stroke:none;font-family:Helvetica;font-variant:normal;font-weight:normal;font-size:7;writing-mode:lr;-inkscape-font-specification:Helvetica"
     x="0"
     y="0"
     id="tspan152">0</tspan></text>


</g><path
     d="m 1573.5,224 0,1354 m 0,70 0,31.5"
     style="fill:none;stroke:#000000;stroke-opacity:1;stroke-width:0.625;stroke-linecap:butt;stroke-linejoin:miter;stroke-miterlimit:3.8;stroke-dasharray:5,10;stroke-dashoffset:0"
     id="path154" /><path
     d="m 1573.5,224 0,31.5 m 0,1424 0,-31.5"
     style="fill:none;stroke:#000000;stroke-opacity:1;stroke-width:5;stroke-linecap:butt;stroke-linejoin:miter;stroke-miterlimit:3.8;stroke-dasharray:none"
     id="path156" /><g
     id="g158"
     transform="scale(10,10)"><text
   transform="matrix(1,0,0,-1,153.459,13.1)"
   id="text160"><tspan
     style="fill:#000000;fill-opacity:1;fill-rule:nonzero;stroke:none;font-family:Helvetica;font-variant:normal;font-weight:normal;font-size:7;writing-mode:lr;-inkscape-font-specification:Helvetica"
     x="0 3.892 5.838"
     y="0"
     sodipodi:role="line"
     id="tspan162">0.1</tspan></text>


</g><path
     d="m 1983.5,224 0,1354 m 0,70 0,31.5"
     style="fill:none;stroke:#000000;stroke-opacity:1;stroke-width:0.625;stroke-linecap:butt;stroke-linejoin:miter;stroke-miterlimit:3.8;stroke-dasharray:5,10;stroke-dashoffset:0"
     id="path164" /><path
     d="m 1983.5,224 0,31.5 m 0,1424 0,-31.5"
     style="fill:none;stroke:#000000;stroke-opacity:1;stroke-width:5;stroke-linecap:butt;stroke-linejoin:miter;stroke-miterlimit:3.8;stroke-dasharray:none"
     id="path166" /><g
     id="g168"
     transform="scale(10,10)"><text
   transform="matrix(1,0,0,-1,194.459,13.1)"
   id="text170"><tspan
     style="fill:#000000;fill-opacity:1;fill-rule:nonzero;stroke:none;font-family:Helvetica;font-variant:normal;font-weight:normal;font-size:7;writing-mode:lr;-inkscape-font-specification:Helvetica"
     x="0 3.892 5.838"
     y="0"
     sodipodi:role="line"
     id="tspan172">0.2</tspan></text>


</g><path
     d="m 2393.5,224 0,1455.5"
     style="fill:none;stroke:#000000;stroke-opacity:1;stroke-width:0.625;stroke-linecap:butt;stroke-linejoin:miter;stroke-miterlimit:3.8;stroke-dasharray:5,10;stroke-dashoffset:0"
     id="path174" /><path
     d="m 2393.5,224 0,31.5 m 0,1424 0,-31.5"
     style="fill:none;stroke:#000000;stroke-opacity:1;stroke-width:5;stroke-linecap:butt;stroke-linejoin:miter;stroke-miterlimit:3.8;stroke-dasharray:none"
     id="path176" /><g
     id="g178"
     transform="scale(10,10)"><text
   transform="matrix(1,0,0,-1,235.459,13.1)"
   id="text180"><tspan
     style="fill:#000000;fill-opacity:1;fill-rule:nonzero;stroke:none;font-family:Helvetica;font-variant:normal;font-weight:normal;font-size:7;writing-mode:lr;-inkscape-font-specification:Helvetica"
     x="0 3.892 5.838"
     y="0"
     sodipodi:role="line"
     id="tspan182">0.3</tspan></text>


</g><path
     d="m 343,224 2050.5,0 0,1455.5 -2050.5,0 0,-1455.5 z"
     style="fill:none;stroke:#000000;stroke-opacity:1;stroke-width:5;stroke-linecap:butt;stroke-linejoin:miter;stroke-miterlimit:3.8;stroke-dasharray:none"
     id="path184" /><g
     id="g186"
     transform="scale(10,10)"><text
   transform="matrix(0,1,1,0,7.9,93.0117)"
   id="text188"><tspan
     style="font-size:7px;font-variant:normal;font-weight:normal;writing-mode:lr-tb;fill:#000000;fill-opacity:1;fill-rule:nonzero;stroke:none;font-family:Helvetica;-inkscape-font-specification:Helvetica"
     x="0"
     y="0"
     id="tspan190">Φ</tspan></text>


<text
   transform="matrix(1,0,0,-1,132.908,2.6)"
   id="text192"><tspan
     style="font-size:7px;font-variant:normal;font-weight:normal;writing-mode:lr-tb;fill:#000000;fill-opacity:1;fill-rule:nonzero;stroke:none;font-family:Helvetica;-inkscape-font-specification:Helvetica"
     x="0"
     sodipodi:role="line"
     id="tspan194"
     y="0">λ1</tspan><tspan
     style="font-size:7px;font-variant:normal;font-weight:normal;writing-mode:lr-tb;fill:#000000;fill-opacity:1;fill-rule:nonzero;stroke:none;font-family:Helvetica;-inkscape-font-specification:Helvetica"
     x="20.6031 24.8801 27.2111 31.1031 32.657101 36.549099 38.1031 41.995098 45.8871 47.833099 51.333099 55.225101 61.056099 64.948097 66.502098 70.394096"
     y="-156.39999"
     sodipodi:role="line"
     id="tspan196">Training samples</tspan></text>


</g><path
     d="m 1439.75,259 c 0,8.695 -7.05,15.75 -15.75,15.75 -8.7,0 -15.75,-7.055 -15.75,-15.75 0,-8.695 7.05,-15.75 15.75,-15.75 8.7,0 15.75,7.055 15.75,15.75"
     style="fill:#000000;fill-opacity:1;fill-rule:nonzero;stroke:none"
     id="path198" /><path
     d="m 1488.75,235.5 c 0,8.695 -7.05,15.75 -15.75,15.75 -8.7,0 -15.75,-7.055 -15.75,-15.75 0,-8.695 7.05,-15.75 15.75,-15.75 8.7,0 15.75,7.055 15.75,15.75"
     style="fill:#000000;fill-opacity:1;fill-rule:nonzero;stroke:none"
     id="path200" /><path
     d="m 1317.25,246.5 c 0,8.695 -7.05,15.75 -15.75,15.75 -8.7,0 -15.75,-7.055 -15.75,-15.75 0,-8.695 7.05,-15.75 15.75,-15.75 8.7,0 15.75,7.055 15.75,15.75"
     style="fill:#000000;fill-opacity:1;fill-rule:nonzero;stroke:none"
     id="path202" /><path
     d="m 1515.75,230 c 0,8.695 -7.05,15.75 -15.75,15.75 -8.7,0 -15.75,-7.055 -15.75,-15.75 0,-8.695 7.05,-15.75 15.75,-15.75 8.7,0 15.75,7.055 15.75,15.75"
     style="fill:#000000;fill-opacity:1;fill-rule:nonzero;stroke:none"
     id="path204" /><path
     d="m 1399.25,297.5 c 0,8.695 -7.05,15.75 -15.75,15.75 -8.7,0 -15.75,-7.055 -15.75,-15.75 0,-8.695 7.05,-15.75 15.75,-15.75 8.7,0 15.75,7.055 15.75,15.75"
     style="fill:#000000;fill-opacity:1;fill-rule:nonzero;stroke:none"
     id="path206" /><path
     d="m 1290.75,229.5 c 0,8.695 -7.05,15.75 -15.75,15.75 -8.7,0 -15.75,-7.055 -15.75,-15.75 0,-8.695 7.05,-15.75 15.75,-15.75 8.7,0 15.75,7.055 15.75,15.75"
     style="fill:#000000;fill-opacity:1;fill-rule:nonzero;stroke:none"
     id="path208" /><path
     d="m 1213.75,235 c 0,8.695 -7.05,15.75 -15.75,15.75 -8.7,0 -15.75,-7.055 -15.75,-15.75 0,-8.695 7.05,-15.75 15.75,-15.75 8.7,0 15.75,7.055 15.75,15.75"
     style="fill:#000000;fill-opacity:1;fill-rule:nonzero;stroke:none"
     id="path210" /><path
     d="m 1244.75,229.5 c 0,8.695 -7.05,15.75 -15.75,15.75 -8.7,0 -15.75,-7.055 -15.75,-15.75 0,-8.695 7.05,-15.75 15.75,-15.75 8.7,0 15.75,7.055 15.75,15.75"
     style="fill:#000000;fill-opacity:1;fill-rule:nonzero;stroke:none"
     id="path212" /><path
     d="m 1551.75,230 c 0,8.695 -7.05,15.75 -15.75,15.75 -8.7,0 -15.75,-7.055 -15.75,-15.75 0,-8.695 7.05,-15.75 15.75,-15.75 8.7,0 15.75,7.055 15.75,15.75"
     style="fill:#000000;fill-opacity:1;fill-rule:nonzero;stroke:none"
     id="path214" /><path
     d="m 1542.75,230 c 0,8.695 -7.05,15.75 -15.75,15.75 -8.7,0 -15.75,-7.055 -15.75,-15.75 0,-8.695 7.05,-15.75 15.75,-15.75 8.7,0 15.75,7.055 15.75,15.75"
     style="fill:#000000;fill-opacity:1;fill-rule:nonzero;stroke:none"
     id="path216" /><path
     d="m 1609.25,290 c 0,8.695 -7.05,15.75 -15.75,15.75 -8.7,0 -15.75,-7.055 -15.75,-15.75 0,-8.695 7.05,-15.75 15.75,-15.75 8.7,0 15.75,7.055 15.75,15.75"
     style="fill:#000000;fill-opacity:1;fill-rule:nonzero;stroke:none"
     id="path218" /><path
     d="m 1659.75,235.5 c 0,8.695 -7.05,15.75 -15.75,15.75 -8.7,0 -15.75,-7.055 -15.75,-15.75 0,-8.695 7.05,-15.75 15.75,-15.75 8.7,0 15.75,7.055 15.75,15.75"
     style="fill:#000000;fill-opacity:1;fill-rule:nonzero;stroke:none"
     id="path220" /><path
     d="m 1234.75,257.5 c 0,8.695 -7.05,15.75 -15.75,15.75 -8.7,0 -15.75,-7.055 -15.75,-15.75 0,-8.695 7.05,-15.75 15.75,-15.75 8.7,0 15.75,7.055 15.75,15.75"
     style="fill:#000000;fill-opacity:1;fill-rule:nonzero;stroke:none"
     id="path222" /><path
     d="m 1568.25,254.5 c 0,8.695 -7.05,15.75 -15.75,15.75 -8.7,0 -15.75,-7.055 -15.75,-15.75 0,-8.695 7.05,-15.75 15.75,-15.75 8.7,0 15.75,7.055 15.75,15.75"
     style="fill:#000000;fill-opacity:1;fill-rule:nonzero;stroke:none"
     id="path224" /><path
     d="m 1341.25,314 c 0,8.695 -7.05,15.75 -15.75,15.75 -8.7,0 -15.75,-7.055 -15.75,-15.75 0,-8.695 7.05,-15.75 15.75,-15.75 8.7,0 15.75,7.055 15.75,15.75"
     style="fill:#000000;fill-opacity:1;fill-rule:nonzero;stroke:none"
     id="path226" /><path
     d="m 1246.25,262.5 c 0,8.695 -7.05,15.75 -15.75,15.75 -8.7,0 -15.75,-7.055 -15.75,-15.75 0,-8.695 7.05,-15.75 15.75,-15.75 8.7,0 15.75,7.055 15.75,15.75"
     style="fill:#000000;fill-opacity:1;fill-rule:nonzero;stroke:none"
     id="path228" /><path
     d="m 1194.75,241 c 0,8.695 -7.05,15.75 -15.75,15.75 -8.7,0 -15.75,-7.055 -15.75,-15.75 0,-8.695 7.05,-15.75 15.75,-15.75 8.7,0 15.75,7.055 15.75,15.75"
     style="fill:#000000;fill-opacity:1;fill-rule:nonzero;stroke:none"
     id="path230" /><path
     d="m 1473.25,328 c 0,8.695 -7.05,15.75 -15.75,15.75 -8.7,0 -15.75,-7.055 -15.75,-15.75 0,-8.695 7.05,-15.75 15.75,-15.75 8.7,0 15.75,7.055 15.75,15.75"
     style="fill:#000000;fill-opacity:1;fill-rule:nonzero;stroke:none"
     id="path232" /><path
     d="m 1450.75,336.5 c 0,8.695 -7.05,15.75 -15.75,15.75 -8.7,0 -15.75,-7.055 -15.75,-15.75 0,-8.695 7.05,-15.75 15.75,-15.75 8.7,0 15.75,7.055 15.75,15.75"
     style="fill:#000000;fill-opacity:1;fill-rule:nonzero;stroke:none"
     id="path234" /><path
     d="m 1328.25,335 c 0,8.695 -7.05,15.75 -15.75,15.75 -8.7,0 -15.75,-7.055 -15.75,-15.75 0,-8.695 7.05,-15.75 15.75,-15.75 8.7,0 15.75,7.055 15.75,15.75"
     style="fill:#000000;fill-opacity:1;fill-rule:nonzero;stroke:none"
     id="path236" /><path
     d="m 1721.75,256.5 c 0,8.695 -7.05,15.75 -15.75,15.75 -8.7,0 -15.75,-7.055 -15.75,-15.75 0,-8.695 7.05,-15.75 15.75,-15.75 8.7,0 15.75,7.055 15.75,15.75"
     style="fill:#000000;fill-opacity:1;fill-rule:nonzero;stroke:none"
     id="path238" /><path
     d="m 1671.25,282.5 c 0,8.695 -7.05,15.75 -15.75,15.75 -8.7,0 -15.75,-7.055 -15.75,-15.75 0,-8.695 7.05,-15.75 15.75,-15.75 8.7,0 15.75,7.055 15.75,15.75"
     style="fill:#000000;fill-opacity:1;fill-rule:nonzero;stroke:none"
     id="path240" /><path
     d="m 1238.25,335.5 c 0,8.695 -7.05,15.75 -15.75,15.75 -8.7,0 -15.75,-7.055 -15.75,-15.75 0,-8.695 7.05,-15.75 15.75,-15.75 8.7,0 15.75,7.055 15.75,15.75"
     style="fill:#000000;fill-opacity:1;fill-rule:nonzero;stroke:none"
     id="path242" /><path
     d="m 1500.75,405.5 c 0,8.695 -7.05,15.75 -15.75,15.75 -8.7,0 -15.75,-7.055 -15.75,-15.75 0,-8.695 7.05,-15.75 15.75,-15.75 8.7,0 15.75,7.055 15.75,15.75"
     style="fill:#000000;fill-opacity:1;fill-rule:nonzero;stroke:none"
     id="path244" /><path
     d="m 1692.25,288 c 0,8.695 -7.05,15.75 -15.75,15.75 -8.7,0 -15.75,-7.055 -15.75,-15.75 0,-8.695 7.05,-15.75 15.75,-15.75 8.7,0 15.75,7.055 15.75,15.75"
     style="fill:#000000;fill-opacity:1;fill-rule:nonzero;stroke:none"
     id="path246" /><path
     d="m 1035.25,305.5 c 0,8.695 -7.05,15.75 -15.75,15.75 -8.7,0 -15.75,-7.055 -15.75,-15.75 0,-8.695 7.05,-15.75 15.75,-15.75 8.7,0 15.75,7.055 15.75,15.75"
     style="fill:#000000;fill-opacity:1;fill-rule:nonzero;stroke:none"
     id="path248" /><path
     d="m 981.25,229.5 c 0,8.695 -7.055,15.75 -15.75,15.75 -8.695,0 -15.75,-7.055 -15.75,-15.75 0,-8.695 7.055,-15.75 15.75,-15.75 8.695,0 15.75,7.055 15.75,15.75"
     style="fill:#000000;fill-opacity:1;fill-rule:nonzero;stroke:none"
     id="path250" /><path
     d="m 1568.75,432 c 0,8.695 -7.05,15.75 -15.75,15.75 -8.7,0 -15.75,-7.055 -15.75,-15.75 0,-8.695 7.05,-15.75 15.75,-15.75 8.7,0 15.75,7.055 15.75,15.75"
     style="fill:#000000;fill-opacity:1;fill-rule:nonzero;stroke:none"
     id="path252" /><path
     d="m 955.25,268 c 0,8.695 -7.055,15.75 -15.75,15.75 -8.695,0 -15.75,-7.055 -15.75,-15.75 0,-8.695 7.055,-15.75 15.75,-15.75 8.695,0 15.75,7.055 15.75,15.75"
     style="fill:#000000;fill-opacity:1;fill-rule:nonzero;stroke:none"
     id="path254" /><path
     d="m 1457.25,479 c 0,8.695 -7.05,15.75 -15.75,15.75 -8.7,0 -15.75,-7.055 -15.75,-15.75 0,-8.695 7.05,-15.75 15.75,-15.75 8.7,0 15.75,7.055 15.75,15.75"
     style="fill:#000000;fill-opacity:1;fill-rule:nonzero;stroke:none"
     id="path256" /><path
     d="m 973.25,229.5 c 0,8.695 -7.055,15.75 -15.75,15.75 -8.695,0 -15.75,-7.055 -15.75,-15.75 0,-8.695 7.055,-15.75 15.75,-15.75 8.695,0 15.75,7.055 15.75,15.75"
     style="fill:#000000;fill-opacity:1;fill-rule:nonzero;stroke:none"
     id="path258" /><path
     d="m 1367.25,477 c 0,8.695 -7.05,15.75 -15.75,15.75 -8.7,0 -15.75,-7.055 -15.75,-15.75 0,-8.695 7.05,-15.75 15.75,-15.75 8.7,0 15.75,7.055 15.75,15.75"
     style="fill:#000000;fill-opacity:1;fill-rule:nonzero;stroke:none"
     id="path260" /><path
     d="m 1680.25,314 c 0,8.695 -7.05,15.75 -15.75,15.75 -8.7,0 -15.75,-7.055 -15.75,-15.75 0,-8.695 7.05,-15.75 15.75,-15.75 8.7,0 15.75,7.055 15.75,15.75"
     style="fill:#000000;fill-opacity:1;fill-rule:nonzero;stroke:none"
     id="path262" /><path
     d="m 1343.75,403.5 c 0,8.695 -7.05,15.75 -15.75,15.75 -8.7,0 -15.75,-7.055 -15.75,-15.75 0,-8.695 7.05,-15.75 15.75,-15.75 8.7,0 15.75,7.055 15.75,15.75"
     style="fill:#000000;fill-opacity:1;fill-rule:nonzero;stroke:none"
     id="path264" /><path
     d="m 1270.25,387.5 c 0,8.695 -7.05,15.75 -15.75,15.75 -8.7,0 -15.75,-7.055 -15.75,-15.75 0,-8.695 7.05,-15.75 15.75,-15.75 8.7,0 15.75,7.055 15.75,15.75"
     style="fill:#000000;fill-opacity:1;fill-rule:nonzero;stroke:none"
     id="path266" /><path
     d="m 948.75,279 c 0,8.695 -7.055,15.75 -15.75,15.75 -8.695,0 -15.75,-7.055 -15.75,-15.75 0,-8.695 7.055,-15.75 15.75,-15.75 8.695,0 15.75,7.055 15.75,15.75"
     style="fill:#000000;fill-opacity:1;fill-rule:nonzero;stroke:none"
     id="path268" /><path
     d="m 1680.25,489.5 c 0,8.695 -7.05,15.75 -15.75,15.75 -8.7,0 -15.75,-7.055 -15.75,-15.75 0,-8.695 7.05,-15.75 15.75,-15.75 8.7,0 15.75,7.055 15.75,15.75"
     style="fill:#000000;fill-opacity:1;fill-rule:nonzero;stroke:none"
     id="path270" /><path
     d="m 1851.75,303 c 0,8.695 -7.05,15.75 -15.75,15.75 -8.7,0 -15.75,-7.055 -15.75,-15.75 0,-8.695 7.05,-15.75 15.75,-15.75 8.7,0 15.75,7.055 15.75,15.75"
     style="fill:#000000;fill-opacity:1;fill-rule:nonzero;stroke:none"
     id="path272" /><path
     d="m 1177.75,465.5 c 0,8.695 -7.05,15.75 -15.75,15.75 -8.7,0 -15.75,-7.055 -15.75,-15.75 0,-8.695 7.05,-15.75 15.75,-15.75 8.7,0 15.75,7.055 15.75,15.75"
     style="fill:#000000;fill-opacity:1;fill-rule:nonzero;stroke:none"
     id="path274" /><path
     d="m 1944.75,240 c 0,8.695 -7.05,15.75 -15.75,15.75 -8.7,0 -15.75,-7.055 -15.75,-15.75 0,-8.695 7.05,-15.75 15.75,-15.75 8.7,0 15.75,7.055 15.75,15.75"
     style="fill:#000000;fill-opacity:1;fill-rule:nonzero;stroke:none"
     id="path276" /><path
     d="m 1255.75,408.5 c 0,8.695 -7.05,15.75 -15.75,15.75 -8.7,0 -15.75,-7.055 -15.75,-15.75 0,-8.695 7.05,-15.75 15.75,-15.75 8.7,0 15.75,7.055 15.75,15.75"
     style="fill:#000000;fill-opacity:1;fill-rule:nonzero;stroke:none"
     id="path278" /><path
     d="m 1402.25,653.5 c 0,8.695 -7.05,15.75 -15.75,15.75 -8.7,0 -15.75,-7.055 -15.75,-15.75 0,-8.695 7.05,-15.75 15.75,-15.75 8.7,0 15.75,7.055 15.75,15.75"
     style="fill:#000000;fill-opacity:1;fill-rule:nonzero;stroke:none"
     id="path280" /><path
     d="m 1095.75,462 c 0,8.695 -7.05,15.75 -15.75,15.75 -8.7,0 -15.75,-7.055 -15.75,-15.75 0,-8.695 7.05,-15.75 15.75,-15.75 8.7,0 15.75,7.055 15.75,15.75"
     style="fill:#000000;fill-opacity:1;fill-rule:nonzero;stroke:none"
     id="path282" /><path
     d="m 1975.75,229.5 c 0,8.695 -7.05,15.75 -15.75,15.75 -8.7,0 -15.75,-7.055 -15.75,-15.75 0,-8.695 7.05,-15.75 15.75,-15.75 8.7,0 15.75,7.055 15.75,15.75"
     style="fill:#000000;fill-opacity:1;fill-rule:nonzero;stroke:none"
     id="path284" /><path
     d="m 859.25,323 c 0,8.695 -7.055,15.75 -15.75,15.75 -8.695,0 -15.75,-7.055 -15.75,-15.75 0,-8.695 7.055,-15.75 15.75,-15.75 8.695,0 15.75,7.055 15.75,15.75"
     style="fill:#000000;fill-opacity:1;fill-rule:nonzero;stroke:none"
     id="path286" /><path
     d="m 1622.75,369.5 c 0,8.695 -7.05,15.75 -15.75,15.75 -8.7,0 -15.75,-7.055 -15.75,-15.75 0,-8.695 7.05,-15.75 15.75,-15.75 8.7,0 15.75,7.055 15.75,15.75"
     style="fill:#000000;fill-opacity:1;fill-rule:nonzero;stroke:none"
     id="path288" /><path
     d="m 1023.75,451.5 c 0,8.695 -7.05,15.75 -15.75,15.75 -8.695,0 -15.75,-7.055 -15.75,-15.75 0,-8.695 7.055,-15.75 15.75,-15.75 8.7,0 15.75,7.055 15.75,15.75"
     style="fill:#000000;fill-opacity:1;fill-rule:nonzero;stroke:none"
     id="path290" /><path
     d="m 845.25,246.5 c 0,8.695 -7.055,15.75 -15.75,15.75 -8.695,0 -15.75,-7.055 -15.75,-15.75 0,-8.695 7.055,-15.75 15.75,-15.75 8.695,0 15.75,7.055 15.75,15.75"
     style="fill:#000000;fill-opacity:1;fill-rule:nonzero;stroke:none"
     id="path292" /><path
     d="m 1058.75,347.5 c 0,8.695 -7.05,15.75 -15.75,15.75 -8.7,0 -15.75,-7.055 -15.75,-15.75 0,-8.695 7.05,-15.75 15.75,-15.75 8.7,0 15.75,7.055 15.75,15.75"
     style="fill:#000000;fill-opacity:1;fill-rule:nonzero;stroke:none"
     id="path294" /><path
     d="m 2034.25,250.5 c 0,8.695 -7.05,15.75 -15.75,15.75 -8.7,0 -15.75,-7.055 -15.75,-15.75 0,-8.695 7.05,-15.75 15.75,-15.75 8.7,0 15.75,7.055 15.75,15.75"
     style="fill:#000000;fill-opacity:1;fill-rule:nonzero;stroke:none"
     id="path296" /><path
     d="m 1963.75,352.5 c 0,8.695 -7.05,15.75 -15.75,15.75 -8.7,0 -15.75,-7.055 -15.75,-15.75 0,-8.695 7.05,-15.75 15.75,-15.75 8.7,0 15.75,7.055 15.75,15.75"
     style="fill:#000000;fill-opacity:1;fill-rule:nonzero;stroke:none"
     id="path298" /><path
     d="m 809.75,264 c 0,8.695 -7.055,15.75 -15.75,15.75 -8.695,0 -15.75,-7.055 -15.75,-15.75 0,-8.695 7.055,-15.75 15.75,-15.75 8.695,0 15.75,7.055 15.75,15.75"
     style="fill:#000000;fill-opacity:1;fill-rule:nonzero;stroke:none"
     id="path300" /><path
     d="m 1401.75,456 c 0,8.695 -7.05,15.75 -15.75,15.75 -8.7,0 -15.75,-7.055 -15.75,-15.75 0,-8.695 7.05,-15.75 15.75,-15.75 8.7,0 15.75,7.055 15.75,15.75"
     style="fill:#000000;fill-opacity:1;fill-rule:nonzero;stroke:none"
     id="path302" /><path
     d="m 1422.75,840 c 0,8.695 -7.05,15.75 -15.75,15.75 -8.7,0 -15.75,-7.055 -15.75,-15.75 0,-8.695 7.05,-15.75 15.75,-15.75 8.7,0 15.75,7.055 15.75,15.75"
     style="fill:#000000;fill-opacity:1;fill-rule:nonzero;stroke:none"
     id="path304" /><path
     d="m 1796.75,384 c 0,8.695 -7.05,15.75 -15.75,15.75 -8.7,0 -15.75,-7.055 -15.75,-15.75 0,-8.695 7.05,-15.75 15.75,-15.75 8.7,0 15.75,7.055 15.75,15.75"
     style="fill:#000000;fill-opacity:1;fill-rule:nonzero;stroke:none"
     id="path306" /><path
     d="m 789.75,233 c 0,8.695 -7.055,15.75 -15.75,15.75 -8.695,0 -15.75,-7.055 -15.75,-15.75 0,-8.695 7.055,-15.75 15.75,-15.75 8.695,0 15.75,7.055 15.75,15.75"
     style="fill:#000000;fill-opacity:1;fill-rule:nonzero;stroke:none"
     id="path308" /><path
     d="m 2057.25,229.5 c 0,8.695 -7.05,15.75 -15.75,15.75 -8.7,0 -15.75,-7.055 -15.75,-15.75 0,-8.695 7.05,-15.75 15.75,-15.75 8.7,0 15.75,7.055 15.75,15.75"
     style="fill:#000000;fill-opacity:1;fill-rule:nonzero;stroke:none"
     id="path310" /><path
     d="m 1771.25,792 c 0,8.695 -7.05,15.75 -15.75,15.75 -8.7,0 -15.75,-7.055 -15.75,-15.75 0,-8.695 7.05,-15.75 15.75,-15.75 8.7,0 15.75,7.055 15.75,15.75"
     style="fill:#000000;fill-opacity:1;fill-rule:nonzero;stroke:none"
     id="path312" /><path
     d="m 1396.25,460.5 c 0,8.695 -7.05,15.75 -15.75,15.75 -8.7,0 -15.75,-7.055 -15.75,-15.75 0,-8.695 7.05,-15.75 15.75,-15.75 8.7,0 15.75,7.055 15.75,15.75"
     style="fill:#000000;fill-opacity:1;fill-rule:nonzero;stroke:none"
     id="path314" /><path
     d="m 1634.75,948.5 c 0,8.695 -7.05,15.75 -15.75,15.75 -8.7,0 -15.75,-7.055 -15.75,-15.75 0,-8.695 7.05,-15.75 15.75,-15.75 8.7,0 15.75,7.055 15.75,15.75"
     style="fill:#000000;fill-opacity:1;fill-rule:nonzero;stroke:none"
     id="path316" /><path
     d="m 754.75,281.5 c 0,8.695 -7.055,15.75 -15.75,15.75 -8.695,0 -15.75,-7.055 -15.75,-15.75 0,-8.695 7.055,-15.75 15.75,-15.75 8.695,0 15.75,7.055 15.75,15.75"
     style="fill:#000000;fill-opacity:1;fill-rule:nonzero;stroke:none"
     id="path318" /><path
     d="m 2066.75,272.5 c 0,8.695 -7.05,15.75 -15.75,15.75 -8.7,0 -15.75,-7.055 -15.75,-15.75 0,-8.695 7.05,-15.75 15.75,-15.75 8.7,0 15.75,7.055 15.75,15.75"
     style="fill:#000000;fill-opacity:1;fill-rule:nonzero;stroke:none"
     id="path320" /><path
     d="m 1349.75,937 c 0,8.695 -7.05,15.75 -15.75,15.75 -8.7,0 -15.75,-7.055 -15.75,-15.75 0,-8.695 7.05,-15.75 15.75,-15.75 8.7,0 15.75,7.055 15.75,15.75"
     style="fill:#000000;fill-opacity:1;fill-rule:nonzero;stroke:none"
     id="path322" /><path
     d="m 1461.75,448.5 c 0,8.695 -7.05,15.75 -15.75,15.75 -8.7,0 -15.75,-7.055 -15.75,-15.75 0,-8.695 7.05,-15.75 15.75,-15.75 8.7,0 15.75,7.055 15.75,15.75"
     style="fill:#000000;fill-opacity:1;fill-rule:nonzero;stroke:none"
     id="path324" /><path
     d="m 2112.75,229.5 c 0,8.695 -7.05,15.75 -15.75,15.75 -8.7,0 -15.75,-7.055 -15.75,-15.75 0,-8.695 7.05,-15.75 15.75,-15.75 8.7,0 15.75,7.055 15.75,15.75"
     style="fill:#000000;fill-opacity:1;fill-rule:nonzero;stroke:none"
     id="path326" /><path
     d="m 978.25,581.5 c 0,8.695 -7.055,15.75 -15.75,15.75 -8.695,0 -15.75,-7.055 -15.75,-15.75 0,-8.695 7.055,-15.75 15.75,-15.75 8.695,0 15.75,7.055 15.75,15.75"
     style="fill:#000000;fill-opacity:1;fill-rule:nonzero;stroke:none"
     id="path328" /><path
     d="m 1599.75,384.5 c 0,8.695 -7.05,15.75 -15.75,15.75 -8.7,0 -15.75,-7.055 -15.75,-15.75 0,-8.695 7.05,-15.75 15.75,-15.75 8.7,0 15.75,7.055 15.75,15.75"
     style="fill:#000000;fill-opacity:1;fill-rule:nonzero;stroke:none"
     id="path330" /><path
     d="m 1999.75,350.5 c 0,8.695 -7.05,15.75 -15.75,15.75 -8.7,0 -15.75,-7.055 -15.75,-15.75 0,-8.695 7.05,-15.75 15.75,-15.75 8.7,0 15.75,7.055 15.75,15.75"
     style="fill:#000000;fill-opacity:1;fill-rule:nonzero;stroke:none"
     id="path332" /><path
     d="m 1304.75,506.5 c 0,8.695 -7.05,15.75 -15.75,15.75 -8.7,0 -15.75,-7.055 -15.75,-15.75 0,-8.695 7.05,-15.75 15.75,-15.75 8.7,0 15.75,7.055 15.75,15.75"
     style="fill:#000000;fill-opacity:1;fill-rule:nonzero;stroke:none"
     id="path334" /><path
     d="m 1704.75,429.5 c 0,8.695 -7.05,15.75 -15.75,15.75 -8.7,0 -15.75,-7.055 -15.75,-15.75 0,-8.695 7.05,-15.75 15.75,-15.75 8.7,0 15.75,7.055 15.75,15.75"
     style="fill:#000000;fill-opacity:1;fill-rule:nonzero;stroke:none"
     id="path336" /><path
     d="m 1053.25,726 c 0,8.695 -7.05,15.75 -15.75,15.75 -8.7,0 -15.75,-7.055 -15.75,-15.75 0,-8.695 7.05,-15.75 15.75,-15.75 8.7,0 15.75,7.055 15.75,15.75"
     style="fill:#000000;fill-opacity:1;fill-rule:nonzero;stroke:none"
     id="path338" /><path
     d="m 1088.75,417.5 c 0,8.695 -7.05,15.75 -15.75,15.75 -8.7,0 -15.75,-7.055 -15.75,-15.75 0,-8.695 7.05,-15.75 15.75,-15.75 8.7,0 15.75,7.055 15.75,15.75"
     style="fill:#000000;fill-opacity:1;fill-rule:nonzero;stroke:none"
     id="path340" /><path
     d="m 688.25,230 c 0,8.695 -7.055,15.75 -15.75,15.75 -8.695,0 -15.75,-7.055 -15.75,-15.75 0,-8.695 7.055,-15.75 15.75,-15.75 8.695,0 15.75,7.055 15.75,15.75"
     style="fill:#000000;fill-opacity:1;fill-rule:nonzero;stroke:none"
     id="path342" /><path
     d="m 1094.75,800 c 0,8.695 -7.05,15.75 -15.75,15.75 -8.7,0 -15.75,-7.055 -15.75,-15.75 0,-8.695 7.05,-15.75 15.75,-15.75 8.7,0 15.75,7.055 15.75,15.75"
     style="fill:#000000;fill-opacity:1;fill-rule:nonzero;stroke:none"
     id="path344" /><path
     d="m 683.75,235.5 c 0,8.695 -7.055,15.75 -15.75,15.75 -8.695,0 -15.75,-7.055 -15.75,-15.75 0,-8.695 7.055,-15.75 15.75,-15.75 8.695,0 15.75,7.055 15.75,15.75"
     style="fill:#000000;fill-opacity:1;fill-rule:nonzero;stroke:none"
     id="path346" /><path
     d="m 2119.75,293.5 c 0,8.695 -7.05,15.75 -15.75,15.75 -8.7,0 -15.75,-7.055 -15.75,-15.75 0,-8.695 7.05,-15.75 15.75,-15.75 8.7,0 15.75,7.055 15.75,15.75"
     style="fill:#000000;fill-opacity:1;fill-rule:nonzero;stroke:none"
     id="path348" /><path
     d="m 1429.25,1240.5 c 0,8.7 -7.05,15.75 -15.75,15.75 -8.7,0 -15.75,-7.05 -15.75,-15.75 0,-8.7 7.05,-15.75 15.75,-15.75 8.7,0 15.75,7.05 15.75,15.75"
     style="fill:#000000;fill-opacity:1;fill-rule:nonzero;stroke:none"
     id="path350" /><path
     d="m 2167.25,229.5 c 0,8.695 -7.05,15.75 -15.75,15.75 -8.7,0 -15.75,-7.055 -15.75,-15.75 0,-8.695 7.05,-15.75 15.75,-15.75 8.7,0 15.75,7.055 15.75,15.75"
     style="fill:#000000;fill-opacity:1;fill-rule:nonzero;stroke:none"
     id="path352" /><path
     d="m 1698.75,463 c 0,8.695 -7.05,15.75 -15.75,15.75 -8.7,0 -15.75,-7.055 -15.75,-15.75 0,-8.695 7.05,-15.75 15.75,-15.75 8.7,0 15.75,7.055 15.75,15.75"
     style="fill:#000000;fill-opacity:1;fill-rule:nonzero;stroke:none"
     id="path354" /><path
     d="m 709.25,410 c 0,8.695 -7.055,15.75 -15.75,15.75 -8.695,0 -15.75,-7.055 -15.75,-15.75 0,-8.695 7.055,-15.75 15.75,-15.75 8.695,0 15.75,7.055 15.75,15.75"
     style="fill:#000000;fill-opacity:1;fill-rule:nonzero;stroke:none"
     id="path356" /><path
     d="m 1974.25,380 c 0,8.695 -7.05,15.75 -15.75,15.75 -8.7,0 -15.75,-7.055 -15.75,-15.75 0,-8.695 7.05,-15.75 15.75,-15.75 8.7,0 15.75,7.055 15.75,15.75"
     style="fill:#000000;fill-opacity:1;fill-rule:nonzero;stroke:none"
     id="path358" /><path
     d="m 1209.25,586.5 c 0,8.695 -7.05,15.75 -15.75,15.75 -8.7,0 -15.75,-7.055 -15.75,-15.75 0,-8.695 7.05,-15.75 15.75,-15.75 8.7,0 15.75,7.055 15.75,15.75"
     style="fill:#000000;fill-opacity:1;fill-rule:nonzero;stroke:none"
     id="path360" /><path
     d="m 704.75,431 c 0,8.695 -7.055,15.75 -15.75,15.75 -8.695,0 -15.75,-7.055 -15.75,-15.75 0,-8.695 7.055,-15.75 15.75,-15.75 8.695,0 15.75,7.055 15.75,15.75"
     style="fill:#000000;fill-opacity:1;fill-rule:nonzero;stroke:none"
     id="path362" /><path
     d="m 781.75,454.5 c 0,8.695 -7.055,15.75 -15.75,15.75 -8.695,0 -15.75,-7.055 -15.75,-15.75 0,-8.695 7.055,-15.75 15.75,-15.75 8.695,0 15.75,7.055 15.75,15.75"
     style="fill:#000000;fill-opacity:1;fill-rule:nonzero;stroke:none"
     id="path364" /><path
     d="m 2216.25,467 c 0,8.695 -7.05,15.75 -15.75,15.75 -8.7,0 -15.75,-7.055 -15.75,-15.75 0,-8.695 7.05,-15.75 15.75,-15.75 8.7,0 15.75,7.055 15.75,15.75"
     style="fill:#000000;fill-opacity:1;fill-rule:nonzero;stroke:none"
     id="path366" /><path
     d="m 2048.25,403.5 c 0,8.695 -7.05,15.75 -15.75,15.75 -8.7,0 -15.75,-7.055 -15.75,-15.75 0,-8.695 7.05,-15.75 15.75,-15.75 8.7,0 15.75,7.055 15.75,15.75"
     style="fill:#000000;fill-opacity:1;fill-rule:nonzero;stroke:none"
     id="path368" /><path
     d="m 1912.75,446 c 0,8.695 -7.05,15.75 -15.75,15.75 -8.7,0 -15.75,-7.055 -15.75,-15.75 0,-8.695 7.05,-15.75 15.75,-15.75 8.7,0 15.75,7.055 15.75,15.75"
     style="fill:#000000;fill-opacity:1;fill-rule:nonzero;stroke:none"
     id="path370" /><path
     d="m 1125.25,570 c 0,8.695 -7.05,15.75 -15.75,15.75 -8.7,0 -15.75,-7.055 -15.75,-15.75 0,-8.695 7.05,-15.75 15.75,-15.75 8.7,0 15.75,7.055 15.75,15.75"
     style="fill:#000000;fill-opacity:1;fill-rule:nonzero;stroke:none"
     id="path372" /><path
     d="m 1079.25,524.5 c 0,8.695 -7.05,15.75 -15.75,15.75 -8.7,0 -15.75,-7.055 -15.75,-15.75 0,-8.695 7.05,-15.75 15.75,-15.75 8.7,0 15.75,7.055 15.75,15.75"
     style="fill:#000000;fill-opacity:1;fill-rule:nonzero;stroke:none"
     id="path374" /><path
     d="m 1194.75,612 c 0,8.695 -7.05,15.75 -15.75,15.75 -8.7,0 -15.75,-7.055 -15.75,-15.75 0,-8.695 7.05,-15.75 15.75,-15.75 8.7,0 15.75,7.055 15.75,15.75"
     style="fill:#000000;fill-opacity:1;fill-rule:nonzero;stroke:none"
     id="path376" /><path
     d="m 1601.75,500 c 0,8.695 -7.05,15.75 -15.75,15.75 -8.7,0 -15.75,-7.055 -15.75,-15.75 0,-8.695 7.05,-15.75 15.75,-15.75 8.7,0 15.75,7.055 15.75,15.75"
     style="fill:#000000;fill-opacity:1;fill-rule:nonzero;stroke:none"
     id="path378" /><path
     d="m 646.25,539.5 c 0,8.695 -7.055,15.75 -15.75,15.75 -8.695,0 -15.75,-7.055 -15.75,-15.75 0,-8.695 7.055,-15.75 15.75,-15.75 8.695,0 15.75,7.055 15.75,15.75"
     style="fill:#000000;fill-opacity:1;fill-rule:nonzero;stroke:none"
     id="path380" /><path
     d="m 623.75,357 c 0,8.695 -7.055,15.75 -15.75,15.75 -8.695,0 -15.75,-7.055 -15.75,-15.75 0,-8.695 7.055,-15.75 15.75,-15.75 8.695,0 15.75,7.055 15.75,15.75"
     style="fill:#000000;fill-opacity:1;fill-rule:nonzero;stroke:none"
     id="path382" /><path
     d="m 1760.25,507 c 0,8.695 -7.05,15.75 -15.75,15.75 -8.7,0 -15.75,-7.055 -15.75,-15.75 0,-8.695 7.05,-15.75 15.75,-15.75 8.7,0 15.75,7.055 15.75,15.75"
     style="fill:#000000;fill-opacity:1;fill-rule:nonzero;stroke:none"
     id="path384" /><path
     d="m 923.25,1157 c 0,8.7 -7.055,15.75 -15.75,15.75 -8.695,0 -15.75,-7.05 -15.75,-15.75 0,-8.7 7.055,-15.75 15.75,-15.75 8.695,0 15.75,7.05 15.75,15.75"
     style="fill:#000000;fill-opacity:1;fill-rule:nonzero;stroke:none"
     id="path386" /><path
     d="m 2219.25,388.5 c 0,8.695 -7.05,15.75 -15.75,15.75 -8.7,0 -15.75,-7.055 -15.75,-15.75 0,-8.695 7.05,-15.75 15.75,-15.75 8.7,0 15.75,7.055 15.75,15.75"
     style="fill:#000000;fill-opacity:1;fill-rule:nonzero;stroke:none"
     id="path388" /><path
     d="m 1373.25,562.5 c 0,8.695 -7.05,15.75 -15.75,15.75 -8.7,0 -15.75,-7.055 -15.75,-15.75 0,-8.695 7.05,-15.75 15.75,-15.75 8.7,0 15.75,7.055 15.75,15.75"
     style="fill:#000000;fill-opacity:1;fill-rule:nonzero;stroke:none"
     id="path390" /><path
     d="m 2232.75,392.5 c 0,8.695 -7.05,15.75 -15.75,15.75 -8.7,0 -15.75,-7.055 -15.75,-15.75 0,-8.695 7.05,-15.75 15.75,-15.75 8.7,0 15.75,7.055 15.75,15.75"
     style="fill:#000000;fill-opacity:1;fill-rule:nonzero;stroke:none"
     id="path392" /><path
     d="m 2272.25,351.5 c 0,8.695 -7.05,15.75 -15.75,15.75 -8.7,0 -15.75,-7.055 -15.75,-15.75 0,-8.695 7.05,-15.75 15.75,-15.75 8.7,0 15.75,7.055 15.75,15.75"
     style="fill:#000000;fill-opacity:1;fill-rule:nonzero;stroke:none"
     id="path394" /><path
     d="m 2225.25,1613 c 0,8.7 -7.05,15.75 -15.75,15.75 -8.7,0 -15.75,-7.05 -15.75,-15.75 0,-8.7 7.05,-15.75 15.75,-15.75 8.7,0 15.75,7.05 15.75,15.75"
     style="fill:#000000;fill-opacity:1;fill-rule:nonzero;stroke:none"
     id="path396" /><path
     d="m 343,224 2050.5,0 0,1455.5 -2050.5,0 0,-1455.5 z"
     style="fill:none;stroke:#000000;stroke-opacity:1;stroke-width:5;stroke-linecap:butt;stroke-linejoin:miter;stroke-miterlimit:3.8;stroke-dasharray:none"
     id="path398" /></g><text
   xml:space="preserve"
   style="font-size:40px;font-style:normal;font-weight:normal;line-height:125%;letter-spacing:0px;word-spacing:0px;fill:#000000;fill-opacity:1;stroke:none;font-family:Sans"
   x="458.64407"
   y="-55"
   id="text3176"
   sodipodi:linespacing="125%"
   transform="matrix(0.8,0,0,-0.8,0,176)"><tspan
     sodipodi:role="line"
     id="tspan3178"
     x="458.64407"
     y="-55" /><tspan
     sodipodi:role="line"
     id="tspan3180"
     x="458.64407"
     y="-5" /></text>

</g></svg>