<?xml version="1.0" encoding="UTF-8" standalone="no"?>
<!-- Created with Inkscape (http://www.inkscape.org/) -->

<svg
   xmlns:dc="http://purl.org/dc/elements/1.1/"
   xmlns:cc="http://creativecommons.org/ns#"
   xmlns:rdf="http://www.w3.org/1999/02/22-rdf-syntax-ns#"
   xmlns:svg="http://www.w3.org/2000/svg"
   xmlns="http://www.w3.org/2000/svg"
   xmlns:sodipodi="http://sodipodi.sourceforge.net/DTD/sodipodi-0.dtd"
   xmlns:inkscape="http://www.inkscape.org/namespaces/inkscape"
   id="svg2"
   version="1.1"
   inkscape:version="0.48.3.1 r9886"
   width="765"
   height="990"
   xml:space="preserve"
   sodipodi:docname="HypervolumeComparison.svg"><metadata
     id="metadata8"><rdf:RDF><cc:Work
         rdf:about=""><dc:format>image/svg+xml</dc:format><dc:type
           rdf:resource="http://purl.org/dc/dcmitype/StillImage" /><dc:title /></cc:Work></rdf:RDF></metadata><defs
     id="defs6"><inkscape:perspective
       sodipodi:type="inkscape:persp3d"
       inkscape:vp_x="0 : 0.5 : 1"
       inkscape:vp_y="0 : 1000 : 0"
       inkscape:vp_z="1 : 0.5 : 1"
       inkscape:persp3d-origin="0.5 : 0.33333333 : 1"
       id="perspective10" /></defs><sodipodi:namedview
     pagecolor="#ffffff"
     bordercolor="#666666"
     borderopacity="1"
     objecttolerance="10"
     gridtolerance="10"
     guidetolerance="10"
     inkscape:pageopacity="0"
     inkscape:pageshadow="2"
     inkscape:window-width="1548"
     inkscape:window-height="876"
     id="namedview4"
     showgrid="false"
     inkscape:zoom="2.5667553"
     inkscape:cx="229.7975"
     inkscape:cy="173.18702"
     inkscape:window-x="52"
     inkscape:window-y="24"
     inkscape:window-maximized="1"
     inkscape:current-layer="g12" /><g
     id="g12"
     inkscape:groupmode="layer"
     inkscape:label="ink_ext_XXXXXX"
     transform="matrix(1.25,0,0,-1.25,0,990)"><path
       id="path16"
       style="fill:none;stroke:#000000;stroke-width:0.125;stroke-linecap:butt;stroke-linejoin:miter;stroke-miterlimit:10;stroke-opacity:1;stroke-dasharray:0.5, 1;stroke-dashoffset:0"
       d="m 130.4,88.4 153.6,0" /><path
       id="path18"
       style="fill:none;stroke:#000000;stroke-width:0.5;stroke-linecap:butt;stroke-linejoin:miter;stroke-miterlimit:10;stroke-opacity:1;stroke-dasharray:none"
       d="m 130.4,88.4 3.15,0 m 150.45,0 -3.15,0" /><g
       id="g20"><text
   id="text22"
   transform="matrix(1,0,0,-1,99.8485,84.4)"><tspan
     id="tspan24"
     sodipodi:role="line"
     y="0"
     x="0 6.6719999 10.008 16.68"
     style="font-size:12px;font-variant:normal;font-weight:normal;writing-mode:lr-tb;fill:#000000;fill-opacity:1;fill-rule:nonzero;stroke:none;font-family:Helvetica;-inkscape-font-specification:Helvetica">0.85</tspan></text>


</g><path
       id="path26"
       style="fill:none;stroke:#000000;stroke-width:0.125;stroke-linecap:butt;stroke-linejoin:miter;stroke-miterlimit:10;stroke-opacity:1;stroke-dasharray:0.5, 1;stroke-dashoffset:0"
       d="m 130.4,100.75 49.65,0 m 96.75,0 7.2,0" /><path
       id="path28"
       style="fill:none;stroke:#000000;stroke-width:0.5;stroke-linecap:butt;stroke-linejoin:miter;stroke-miterlimit:10;stroke-opacity:1;stroke-dasharray:none"
       d="m 130.4,100.75 3.15,0 m 150.45,0 -3.15,0" /><g
       id="g30"><text
   id="text32"
   transform="matrix(1,0,0,-1,99.8485,96.75)"><tspan
     id="tspan34"
     sodipodi:role="line"
     y="0"
     x="0 6.6719999 10.008 16.68"
     style="font-size:12px;font-variant:normal;font-weight:normal;writing-mode:lr-tb;fill:#000000;fill-opacity:1;fill-rule:nonzero;stroke:none;font-family:Helvetica;-inkscape-font-specification:Helvetica">0.86</tspan></text>


</g><path
       id="path36"
       style="fill:none;stroke:#000000;stroke-width:0.125;stroke-linecap:butt;stroke-linejoin:miter;stroke-miterlimit:10;stroke-opacity:1;stroke-dasharray:0.5, 1;stroke-dashoffset:0"
       d="m 130.4,113.1 49.65,0 m 96.75,0 7.2,0" /><path
       id="path38"
       style="fill:none;stroke:#000000;stroke-width:0.5;stroke-linecap:butt;stroke-linejoin:miter;stroke-miterlimit:10;stroke-opacity:1;stroke-dasharray:none"
       d="m 130.4,113.1 3.15,0 m 150.45,0 -3.15,0" /><g
       id="g40"><text
   id="text42"
   transform="matrix(1,0,0,-1,99.8485,109.1)"><tspan
     id="tspan44"
     sodipodi:role="line"
     y="0"
     x="0 6.6719999 10.008 16.68"
     style="font-size:12px;font-variant:normal;font-weight:normal;writing-mode:lr-tb;fill:#000000;fill-opacity:1;fill-rule:nonzero;stroke:none;font-family:Helvetica;-inkscape-font-specification:Helvetica">0.87</tspan></text>


</g><path
       id="path46"
       style="fill:none;stroke:#000000;stroke-width:0.125;stroke-linecap:butt;stroke-linejoin:miter;stroke-miterlimit:10;stroke-opacity:1;stroke-dasharray:0.5, 1;stroke-dashoffset:0"
       d="m 130.4,125.5 153.6,0" /><path
       id="path48"
       style="fill:none;stroke:#000000;stroke-width:0.5;stroke-linecap:butt;stroke-linejoin:miter;stroke-miterlimit:10;stroke-opacity:1;stroke-dasharray:none"
       d="m 130.4,125.5 3.15,0 m 150.45,0 -3.15,0" /><g
       id="g50"><text
   id="text52"
   transform="matrix(1,0,0,-1,99.8485,121.5)"><tspan
     id="tspan54"
     sodipodi:role="line"
     y="0"
     x="0 6.6719999 10.008 16.68"
     style="font-size:12px;font-variant:normal;font-weight:normal;writing-mode:lr-tb;fill:#000000;fill-opacity:1;fill-rule:nonzero;stroke:none;font-family:Helvetica;-inkscape-font-specification:Helvetica">0.88</tspan></text>


</g><path
       id="path56"
       style="fill:none;stroke:#000000;stroke-width:0.125;stroke-linecap:butt;stroke-linejoin:miter;stroke-miterlimit:10;stroke-opacity:1;stroke-dasharray:0.5, 1;stroke-dashoffset:0"
       d="m 130.4,137.85 153.6,0" /><path
       id="path58"
       style="fill:none;stroke:#000000;stroke-width:0.5;stroke-linecap:butt;stroke-linejoin:miter;stroke-miterlimit:10;stroke-opacity:1;stroke-dasharray:none"
       d="m 130.4,137.85 3.15,0 m 150.45,0 -3.15,0" /><g
       id="g60"><text
   id="text62"
   transform="matrix(1,0,0,-1,99.8485,133.85)"><tspan
     id="tspan64"
     sodipodi:role="line"
     y="0"
     x="0 6.6719999 10.008 16.68"
     style="font-size:12px;font-variant:normal;font-weight:normal;writing-mode:lr-tb;fill:#000000;fill-opacity:1;fill-rule:nonzero;stroke:none;font-family:Helvetica;-inkscape-font-specification:Helvetica">0.89</tspan></text>


</g><path
       id="path66"
       style="fill:none;stroke:#000000;stroke-width:0.125;stroke-linecap:butt;stroke-linejoin:miter;stroke-miterlimit:10;stroke-opacity:1;stroke-dasharray:0.5, 1;stroke-dashoffset:0"
       d="m 130.4,150.2 153.6,0" /><path
       id="path68"
       style="fill:none;stroke:#000000;stroke-width:0.5;stroke-linecap:butt;stroke-linejoin:miter;stroke-miterlimit:10;stroke-opacity:1;stroke-dasharray:none"
       d="m 130.4,150.2 3.15,0 m 150.45,0 -3.15,0" /><g
       id="g70"><text
   id="text72"
   transform="matrix(1,0,0,-1,106.52,146.2)"><tspan
     id="tspan74"
     sodipodi:role="line"
     y="0"
     x="0 6.6719999 10.008"
     style="font-size:12px;font-variant:normal;font-weight:normal;writing-mode:lr-tb;fill:#000000;fill-opacity:1;fill-rule:nonzero;stroke:none;font-family:Helvetica;-inkscape-font-specification:Helvetica">0.9</tspan></text>


</g><path
       id="path76"
       style="fill:none;stroke:#000000;stroke-width:0.125;stroke-linecap:butt;stroke-linejoin:miter;stroke-miterlimit:10;stroke-opacity:1;stroke-dasharray:0.5, 1;stroke-dashoffset:0"
       d="m 130.4,162.55 153.6,0" /><path
       id="path78"
       style="fill:none;stroke:#000000;stroke-width:0.5;stroke-linecap:butt;stroke-linejoin:miter;stroke-miterlimit:10;stroke-opacity:1;stroke-dasharray:none"
       d="m 130.4,162.55 3.15,0 m 150.45,0 -3.15,0" /><g
       id="g80"><text
   id="text82"
   transform="matrix(1,0,0,-1,99.8485,158.55)"><tspan
     id="tspan84"
     sodipodi:role="line"
     y="0"
     x="0 6.6719999 10.008 16.68"
     style="font-size:12px;font-variant:normal;font-weight:normal;writing-mode:lr-tb;fill:#000000;fill-opacity:1;fill-rule:nonzero;stroke:none;font-family:Helvetica;-inkscape-font-specification:Helvetica">0.91</tspan></text>


</g><path
       id="path86"
       style="fill:none;stroke:#000000;stroke-width:0.125;stroke-linecap:butt;stroke-linejoin:miter;stroke-miterlimit:10;stroke-opacity:1;stroke-dasharray:0.5, 1;stroke-dashoffset:0"
       d="m 130.4,174.9 153.6,0" /><path
       id="path88"
       style="fill:none;stroke:#000000;stroke-width:0.5;stroke-linecap:butt;stroke-linejoin:miter;stroke-miterlimit:10;stroke-opacity:1;stroke-dasharray:none"
       d="m 130.4,174.9 3.15,0 m 150.45,0 -3.15,0" /><g
       id="g90"><text
   id="text92"
   transform="matrix(1,0,0,-1,99.8485,170.9)"><tspan
     id="tspan94"
     sodipodi:role="line"
     y="0"
     x="0 6.6719999 10.008 16.68"
     style="font-size:12px;font-variant:normal;font-weight:normal;writing-mode:lr-tb;fill:#000000;fill-opacity:1;fill-rule:nonzero;stroke:none;font-family:Helvetica;-inkscape-font-specification:Helvetica">0.92</tspan></text>


</g><path
       id="path96"
       style="fill:none;stroke:#000000;stroke-width:0.125;stroke-linecap:butt;stroke-linejoin:miter;stroke-miterlimit:10;stroke-opacity:1;stroke-dasharray:0.5, 1;stroke-dashoffset:0"
       d="m 130.4,187.3 153.6,0" /><path
       id="path98"
       style="fill:none;stroke:#000000;stroke-width:0.5;stroke-linecap:butt;stroke-linejoin:miter;stroke-miterlimit:10;stroke-opacity:1;stroke-dasharray:none"
       d="m 130.4,187.3 3.15,0 m 150.45,0 -3.15,0" /><g
       id="g100"><text
   id="text102"
   transform="matrix(1,0,0,-1,99.8485,183.3)"><tspan
     id="tspan104"
     sodipodi:role="line"
     y="0"
     x="0 6.6719999 10.008 16.68"
     style="font-size:12px;font-variant:normal;font-weight:normal;writing-mode:lr-tb;fill:#000000;fill-opacity:1;fill-rule:nonzero;stroke:none;font-family:Helvetica;-inkscape-font-specification:Helvetica">0.93</tspan></text>


</g><path
       id="path106"
       style="fill:none;stroke:#000000;stroke-width:0.125;stroke-linecap:butt;stroke-linejoin:miter;stroke-miterlimit:10;stroke-opacity:1;stroke-dasharray:0.5, 1;stroke-dashoffset:0"
       d="m 130.4,199.65 153.6,0" /><path
       id="path108"
       style="fill:none;stroke:#000000;stroke-width:0.5;stroke-linecap:butt;stroke-linejoin:miter;stroke-miterlimit:10;stroke-opacity:1;stroke-dasharray:none"
       d="m 130.4,199.65 3.15,0 m 150.45,0 -3.15,0" /><g
       id="g110"><text
   id="text112"
   transform="matrix(1,0,0,-1,99.8485,195.65)"><tspan
     id="tspan114"
     sodipodi:role="line"
     y="0"
     x="0 6.6719999 10.008 16.68"
     style="font-size:12px;font-variant:normal;font-weight:normal;writing-mode:lr-tb;fill:#000000;fill-opacity:1;fill-rule:nonzero;stroke:none;font-family:Helvetica;-inkscape-font-specification:Helvetica">0.94</tspan></text>


</g><path
       id="path116"
       style="fill:none;stroke:#000000;stroke-width:0.125;stroke-linecap:butt;stroke-linejoin:miter;stroke-miterlimit:10;stroke-opacity:1;stroke-dasharray:0.5, 1;stroke-dashoffset:0"
       d="M 130.4,212 284,212" /><path
       id="path118"
       style="fill:none;stroke:#000000;stroke-width:0.5;stroke-linecap:butt;stroke-linejoin:miter;stroke-miterlimit:10;stroke-opacity:1;stroke-dasharray:none"
       d="m 130.4,212 3.15,0 m 150.45,0 -3.15,0" /><g
       id="g120"><text
   id="text122"
   transform="matrix(1,0,0,-1,99.8485,208)"><tspan
     id="tspan124"
     sodipodi:role="line"
     y="0"
     x="0 6.6719999 10.008 16.68"
     style="font-size:12px;font-variant:normal;font-weight:normal;writing-mode:lr-tb;fill:#000000;fill-opacity:1;fill-rule:nonzero;stroke:none;font-family:Helvetica;-inkscape-font-specification:Helvetica">0.95</tspan></text>


</g><path
       id="path126"
       style="fill:none;stroke:#000000;stroke-width:0.125;stroke-linecap:butt;stroke-linejoin:miter;stroke-miterlimit:10;stroke-opacity:1;stroke-dasharray:0.5, 1;stroke-dashoffset:0"
       d="m 130.4,88.4 0,123.6" /><path
       id="path128"
       style="fill:none;stroke:#000000;stroke-width:0.5;stroke-linecap:butt;stroke-linejoin:miter;stroke-miterlimit:10;stroke-opacity:1;stroke-dasharray:none"
       d="m 130.4,88.4 0,3.15 m 0,120.45 0,-3.15" /><g
       id="g130"><text
   id="text132"
   transform="matrix(1,0,0,-1,128.732,72.4)"><tspan
     id="tspan134"
     y="0"
     x="0"
     style="font-size:12px;font-variant:normal;font-weight:normal;writing-mode:lr-tb;fill:#000000;fill-opacity:1;fill-rule:nonzero;stroke:none;font-family:Helvetica;-inkscape-font-specification:Helvetica">0</tspan></text>


</g><path
       id="path136"
       style="fill:none;stroke:#000000;stroke-width:0.125;stroke-linecap:butt;stroke-linejoin:miter;stroke-miterlimit:10;stroke-opacity:1;stroke-dasharray:0.5, 1;stroke-dashoffset:0"
       d="m 168.8,88.4 0,123.6" /><path
       id="path138"
       style="fill:none;stroke:#000000;stroke-width:0.5;stroke-linecap:butt;stroke-linejoin:miter;stroke-miterlimit:10;stroke-opacity:1;stroke-dasharray:none"
       d="m 168.8,88.4 0,3.15 m 0,120.45 0,-3.15" /><g
       id="g140"><text
   id="text142"
   transform="matrix(1,0,0,-1,160.46,72.4)"><tspan
     id="tspan144"
     sodipodi:role="line"
     y="0"
     x="0 6.6719999 13.344"
     style="font-size:12px;font-variant:normal;font-weight:normal;writing-mode:lr-tb;fill:#000000;fill-opacity:1;fill-rule:nonzero;stroke:none;font-family:Helvetica;-inkscape-font-specification:Helvetica">250</tspan></text>


</g><path
       id="path146"
       style="fill:none;stroke:#000000;stroke-width:0.125;stroke-linecap:butt;stroke-linejoin:miter;stroke-miterlimit:10;stroke-opacity:1;stroke-dasharray:0.5, 1;stroke-dashoffset:0"
       d="m 207.2,88.4 0,3.15 m 0,24 0,96.45" /><path
       id="path148"
       style="fill:none;stroke:#000000;stroke-width:0.5;stroke-linecap:butt;stroke-linejoin:miter;stroke-miterlimit:10;stroke-opacity:1;stroke-dasharray:none"
       d="m 207.2,88.4 0,3.15 m 0,120.45 0,-3.15" /><g
       id="g150"><text
   id="text152"
   transform="matrix(1,0,0,-1,198.86,72.4)"><tspan
     id="tspan154"
     sodipodi:role="line"
     y="0"
     x="0 6.6719999 13.344"
     style="font-size:12px;font-variant:normal;font-weight:normal;writing-mode:lr-tb;fill:#000000;fill-opacity:1;fill-rule:nonzero;stroke:none;font-family:Helvetica;-inkscape-font-specification:Helvetica">500</tspan></text>


</g><path
       id="path156"
       style="fill:none;stroke:#000000;stroke-width:0.125;stroke-linecap:butt;stroke-linejoin:miter;stroke-miterlimit:10;stroke-opacity:1;stroke-dasharray:0.5, 1;stroke-dashoffset:0"
       d="m 245.6,88.4 0,3.15 m 0,24 0,96.45" /><path
       id="path158"
       style="fill:none;stroke:#000000;stroke-width:0.5;stroke-linecap:butt;stroke-linejoin:miter;stroke-miterlimit:10;stroke-opacity:1;stroke-dasharray:none"
       d="m 245.6,88.4 0,3.15 m 0,120.45 0,-3.15" /><g
       id="g160"><text
   id="text162"
   transform="matrix(1,0,0,-1,237.26,72.4)"><tspan
     id="tspan164"
     sodipodi:role="line"
     y="0"
     x="0 6.6719999 13.344"
     style="font-size:12px;font-variant:normal;font-weight:normal;writing-mode:lr-tb;fill:#000000;fill-opacity:1;fill-rule:nonzero;stroke:none;font-family:Helvetica;-inkscape-font-specification:Helvetica">750</tspan></text>


</g><path
       id="path166"
       style="fill:none;stroke:#000000;stroke-width:0.125;stroke-linecap:butt;stroke-linejoin:miter;stroke-miterlimit:10;stroke-opacity:1;stroke-dasharray:0.5, 1;stroke-dashoffset:0"
       d="M 284,88.4 284,212" /><path
       id="path168"
       style="fill:none;stroke:#000000;stroke-width:0.5;stroke-linecap:butt;stroke-linejoin:miter;stroke-miterlimit:10;stroke-opacity:1;stroke-dasharray:none"
       d="m 284,88.4 0,3.15 m 0,120.45 0,-3.15" /><g
       id="g170"><text
   id="text172"
   transform="matrix(1,0,0,-1,272.324,72.4)"><tspan
     id="tspan174"
     sodipodi:role="line"
     y="0"
     x="0 6.6719999 13.344 20.016001"
     style="font-size:12px;font-variant:normal;font-weight:normal;writing-mode:lr-tb;fill:#000000;fill-opacity:1;fill-rule:nonzero;stroke:none;font-family:Helvetica;-inkscape-font-specification:Helvetica">1000</tspan></text>


</g><path
       id="path176"
       style="fill:none;stroke:#000000;stroke-width:0.5;stroke-linecap:butt;stroke-linejoin:miter;stroke-miterlimit:10;stroke-opacity:1;stroke-dasharray:none"
       d="m 130.4,88.4 153.6,0 0,123.6 -153.6,0 0,-123.6 z" /><g
       id="g178"><text
   id="text180"
   transform="matrix(0,1,1,0,0,0)"
   x="90.121895"
   y="87.599991"><tspan
     sodipodi:role="line"
     x="90.121895"
     style="font-size:12px;font-variant:normal;font-weight:normal;writing-mode:lr-tb;fill:#000000;fill-opacity:1;fill-rule:nonzero;stroke:none;font-family:Helvetica;-inkscape-font-specification:Helvetica"
     id="tspan3080"
     y="87.599991">Hypervolume indicator</tspan></text>


<text
   id="text184"
   transform="matrix(1,0,0,-1,159.513,54.4)"><tspan
     id="tspan186"
     sodipodi:role="line"
     y="0"
     x="0 8.0039997 14.004 20.676001 26.676001 30.011999 33.348 41.352001 47.352001 54.023998 56.688 63.360001 70.031998 73.367996 76.031998 82.704002 89.375999"
     style="font-size:12px;font-variant:normal;font-weight:normal;writing-mode:lr-tb;fill:#000000;fill-opacity:1;fill-rule:nonzero;stroke:none;font-family:Helvetica;-inkscape-font-specification:Helvetica">Exact Evaluations</tspan></text>


</g><g
       id="g188"><text
   id="text190"
   transform="matrix(1,0,0,-1,181.779,105.55)"><tspan
     id="tspan192"
     sodipodi:role="line"
     y="0"
     x="0 8.0039997 16.007999 20.004 28.007999 36.672001 44.675999"
     style="font-size:12px;font-variant:normal;font-weight:normal;writing-mode:lr-tb;fill:#000000;fill-opacity:1;fill-rule:nonzero;stroke:none;font-family:Helvetica;-inkscape-font-specification:Helvetica">EA(PCA)</tspan></text>


</g><path
       id="path194"
       style="fill:none;stroke:#000000;stroke-width:1.19999999999999996;stroke-linecap:butt;stroke-linejoin:miter;stroke-miterlimit:10;stroke-opacity:1;stroke-dasharray:none"
       d="m 237.65,109.55 31.95,0 M 135,91.05 l 3.65,24.65 3.95,14.25 3.9,2 3.8,10.55 3.7,17 3.75,1.75 3.45,2.25 3.75,8.85 3.55,10.2 3.65,0.65 3.55,0.65 3.7,0.15 3.2,1.4 3.9,2.75 3.5,1.2 3.4,3.95 3.5,2.45 3.8,0.05 3.6,0 3.2,2.7 3.8,0.05 3.75,0 3.15,0.05 3.7,0 3.45,0.6 3.5,0 4,0.05 3.1,0.5 3.45,0 4.05,0.35 3.35,0.35 11.1,0 3.6,0.05 10.8,0 3.75,2 7.95,0" /><g
       id="g376"><text
   id="text378"
   transform="matrix(1,0,0,-1,214.442,93.55)"><tspan
     id="tspan380"
     sodipodi:role="line"
     y="0"
     x="0 8.0039997"
     style="font-size:12px;font-variant:normal;font-weight:normal;writing-mode:lr-tb;fill:#000000;fill-opacity:1;fill-rule:nonzero;stroke:none;font-family:Helvetica;-inkscape-font-specification:Helvetica">EA</tspan></text>


</g><path
       id="path382"
       style="fill:none;stroke:#000000;stroke-width:0.8;stroke-linecap:butt;stroke-linejoin:miter;stroke-miterlimit:10;stroke-opacity:1;stroke-dasharray:0.8,0.8;stroke-dashoffset:0"
       d="m 237.65,97.55 31.95,0 m -134.6,-6.5 3.65,24.65 3.95,14.25 3.9,2 3.8,10.55 3.7,17 4,4.6 3.75,0.3 3.85,0.45 3.95,0.95 4,4.8 3.95,0.3 3.75,5.4 3.75,0.05 4.2,0.5 3.8,0.05 3.7,0.15 3.85,2.2 4,0.35 3.85,0.05 3.75,0.85 3.85,0 3.8,0.1 3.55,0 3.8,2 3.8,1.05 3.8,0 3.75,0.25 3.65,0.05 4,1.05 4.3,0.1 3.9,0 3.95,5.55 4.15,1.5 3.75,0.05 3.85,0.25 4.05,0 4,0.4 3.6,0.05 2.3,0" /><path
       id="path556"
       style="fill:none;stroke:#000000;stroke-width:0.5;stroke-linecap:butt;stroke-linejoin:miter;stroke-miterlimit:10;stroke-opacity:1;stroke-dasharray:none"
       d="m 130.4,88.4 153.6,0 0,123.6 -153.6,0 0,-123.6 z" /></g></svg>