<?xml version="1.0" encoding="UTF-8" standalone="no"?>
<!-- Created with Inkscape (http://www.inkscape.org/) -->

<svg
   xmlns:dc="http://purl.org/dc/elements/1.1/"
   xmlns:cc="http://creativecommons.org/ns#"
   xmlns:rdf="http://www.w3.org/1999/02/22-rdf-syntax-ns#"
   xmlns:svg="http://www.w3.org/2000/svg"
   xmlns="http://www.w3.org/2000/svg"
   xmlns:sodipodi="http://sodipodi.sourceforge.net/DTD/sodipodi-0.dtd"
   xmlns:inkscape="http://www.inkscape.org/namespaces/inkscape"
   id="svg2"
   version="1.1"
   inkscape:version="0.47 r22583"
   width="765"
   height="990"
   xml:space="preserve"
   sodipodi:docname="DOFs_mut.svg"><metadata
     id="metadata8"><rdf:RDF><cc:Work
         rdf:about=""><dc:format>image/svg+xml</dc:format><dc:type
           rdf:resource="http://purl.org/dc/dcmitype/StillImage" /><dc:title /></cc:Work></rdf:RDF></metadata><defs
     id="defs6"><marker
       inkscape:stockid="Arrow1Mend"
       orient="auto"
       refY="0.0"
       refX="0.0"
       id="Arrow1Mend"
       style="overflow:visible;"><path
         id="path3761"
         d="M 0.0,0.0 L 5.0,-5.0 L -12.5,0.0 L 5.0,5.0 L 0.0,0.0 z "
         style="fill-rule:evenodd;stroke:#000000;stroke-width:1.0pt;marker-start:none;"
         transform="scale(0.4) rotate(180) translate(10,0)" /></marker><marker
       inkscape:stockid="Arrow1Mstart"
       orient="auto"
       refY="0.0"
       refX="0.0"
       id="Arrow1Mstart"
       style="overflow:visible"><path
         id="path3758"
         d="M 0.0,0.0 L 5.0,-5.0 L -12.5,0.0 L 5.0,5.0 L 0.0,0.0 z "
         style="fill-rule:evenodd;stroke:#000000;stroke-width:1.0pt;marker-start:none"
         transform="scale(0.4) translate(10,0)" /></marker><inkscape:perspective
       sodipodi:type="inkscape:persp3d"
       inkscape:vp_x="0 : 0.5 : 1"
       inkscape:vp_y="0 : 1000 : 0"
       inkscape:vp_z="1 : 0.5 : 1"
       inkscape:persp3d-origin="0.5 : 0.33333333 : 1"
       id="perspective10" /><inkscape:perspective
       id="perspective3239"
       inkscape:persp3d-origin="0.5 : 0.33333333 : 1"
       inkscape:vp_z="1 : 0.5 : 1"
       inkscape:vp_y="0 : 1000 : 0"
       inkscape:vp_x="0 : 0.5 : 1"
       sodipodi:type="inkscape:persp3d" /><inkscape:perspective
       id="perspective3265"
       inkscape:persp3d-origin="0.5 : 0.33333333 : 1"
       inkscape:vp_z="1 : 0.5 : 1"
       inkscape:vp_y="0 : 1000 : 0"
       inkscape:vp_x="0 : 0.5 : 1"
       sodipodi:type="inkscape:persp3d" /><inkscape:perspective
       id="perspective4059"
       inkscape:persp3d-origin="0.5 : 0.33333333 : 1"
       inkscape:vp_z="1 : 0.5 : 1"
       inkscape:vp_y="0 : 1000 : 0"
       inkscape:vp_x="0 : 0.5 : 1"
       sodipodi:type="inkscape:persp3d" /><inkscape:perspective
       id="perspective4084"
       inkscape:persp3d-origin="0.5 : 0.33333333 : 1"
       inkscape:vp_z="1 : 0.5 : 1"
       inkscape:vp_y="0 : 1000 : 0"
       inkscape:vp_x="0 : 0.5 : 1"
       sodipodi:type="inkscape:persp3d" /><inkscape:perspective
       id="perspective4106"
       inkscape:persp3d-origin="0.5 : 0.33333333 : 1"
       inkscape:vp_z="1 : 0.5 : 1"
       inkscape:vp_y="0 : 1000 : 0"
       inkscape:vp_x="0 : 0.5 : 1"
       sodipodi:type="inkscape:persp3d" /><inkscape:perspective
       id="perspective4144"
       inkscape:persp3d-origin="0.5 : 0.33333333 : 1"
       inkscape:vp_z="1 : 0.5 : 1"
       inkscape:vp_y="0 : 1000 : 0"
       inkscape:vp_x="0 : 0.5 : 1"
       sodipodi:type="inkscape:persp3d" /><inkscape:perspective
       id="perspective4166"
       inkscape:persp3d-origin="0.5 : 0.33333333 : 1"
       inkscape:vp_z="1 : 0.5 : 1"
       inkscape:vp_y="0 : 1000 : 0"
       inkscape:vp_x="0 : 0.5 : 1"
       sodipodi:type="inkscape:persp3d" /></defs><sodipodi:namedview
     pagecolor="#ffffff"
     bordercolor="#666666"
     borderopacity="1"
     objecttolerance="10"
     gridtolerance="10"
     guidetolerance="10"
     inkscape:pageopacity="0"
     inkscape:pageshadow="2"
     inkscape:window-width="1280"
     inkscape:window-height="721"
     id="namedview4"
     showgrid="false"
     inkscape:zoom="3.1887625"
     inkscape:cx="177.09387"
     inkscape:cy="139.2455"
     inkscape:window-x="0"
     inkscape:window-y="25"
     inkscape:window-maximized="1"
     inkscape:current-layer="g12" /><g
     id="g12"
     inkscape:groupmode="layer"
     inkscape:label="ink_ext_XXXXXX"
     transform="matrix(1.25,0,0,-1.25,0,990)"><path
   sodipodi:type="arc"
   style="opacity:0.31920363;fill:#000000;fill-opacity:1;stroke:none"
   id="path2969"
   sodipodi:cx="174.98952"
   sodipodi:cy="844.17542"
   sodipodi:rx="28.224115"
   sodipodi:ry="26.342508"
   d="m 203.21363,844.17542 a 28.224115,26.342508 0 1 1 -56.44823,0 28.224115,26.342508 0 1 1 56.44823,0 z"
   transform="matrix(1.2222222,0,0,-0.92380952,-81.162545,911.16784)" /><path
   id="path16"
   style="fill:none;stroke:#000000;stroke-width:0.125;stroke-linecap:butt;stroke-linejoin:miter;stroke-miterlimit:10;stroke-opacity:1;stroke-dasharray:0.5, 1;stroke-dashoffset:0"
   d="m 84.3,82.15 135.2,0" /><path
   id="path18"
   style="fill:none;stroke:#000000;stroke-width:0.5;stroke-linecap:butt;stroke-linejoin:miter;stroke-miterlimit:10;stroke-opacity:1;stroke-dasharray:none"
   d="m 84.3,82.15 3.15,0 m 132.05,0 -3.15,0" /><g
   id="g20"><text
   id="text22"
   transform="matrix(1,0,0,-1,76.2085,79.8148)"><tspan
     id="tspan24"
     y="0"
     x="0"
     style="font-size:7px;font-variant:normal;font-weight:normal;writing-mode:lr-tb;fill:#000000;fill-opacity:1;fill-rule:nonzero;stroke:none;font-family:Helvetica;-inkscape-font-specification:Helvetica">1</tspan></text>

</g><path
   id="path26"
   style="fill:none;stroke:#000000;stroke-width:0.125;stroke-linecap:butt;stroke-linejoin:miter;stroke-miterlimit:10;stroke-opacity:1;stroke-dasharray:0.5, 1;stroke-dashoffset:0"
   d="m 84.3,94.35 135.2,0" /><path
   id="path28"
   style="fill:none;stroke:#000000;stroke-width:0.5;stroke-linecap:butt;stroke-linejoin:miter;stroke-miterlimit:10;stroke-opacity:1;stroke-dasharray:none"
   d="m 84.3,94.35 3.15,0 m 132.05,0 -3.15,0" /><g
   id="g30"><text
   id="text32"
   transform="matrix(1,0,0,-1,76.2085,92.0148)"><tspan
     id="tspan34"
     y="0"
     x="0"
     style="font-size:7px;font-variant:normal;font-weight:normal;writing-mode:lr-tb;fill:#000000;fill-opacity:1;fill-rule:nonzero;stroke:none;font-family:Helvetica;-inkscape-font-specification:Helvetica">2</tspan></text>

</g><path
   id="path36"
   style="fill:none;stroke:#000000;stroke-width:0.125;stroke-linecap:butt;stroke-linejoin:miter;stroke-miterlimit:10;stroke-opacity:1;stroke-dasharray:0.5, 1;stroke-dashoffset:0"
   d="m 84.3,106.55 135.2,0" /><path
   id="path38"
   style="fill:none;stroke:#000000;stroke-width:0.5;stroke-linecap:butt;stroke-linejoin:miter;stroke-miterlimit:10;stroke-opacity:1;stroke-dasharray:none"
   d="m 84.3,106.55 3.15,0 m 132.05,0 -3.15,0" /><g
   id="g40"><text
   id="text42"
   transform="matrix(1,0,0,-1,76.2085,104.215)"><tspan
     id="tspan44"
     y="0"
     x="0"
     style="font-size:7px;font-variant:normal;font-weight:normal;writing-mode:lr-tb;fill:#000000;fill-opacity:1;fill-rule:nonzero;stroke:none;font-family:Helvetica;-inkscape-font-specification:Helvetica">3</tspan></text>

</g><path
   id="path46"
   style="fill:none;stroke:#000000;stroke-width:0.125;stroke-linecap:butt;stroke-linejoin:miter;stroke-miterlimit:10;stroke-opacity:1;stroke-dasharray:0.5, 1;stroke-dashoffset:0"
   d="m 84.3,118.8 135.2,0" /><path
   id="path48"
   style="fill:none;stroke:#000000;stroke-width:0.5;stroke-linecap:butt;stroke-linejoin:miter;stroke-miterlimit:10;stroke-opacity:1;stroke-dasharray:none"
   d="m 84.3,118.8 3.15,0 m 132.05,0 -3.15,0" /><g
   id="g50"><text
   id="text52"
   transform="matrix(1,0,0,-1,76.2085,116.465)"><tspan
     id="tspan54"
     y="0"
     x="0"
     style="font-size:7px;font-variant:normal;font-weight:normal;writing-mode:lr-tb;fill:#000000;fill-opacity:1;fill-rule:nonzero;stroke:none;font-family:Helvetica;-inkscape-font-specification:Helvetica">4</tspan></text>

</g><path
   id="path56"
   style="fill:none;stroke:#000000;stroke-width:0.125;stroke-linecap:butt;stroke-linejoin:miter;stroke-miterlimit:10;stroke-opacity:1;stroke-dasharray:0.5, 1;stroke-dashoffset:0"
   d="m 84.3,131 135.2,0" /><path
   id="path58"
   style="fill:none;stroke:#000000;stroke-width:0.5;stroke-linecap:butt;stroke-linejoin:miter;stroke-miterlimit:10;stroke-opacity:1;stroke-dasharray:none"
   d="m 84.3,131 3.15,0 m 132.05,0 -3.15,0" /><g
   id="g60"><text
   id="text62"
   transform="matrix(1,0,0,-1,76.2085,128.665)"><tspan
     id="tspan64"
     y="0"
     x="0"
     style="font-size:7px;font-variant:normal;font-weight:normal;writing-mode:lr-tb;fill:#000000;fill-opacity:1;fill-rule:nonzero;stroke:none;font-family:Helvetica;-inkscape-font-specification:Helvetica">5</tspan></text>

</g><path
   id="path66"
   style="fill:none;stroke:#000000;stroke-width:0.125;stroke-linecap:butt;stroke-linejoin:miter;stroke-miterlimit:10;stroke-opacity:1;stroke-dasharray:0.5, 1;stroke-dashoffset:0"
   d="m 84.3,143.2 135.2,0" /><path
   id="path68"
   style="fill:none;stroke:#000000;stroke-width:0.5;stroke-linecap:butt;stroke-linejoin:miter;stroke-miterlimit:10;stroke-opacity:1;stroke-dasharray:none"
   d="m 84.3,143.2 3.15,0 m 132.05,0 -3.15,0" /><g
   id="g70"><text
   id="text72"
   transform="matrix(1,0,0,-1,76.2085,140.865)"><tspan
     id="tspan74"
     y="0"
     x="0"
     style="font-size:7px;font-variant:normal;font-weight:normal;writing-mode:lr-tb;fill:#000000;fill-opacity:1;fill-rule:nonzero;stroke:none;font-family:Helvetica;-inkscape-font-specification:Helvetica">6</tspan></text>

</g><path
   id="path76"
   style="fill:none;stroke:#000000;stroke-width:0.125;stroke-linecap:butt;stroke-linejoin:miter;stroke-miterlimit:10;stroke-opacity:1;stroke-dasharray:0.5, 1;stroke-dashoffset:0"
   d="m 84.3,155.4 135.2,0" /><path
   id="path78"
   style="fill:none;stroke:#000000;stroke-width:0.5;stroke-linecap:butt;stroke-linejoin:miter;stroke-miterlimit:10;stroke-opacity:1;stroke-dasharray:none"
   d="m 84.3,155.4 3.15,0 m 132.05,0 -3.15,0" /><g
   id="g80"><text
   id="text82"
   transform="matrix(1,0,0,-1,76.2085,153.065)"><tspan
     id="tspan84"
     y="0"
     x="0"
     style="font-size:7px;font-variant:normal;font-weight:normal;writing-mode:lr-tb;fill:#000000;fill-opacity:1;fill-rule:nonzero;stroke:none;font-family:Helvetica;-inkscape-font-specification:Helvetica">7</tspan></text>

</g><path
   id="path86"
   style="fill:none;stroke:#000000;stroke-width:0.125;stroke-linecap:butt;stroke-linejoin:miter;stroke-miterlimit:10;stroke-opacity:1;stroke-dasharray:0.5, 1;stroke-dashoffset:0"
   d="m 84.3,167.6 135.2,0" /><path
   id="path88"
   style="fill:none;stroke:#000000;stroke-width:0.5;stroke-linecap:butt;stroke-linejoin:miter;stroke-miterlimit:10;stroke-opacity:1;stroke-dasharray:none"
   d="m 84.3,167.6 3.15,0 m 132.05,0 -3.15,0" /><g
   id="g90"><text
   id="text92"
   transform="matrix(1,0,0,-1,76.2085,165.265)"><tspan
     id="tspan94"
     y="0"
     x="0"
     style="font-size:7px;font-variant:normal;font-weight:normal;writing-mode:lr-tb;fill:#000000;fill-opacity:1;fill-rule:nonzero;stroke:none;font-family:Helvetica;-inkscape-font-specification:Helvetica">8</tspan></text>

</g><path
   id="path96"
   style="fill:none;stroke:#000000;stroke-width:0.125;stroke-linecap:butt;stroke-linejoin:miter;stroke-miterlimit:10;stroke-opacity:1;stroke-dasharray:0.5, 1;stroke-dashoffset:0"
   d="m 98.15,72.4 0,95.2" /><path
   id="path98"
   style="fill:none;stroke:#000000;stroke-width:0.5;stroke-linecap:butt;stroke-linejoin:miter;stroke-miterlimit:10;stroke-opacity:1;stroke-dasharray:none"
   d="m 98.15,72.4 0,3.15 m 0,92.05 0,-3.15" /><g
   id="g100"><text
   id="text102"
   transform="matrix(1,0,0,-1,97.1773,63.0648)"><tspan
     id="tspan104"
     y="0"
     x="0"
     style="font-size:7px;font-variant:normal;font-weight:normal;writing-mode:lr-tb;fill:#000000;fill-opacity:1;fill-rule:nonzero;stroke:none;font-family:Helvetica;-inkscape-font-specification:Helvetica">1</tspan></text>

</g><path
   id="path106"
   style="fill:none;stroke:#000000;stroke-width:0.125;stroke-linecap:butt;stroke-linejoin:miter;stroke-miterlimit:10;stroke-opacity:1;stroke-dasharray:0.5, 1;stroke-dashoffset:0"
   d="m 115.5,72.4 0,95.2" /><path
   id="path108"
   style="fill:none;stroke:#000000;stroke-width:0.5;stroke-linecap:butt;stroke-linejoin:miter;stroke-miterlimit:10;stroke-opacity:1;stroke-dasharray:none"
   d="m 115.5,72.4 0,3.15 m 0,92.05 0,-3.15" /><g
   id="g110"><text
   id="text112"
   transform="matrix(1,0,0,-1,114.527,63.0648)"><tspan
     id="tspan114"
     y="0"
     x="0"
     style="font-size:7px;font-variant:normal;font-weight:normal;writing-mode:lr-tb;fill:#000000;fill-opacity:1;fill-rule:nonzero;stroke:none;font-family:Helvetica;-inkscape-font-specification:Helvetica">2</tspan></text>

</g><path
   id="path116"
   style="fill:none;stroke:#000000;stroke-width:0.125;stroke-linecap:butt;stroke-linejoin:miter;stroke-miterlimit:10;stroke-opacity:1;stroke-dasharray:0.5, 1;stroke-dashoffset:0"
   d="m 132.85,72.4 0,95.2" /><path
   id="path118"
   style="fill:none;stroke:#000000;stroke-width:0.5;stroke-linecap:butt;stroke-linejoin:miter;stroke-miterlimit:10;stroke-opacity:1;stroke-dasharray:none"
   d="m 132.85,72.4 0,3.15 m 0,92.05 0,-3.15" /><g
   id="g120"><text
   id="text122"
   transform="matrix(1,0,0,-1,131.877,63.0648)"><tspan
     id="tspan124"
     y="0"
     x="0"
     style="font-size:7px;font-variant:normal;font-weight:normal;writing-mode:lr-tb;fill:#000000;fill-opacity:1;fill-rule:nonzero;stroke:none;font-family:Helvetica;-inkscape-font-specification:Helvetica">3</tspan></text>

</g><path
   id="path126"
   style="fill:none;stroke:#000000;stroke-width:0.125;stroke-linecap:butt;stroke-linejoin:miter;stroke-miterlimit:10;stroke-opacity:1;stroke-dasharray:0.5, 1;stroke-dashoffset:0"
   d="m 150.15,72.4 0,95.2" /><path
   id="path128"
   style="fill:none;stroke:#000000;stroke-width:0.5;stroke-linecap:butt;stroke-linejoin:miter;stroke-miterlimit:10;stroke-opacity:1;stroke-dasharray:none"
   d="m 150.15,72.4 0,3.15 m 0,92.05 0,-3.15" /><g
   id="g130"><text
   id="text132"
   transform="matrix(1,0,0,-1,149.177,63.0648)"><tspan
     id="tspan134"
     y="0"
     x="0"
     style="font-size:7px;font-variant:normal;font-weight:normal;writing-mode:lr-tb;fill:#000000;fill-opacity:1;fill-rule:nonzero;stroke:none;font-family:Helvetica;-inkscape-font-specification:Helvetica">4</tspan></text>

</g><path
   id="path136"
   style="fill:none;stroke:#000000;stroke-width:0.125;stroke-linecap:butt;stroke-linejoin:miter;stroke-miterlimit:10;stroke-opacity:1;stroke-dasharray:0.5, 1;stroke-dashoffset:0"
   d="m 167.5,72.4 0,95.2" /><path
   id="path138"
   style="fill:none;stroke:#000000;stroke-width:0.5;stroke-linecap:butt;stroke-linejoin:miter;stroke-miterlimit:10;stroke-opacity:1;stroke-dasharray:none"
   d="m 167.5,72.4 0,3.15 m 0,92.05 0,-3.15" /><g
   id="g140"><text
   id="text142"
   transform="matrix(1,0,0,-1,166.527,63.0648)"><tspan
     id="tspan144"
     y="0"
     x="0"
     style="font-size:7px;font-variant:normal;font-weight:normal;writing-mode:lr-tb;fill:#000000;fill-opacity:1;fill-rule:nonzero;stroke:none;font-family:Helvetica;-inkscape-font-specification:Helvetica">5</tspan></text>

</g><path
   id="path146"
   style="fill:none;stroke:#000000;stroke-width:0.125;stroke-linecap:butt;stroke-linejoin:miter;stroke-miterlimit:10;stroke-opacity:1;stroke-dasharray:0.5, 1;stroke-dashoffset:0"
   d="m 184.85,72.4 0,95.2" /><path
   id="path148"
   style="fill:none;stroke:#000000;stroke-width:0.5;stroke-linecap:butt;stroke-linejoin:miter;stroke-miterlimit:10;stroke-opacity:1;stroke-dasharray:none"
   d="m 184.85,72.4 0,3.15 m 0,92.05 0,-3.15" /><g
   id="g150"><text
   id="text152"
   transform="matrix(1,0,0,-1,183.877,63.0648)"><tspan
     id="tspan154"
     y="0"
     x="0"
     style="font-size:7px;font-variant:normal;font-weight:normal;writing-mode:lr-tb;fill:#000000;fill-opacity:1;fill-rule:nonzero;stroke:none;font-family:Helvetica;-inkscape-font-specification:Helvetica">6</tspan></text>

</g><path
   id="path156"
   style="fill:none;stroke:#000000;stroke-width:0.125;stroke-linecap:butt;stroke-linejoin:miter;stroke-miterlimit:10;stroke-opacity:1;stroke-dasharray:0.5, 1;stroke-dashoffset:0"
   d="m 202.15,72.4 0,95.2" /><path
   id="path158"
   style="fill:none;stroke:#000000;stroke-width:0.5;stroke-linecap:butt;stroke-linejoin:miter;stroke-miterlimit:10;stroke-opacity:1;stroke-dasharray:none"
   d="m 202.15,72.4 0,3.15 m 0,92.05 0,-3.15" /><g
   id="g160"><text
   id="text162"
   transform="matrix(1,0,0,-1,201.177,63.0648)"><tspan
     id="tspan164"
     y="0"
     x="0"
     style="font-size:7px;font-variant:normal;font-weight:normal;writing-mode:lr-tb;fill:#000000;fill-opacity:1;fill-rule:nonzero;stroke:none;font-family:Helvetica;-inkscape-font-specification:Helvetica">7</tspan></text>

</g><path
   id="path166"
   style="fill:none;stroke:#000000;stroke-width:0.125;stroke-linecap:butt;stroke-linejoin:miter;stroke-miterlimit:10;stroke-opacity:1;stroke-dasharray:0.5, 1;stroke-dashoffset:0"
   d="m 219.5,72.4 0,95.2" /><path
   id="path168"
   style="fill:none;stroke:#000000;stroke-width:0.5;stroke-linecap:butt;stroke-linejoin:miter;stroke-miterlimit:10;stroke-opacity:1;stroke-dasharray:none"
   d="m 219.5,72.4 0,3.15 m 0,92.05 0,-3.15" /><g
   id="g170"><text
   id="text172"
   transform="matrix(1,0,0,-1,218.527,63.0648)"><tspan
     id="tspan174"
     y="0"
     x="0"
     style="font-size:7px;font-variant:normal;font-weight:normal;writing-mode:lr-tb;fill:#000000;fill-opacity:1;fill-rule:nonzero;stroke:none;font-family:Helvetica;-inkscape-font-specification:Helvetica">8</tspan></text>

</g><path
   id="path176"
   style="fill:none;stroke:#000000;stroke-width:0.5;stroke-linecap:butt;stroke-linejoin:miter;stroke-miterlimit:10;stroke-opacity:1;stroke-dasharray:none"
   d="m 84.3,72.4 135.2,0 0,95.2 -135.2,0 0,-95.2 z" /><g
   id="g178"><text
   id="text180"
   transform="matrix(0,1,1,0,66.3352,115.72)"><tspan
     id="tspan182"
     sodipodi:role="line"
     y="0"
     x="0 4.6690001"
     style="font-size:7px;font-variant:normal;font-weight:normal;writing-mode:lr-tb;fill:#000000;fill-opacity:1;fill-rule:nonzero;stroke:none;font-family:Helvetica;-inkscape-font-specification:Helvetica">X2</tspan></text>

<text
   id="text184"
   transform="matrix(1,0,0,-1,147.62,52.5648)"><tspan
     id="tspan186"
     sodipodi:role="line"
     y="0"
     x="0 4.6690001"
     style="font-size:7px;font-variant:normal;font-weight:normal;writing-mode:lr-tb;fill:#000000;fill-opacity:1;fill-rule:nonzero;stroke:none;font-family:Helvetica;-inkscape-font-specification:Helvetica">X1</tspan></text>

</g><path
   id="path188"
   style="fill:#000000;fill-opacity:1;fill-rule:nonzero;stroke:none"
   d="m 136.375,101.25 c 0,0.87 -0.705,1.575 -1.575,1.575 -0.87,0 -1.575,-0.705 -1.575,-1.575 0,-0.87 0.705,-1.575 1.575,-1.575 0.87,0 1.575,0.705 1.575,1.575" /><path
   id="path190"
   style="fill:#000000;fill-opacity:1;fill-rule:nonzero;stroke:none"
   d="m 136.125,101.55 c 0,0.87 -0.705,1.575 -1.575,1.575 -0.87,0 -1.575,-0.705 -1.575,-1.575 0,-0.87 0.705,-1.575 1.575,-1.575 0.87,0 1.575,0.705 1.575,1.575" /><path
   id="path192"
   style="fill:#000000;fill-opacity:1;fill-rule:nonzero;stroke:none"
   d="m 135.975,101.75 c 0,0.87 -0.705,1.575 -1.575,1.575 -0.87,0 -1.575,-0.705 -1.575,-1.575 0,-0.87 0.705,-1.575 1.575,-1.575 0.87,0 1.575,0.705 1.575,1.575" /><path
   id="path194"
   style="fill:#000000;fill-opacity:1;fill-rule:nonzero;stroke:none"
   d="m 135.225,102.15 c 0,0.87 -0.705,1.575 -1.575,1.575 -0.87,0 -1.575,-0.705 -1.575,-1.575 0,-0.87 0.705,-1.575 1.575,-1.575 0.87,0 1.575,0.705 1.575,1.575" /><path
   id="path196"
   style="fill:#000000;fill-opacity:1;fill-rule:nonzero;stroke:none"
   d="m 135.225,102.6 c 0,0.87 -0.705,1.575 -1.575,1.575 -0.87,0 -1.575,-0.705 -1.575,-1.575 0,-0.87 0.705,-1.575 1.575,-1.575 0.87,0 1.575,0.705 1.575,1.575" /><path
   id="path198"
   style="fill:#000000;fill-opacity:1;fill-rule:nonzero;stroke:none"
   d="m 133.725,103 c 0,0.87 -0.705,1.575 -1.575,1.575 -0.87,0 -1.575,-0.705 -1.575,-1.575 0,-0.87 0.705,-1.575 1.575,-1.575 0.87,0 1.575,0.705 1.575,1.575" /><path
   id="path200"
   style="fill:#000000;fill-opacity:1;fill-rule:nonzero;stroke:none"
   d="m 133.475,103.3 c 0,0.87 -0.705,1.575 -1.575,1.575 -0.87,0 -1.575,-0.705 -1.575,-1.575 0,-0.87 0.705,-1.575 1.575,-1.575 0.87,0 1.575,0.705 1.575,1.575" /><path
   id="path202"
   style="fill:#000000;fill-opacity:1;fill-rule:nonzero;stroke:none"
   d="m 133.025,103.55 c 0,0.87 -0.705,1.575 -1.575,1.575 -0.87,0 -1.575,-0.705 -1.575,-1.575 0,-0.87 0.705,-1.575 1.575,-1.575 0.87,0 1.575,0.705 1.575,1.575" /><path
   id="path204"
   style="fill:#000000;fill-opacity:1;fill-rule:nonzero;stroke:none"
   d="m 132.625,103.9 c 0,0.87 -0.705,1.575 -1.575,1.575 -0.87,0 -1.575,-0.705 -1.575,-1.575 0,-0.87 0.705,-1.575 1.575,-1.575 0.87,0 1.575,0.705 1.575,1.575" /><path
   id="path206"
   style="fill:#000000;fill-opacity:1;fill-rule:nonzero;stroke:none"
   d="m 132.375,104.4 c 0,0.87 -0.705,1.575 -1.575,1.575 -0.87,0 -1.575,-0.705 -1.575,-1.575 0,-0.87 0.705,-1.575 1.575,-1.575 0.87,0 1.575,0.705 1.575,1.575" /><path
   id="path208"
   style="fill:#000000;fill-opacity:1;fill-rule:nonzero;stroke:none"
   d="m 131.675,104.95 c 0,0.87 -0.705,1.575 -1.575,1.575 -0.87,0 -1.575,-0.705 -1.575,-1.575 0,-0.87 0.705,-1.575 1.575,-1.575 0.87,0 1.575,0.705 1.575,1.575" /><path
   id="path210"
   style="fill:#000000;fill-opacity:1;fill-rule:nonzero;stroke:none"
   d="m 130.075,105.55 c 0,0.87 -0.705,1.575 -1.575,1.575 -0.87,0 -1.575,-0.705 -1.575,-1.575 0,-0.87 0.705,-1.575 1.575,-1.575 0.87,0 1.575,0.705 1.575,1.575" /><path
   id="path212"
   style="fill:#000000;fill-opacity:1;fill-rule:nonzero;stroke:none"
   d="m 130.325,106.1 c 0,0.87 -0.705,1.575 -1.575,1.575 -0.87,0 -1.575,-0.705 -1.575,-1.575 0,-0.87 0.705,-1.575 1.575,-1.575 0.87,0 1.575,0.705 1.575,1.575" /><path
   id="path214"
   style="fill:#000000;fill-opacity:1;fill-rule:nonzero;stroke:none"
   d="m 128.825,106.55 c 0,0.87 -0.705,1.575 -1.575,1.575 -0.87,0 -1.575,-0.705 -1.575,-1.575 0,-0.87 0.705,-1.575 1.575,-1.575 0.87,0 1.575,0.705 1.575,1.575" /><path
   id="path216"
   style="fill:#000000;fill-opacity:1;fill-rule:nonzero;stroke:none"
   d="m 128.375,107.2 c 0,0.87 -0.705,1.575 -1.575,1.575 -0.87,0 -1.575,-0.705 -1.575,-1.575 0,-0.87 0.705,-1.575 1.575,-1.575 0.87,0 1.575,0.705 1.575,1.575" /><path
   id="path218"
   style="fill:#000000;fill-opacity:1;fill-rule:nonzero;stroke:none"
   d="m 128.325,107.95 c 0,0.87 -0.705,1.575 -1.575,1.575 -0.87,0 -1.575,-0.705 -1.575,-1.575 0,-0.87 0.705,-1.575 1.575,-1.575 0.87,0 1.575,0.705 1.575,1.575" /><path
   id="path220"
   style="fill:#000000;fill-opacity:1;fill-rule:nonzero;stroke:none"
   d="m 127.875,108.5 c 0,0.87 -0.705,1.575 -1.575,1.575 -0.87,0 -1.575,-0.705 -1.575,-1.575 0,-0.87 0.705,-1.575 1.575,-1.575 0.87,0 1.575,0.705 1.575,1.575" /><path
   id="path222"
   style="fill:#000000;fill-opacity:1;fill-rule:nonzero;stroke:none"
   d="m 125.925,109.45 c 0,0.87 -0.705,1.575 -1.575,1.575 -0.87,0 -1.575,-0.705 -1.575,-1.575 0,-0.87 0.705,-1.575 1.575,-1.575 0.87,0 1.575,0.705 1.575,1.575" /><path
   id="path224"
   style="fill:#000000;fill-opacity:1;fill-rule:nonzero;stroke:none"
   d="m 126.625,110.25 c 0,0.87 -0.705,1.575 -1.575,1.575 -0.87,0 -1.575,-0.705 -1.575,-1.575 0,-0.87 0.705,-1.575 1.575,-1.575 0.87,0 1.575,0.705 1.575,1.575" /><path
   id="path226"
   style="fill:#000000;fill-opacity:1;fill-rule:nonzero;stroke:none"
   d="m 126.225,111.15 c 0,0.87 -0.705,1.575 -1.575,1.575 -0.87,0 -1.575,-0.705 -1.575,-1.575 0,-0.87 0.705,-1.575 1.575,-1.575 0.87,0 1.575,0.705 1.575,1.575" /><path
   id="path228"
   style="fill:#000000;fill-opacity:1;fill-rule:nonzero;stroke:none"
   d="m 124.625,112 c 0,0.87 -0.705,1.575 -1.575,1.575 -0.87,0 -1.575,-0.705 -1.575,-1.575 0,-0.87 0.705,-1.575 1.575,-1.575 0.87,0 1.575,0.705 1.575,1.575" /><path
   id="path230"
   style="fill:#000000;fill-opacity:1;fill-rule:nonzero;stroke:none"
   d="m 124.075,112.85 c 0,0.87 -0.705,1.575 -1.575,1.575 -0.87,0 -1.575,-0.705 -1.575,-1.575 0,-0.87 0.705,-1.575 1.575,-1.575 0.87,0 1.575,0.705 1.575,1.575" /><path
   id="path232"
   style="fill:#000000;fill-opacity:1;fill-rule:nonzero;stroke:none"
   d="m 123.625,113.95 c 0,0.87 -0.705,1.575 -1.575,1.575 -0.87,0 -1.575,-0.705 -1.575,-1.575 0,-0.87 0.705,-1.575 1.575,-1.575 0.87,0 1.575,0.705 1.575,1.575" /><path
   id="path234"
   style="fill:#000000;fill-opacity:1;fill-rule:nonzero;stroke:none"
   d="m 123.475,115.3 c 0,0.87 -0.705,1.575 -1.575,1.575 -0.87,0 -1.575,-0.705 -1.575,-1.575 0,-0.87 0.705,-1.575 1.575,-1.575 0.87,0 1.575,0.705 1.575,1.575" /><path
   id="path236"
   style="fill:#000000;fill-opacity:1;fill-rule:nonzero;stroke:none"
   d="m 126.425,117.15 c 0,0.87 -0.705,1.575 -1.575,1.575 -0.87,0 -1.575,-0.705 -1.575,-1.575 0,-0.87 0.705,-1.575 1.575,-1.575 0.87,0 1.575,0.705 1.575,1.575" /><path
   id="path238"
   style="fill:#000000;fill-opacity:1;fill-rule:nonzero;stroke:none"
   d="m 122.475,118.95 c 0,0.87 -0.705,1.575 -1.575,1.575 -0.87,0 -1.575,-0.705 -1.575,-1.575 0,-0.87 0.705,-1.575 1.575,-1.575 0.87,0 1.575,0.705 1.575,1.575" /><path
   id="path240"
   style="fill:#000000;fill-opacity:1;fill-rule:nonzero;stroke:none"
   d="m 121.175,121.35 c 0,0.87 -0.705,1.575 -1.575,1.575 -0.87,0 -1.575,-0.705 -1.575,-1.575 0,-0.87 0.705,-1.575 1.575,-1.575 0.87,0 1.575,0.705 1.575,1.575" /><path
   id="path242"
   style="fill:#000000;fill-opacity:1;fill-rule:nonzero;stroke:none"
   d="m 121.425,123.05 c 0,0.87 -0.705,1.575 -1.575,1.575 -0.87,0 -1.575,-0.705 -1.575,-1.575 0,-0.87 0.705,-1.575 1.575,-1.575 0.87,0 1.575,0.705 1.575,1.575" /><path
   id="path244"
   style="fill:#000000;fill-opacity:1;fill-rule:nonzero;stroke:none"
   d="m 118.275,125.8 c 0,0.87 -0.705,1.575 -1.575,1.575 -0.87,0 -1.575,-0.705 -1.575,-1.575 0,-0.87 0.705,-1.575 1.575,-1.575 0.87,0 1.575,0.705 1.575,1.575" /><path
   id="path246"
   style="fill:#000000;fill-opacity:1;fill-rule:nonzero;stroke:none"
   d="m 118.025,127.45 c 0,0.87 -0.705,1.575 -1.575,1.575 -0.87,0 -1.575,-0.705 -1.575,-1.575 0,-0.87 0.705,-1.575 1.575,-1.575 0.87,0 1.575,0.705 1.575,1.575" /><path
   id="path248"
   style="fill:#000000;fill-opacity:1;fill-rule:nonzero;stroke:none"
   d="m 115.975,130 c 0,0.87 -0.705,1.575 -1.575,1.575 -0.87,0 -1.575,-0.705 -1.575,-1.575 0,-0.87 0.705,-1.575 1.575,-1.575 0.87,0 1.575,0.705 1.575,1.575" /><path
   id="path250"
   style="fill:#000000;fill-opacity:1;fill-rule:nonzero;stroke:none"
   d="m 115.175,131.55 c 0,0.87 -0.705,1.575 -1.575,1.575 -0.87,0 -1.575,-0.705 -1.575,-1.575 0,-0.87 0.705,-1.575 1.575,-1.575 0.87,0 1.575,0.705 1.575,1.575" /><path
   id="path252"
   style="fill:#000000;fill-opacity:1;fill-rule:nonzero;stroke:none"
   d="m 115.175,133.55 c 0,0.87 -0.705,1.575 -1.575,1.575 -0.87,0 -1.575,-0.705 -1.575,-1.575 0,-0.87 0.705,-1.575 1.575,-1.575 0.87,0 1.575,0.705 1.575,1.575" /><path
   id="path254"
   style="fill:#000000;fill-opacity:1;fill-rule:nonzero;stroke:none"
   d="m 111.025,137 c 0,0.87 -0.705,1.575 -1.575,1.575 -0.87,0 -1.575,-0.705 -1.575,-1.575 0,-0.87 0.705,-1.575 1.575,-1.575 0.87,0 1.575,0.705 1.575,1.575" /><path
   id="path256"
   style="fill:#000000;fill-opacity:1;fill-rule:nonzero;stroke:none"
   d="m 109.975,139.35 c 0,0.87 -0.705,1.575 -1.575,1.575 -0.87,0 -1.575,-0.705 -1.575,-1.575 0,-0.87 0.705,-1.575 1.575,-1.575 0.87,0 1.575,0.705 1.575,1.575" /><path
   id="path258"
   style="fill:#000000;fill-opacity:1;fill-rule:nonzero;stroke:none"
   d="m 110.975,141.3 c 0,0.87 -0.705,1.575 -1.575,1.575 -0.87,0 -1.575,-0.705 -1.575,-1.575 0,-0.87 0.705,-1.575 1.575,-1.575 0.87,0 1.575,0.705 1.575,1.575" /><path
   id="path260"
   style="fill:#000000;fill-opacity:1;fill-rule:nonzero;stroke:none"
   d="m 108.725,144.1 c 0,0.87 -0.705,1.575 -1.575,1.575 -0.87,0 -1.575,-0.705 -1.575,-1.575 0,-0.87 0.705,-1.575 1.575,-1.575 0.87,0 1.575,0.705 1.575,1.575" /><path
   id="path262"
   style="fill:#000000;fill-opacity:1;fill-rule:nonzero;stroke:none"
   d="m 108.325,146.05 c 0,0.87 -0.705,1.575 -1.575,1.575 -0.87,0 -1.575,-0.705 -1.575,-1.575 0,-0.87 0.705,-1.575 1.575,-1.575 0.87,0 1.575,0.705 1.575,1.575" /><path
   id="path264"
   style="fill:#000000;fill-opacity:1;fill-rule:nonzero;stroke:none"
   d="m 106.475,147.75 c 0,0.87 -0.705,1.575 -1.575,1.575 -0.87,0 -1.575,-0.705 -1.575,-1.575 0,-0.87 0.705,-1.575 1.575,-1.575 0.87,0 1.575,0.705 1.575,1.575" /><path
   id="path266"
   style="fill:#000000;fill-opacity:1;fill-rule:nonzero;stroke:none"
   d="m 106.425,149.6 c 0,0.87 -0.705,1.575 -1.575,1.575 -0.87,0 -1.575,-0.705 -1.575,-1.575 0,-0.87 0.705,-1.575 1.575,-1.575 0.87,0 1.575,0.705 1.575,1.575" /><path
   id="path268"
   style="fill:#000000;fill-opacity:1;fill-rule:nonzero;stroke:none"
   d="m 105.125,152.1 c 0,0.87 -0.705,1.575 -1.575,1.575 -0.87,0 -1.575,-0.705 -1.575,-1.575 0,-0.87 0.705,-1.575 1.575,-1.575 0.87,0 1.575,0.705 1.575,1.575" /><path
   id="path270"
   style="fill:#000000;fill-opacity:1;fill-rule:nonzero;stroke:none"
   d="m 103.475,155.35 c 0,0.87 -0.705,1.575 -1.575,1.575 -0.87,0 -1.575,-0.705 -1.575,-1.575 0,-0.87 0.705,-1.575 1.575,-1.575 0.87,0 1.575,0.705 1.575,1.575" /><path
   id="path272"
   style="fill:#000000;fill-opacity:1;fill-rule:nonzero;stroke:none"
   d="m 102.825,157.25 c 0,0.87 -0.705,1.575 -1.575,1.575 -0.87,0 -1.575,-0.705 -1.575,-1.575 0,-0.87 0.705,-1.575 1.575,-1.575 0.87,0 1.575,0.705 1.575,1.575" /><path
   id="path274"
   style="fill:#000000;fill-opacity:1;fill-rule:nonzero;stroke:none"
   d="m 103.525,158.4 c 0,0.87 -0.705,1.575 -1.575,1.575 -0.87,0 -1.575,-0.705 -1.575,-1.575 0,-0.87 0.705,-1.575 1.575,-1.575 0.87,0 1.575,0.705 1.575,1.575" /><path
   id="path276"
   style="fill:#000000;fill-opacity:1;fill-rule:nonzero;stroke:none"
   d="m 103.225,160.2 c 0,0.87 -0.705,1.575 -1.575,1.575 -0.87,0 -1.575,-0.705 -1.575,-1.575 0,-0.87 0.705,-1.575 1.575,-1.575 0.87,0 1.575,0.705 1.575,1.575" /><path
   id="path278"
   style="fill:#000000;fill-opacity:1;fill-rule:nonzero;stroke:none"
   d="m 102.375,162.15 c 0,0.87 -0.705,1.575 -1.575,1.575 -0.8695,0 -1.575,-0.705 -1.575,-1.575 0,-0.87 0.7055,-1.575 1.575,-1.575 0.87,0 1.575,0.705 1.575,1.575" /><path
   id="path280"
   style="fill:#000000;fill-opacity:1;fill-rule:nonzero;stroke:none"
   d="m 103.925,162.95 c 0,0.87 -0.705,1.575 -1.575,1.575 -0.87,0 -1.575,-0.705 -1.575,-1.575 0,-0.87 0.705,-1.575 1.575,-1.575 0.87,0 1.575,0.705 1.575,1.575" /><path
   id="path282"
   style="fill:#000000;fill-opacity:1;fill-rule:nonzero;stroke:none"
   d="m 105.675,163.7 c 0,0.87 -0.705,1.575 -1.575,1.575 -0.87,0 -1.575,-0.705 -1.575,-1.575 0,-0.87 0.705,-1.575 1.575,-1.575 0.87,0 1.575,0.705 1.575,1.575" /><path
   id="path284"
   style="fill:#000000;fill-opacity:1;fill-rule:nonzero;stroke:none"
   d="m 104.275,165.5 c 0,0.87 -0.705,1.575 -1.575,1.575 -0.87,0 -1.575,-0.705 -1.575,-1.575 0,-0.87 0.705,-1.575 1.575,-1.575 0.87,0 1.575,0.705 1.575,1.575" /><path
   id="path286"
   style="fill:#000000;fill-opacity:1;fill-rule:nonzero;stroke:none"
   d="m 101.175,167.6 c 0,0.87 -0.705,1.575 -1.575,1.575 -0.8695,0 -1.575,-0.705 -1.575,-1.575 0,-0.87 0.7055,-1.575 1.575,-1.575 0.87,0 1.575,0.705 1.575,1.575" /><path
   id="path288"
   style="fill:none;stroke:#000000;stroke-width:0.5;stroke-linecap:butt;stroke-linejoin:miter;stroke-miterlimit:10;stroke-opacity:1;stroke-dasharray:none"
   d="m 84.3,72.4 135.2,0 0,95.2 -135.2,0 0,-95.2 z" /><path
   id="path270-6"
   style="fill:#000000;fill-opacity:1;fill-rule:nonzero;stroke:none"
   d="m 213.80229,158.36738 c 0,0.87 -0.705,1.575 -1.575,1.575 -0.87,0 -1.575,-0.705 -1.575,-1.575 0,-0.87 0.705,-1.575 1.575,-1.575 0.87,0 1.575,0.705 1.575,1.575" /><text
   xml:space="preserve"
   style="font-size:16px;font-style:normal;font-weight:normal;fill:#000000;fill-opacity:1;stroke:none;font-family:Bitstream Vera Sans"
   x="182.1729"
   y="-156.7059"
   id="text3253"
   transform="scale(1,-1)"><tspan
     sodipodi:role="line"
     id="tspan3255"
     x="182.1729"
     y="-156.7059"
     style="font-size:8px">Pareto</tspan></text>

<path
   id="path270-6-3"
   style="fill:#f70000;fill-opacity:1;fill-rule:nonzero;stroke:none"
   d="m 213.97651,150.30593 c 0,0.87 -0.705,1.575 -1.575,1.575 -0.87,0 -1.575,-0.705 -1.575,-1.575 0,-0.87 0.705,-1.575 1.575,-1.575 0.87,0 1.575,0.705 1.575,1.575" /><text
   xml:space="preserve"
   style="font-size:16px;font-style:normal;font-weight:normal;fill:#000000;fill-opacity:1;stroke:none;font-family:Bitstream Vera Sans"
   x="178.89876"
   y="-148.85709"
   id="text3253-9"
   transform="scale(1,-1)"><tspan
     sodipodi:role="line"
     id="tspan3255-6"
     x="178.89876"
     y="-148.85709"
     style="font-size:8px">Mutant</tspan></text>

<path
   style="fill:none;stroke:#000000;stroke-width:0.80000001px;stroke-linecap:butt;stroke-linejoin:miter;stroke-opacity:1;marker-start:url(#Arrow1Mstart);marker-end:url(#Arrow1Mend)"
   d="m 132.96694,155.54623 0,-47.91827"
   id="path2973" /><path
   style="fill:none;stroke:#000000;stroke-width:0.80000001px;stroke-linecap:butt;stroke-linejoin:miter;stroke-opacity:1;marker-start:url(#Arrow1Mstart);marker-end:url(#Arrow1Mend)"
   d="m 98.59624,131.21078 67.487,0"
   id="path2975" /><path
   id="path258-1-1"
   style="fill:#ff0000;fill-opacity:1;fill-rule:nonzero;stroke:none"
   d="m 134.70824,131.58456 c 0,0.87 -0.705,1.575 -1.575,1.575 -0.87,0 -1.575,-0.705 -1.575,-1.575 0,-0.87 0.705,-1.575 1.575,-1.575 0.87,0 1.575,0.705 1.575,1.575" /></g></svg>