<?xml version="1.0" encoding="UTF-8" standalone="no"?>
<!-- Created with Inkscape (http://www.inkscape.org/) -->

<svg
   xmlns:dc="http://purl.org/dc/elements/1.1/"
   xmlns:cc="http://creativecommons.org/ns#"
   xmlns:rdf="http://www.w3.org/1999/02/22-rdf-syntax-ns#"
   xmlns:svg="http://www.w3.org/2000/svg"
   xmlns="http://www.w3.org/2000/svg"
   xmlns:sodipodi="http://sodipodi.sourceforge.net/DTD/sodipodi-0.dtd"
   xmlns:inkscape="http://www.inkscape.org/namespaces/inkscape"
   id="svg2"
   version="1.1"
   inkscape:version="0.48.3.1 r9886"
   width="611.25"
   height="517.5"
   xml:space="preserve"
   sodipodi:docname="param6_7.svg"><metadata
     id="metadata8"><rdf:RDF><cc:Work
         rdf:about=""><dc:format>image/svg+xml</dc:format><dc:type
           rdf:resource="http://purl.org/dc/dcmitype/StillImage" /><dc:title></dc:title></cc:Work></rdf:RDF></metadata><defs
     id="defs6"><marker
       inkscape:stockid="Arrow1Mstart"
       orient="auto"
       refY="0.0"
       refX="0.0"
       id="Arrow1Mstart"
       style="overflow:visible"><path
         id="path4536"
         d="M 0.0,0.0 L 5.0,-5.0 L -12.5,0.0 L 5.0,5.0 L 0.0,0.0 z "
         style="fill-rule:evenodd;stroke:#000000;stroke-width:1.0pt"
         transform="scale(0.4) translate(10,0)" /></marker><clipPath
       clipPathUnits="userSpaceOnUse"
       id="clipPath18"><path
         d="m 0,0 4890,0 0,4136 L 0,4136 0,0 z"
         id="path20" /></clipPath><marker
       inkscape:stockid="Arrow1Mend"
       orient="auto"
       refY="0"
       refX="0"
       id="Arrow1Mend"
       style="overflow:visible"><path
         inkscape:connector-curvature="0"
         id="path3959"
         d="M 0,0 5,-5 -12.5,0 5,5 0,0 z"
         style="fill-rule:evenodd;stroke:#000000;stroke-width:1pt"
         transform="matrix(-0.4,0,0,-0.4,-4,0)" /></marker><marker
       inkscape:stockid="Arrow1Mend"
       orient="auto"
       refY="0"
       refX="0"
       id="marker4609"
       style="overflow:visible"><path
         inkscape:connector-curvature="0"
         id="path4611"
         d="M 0,0 5,-5 -12.5,0 5,5 0,0 z"
         style="fill-rule:evenodd;stroke:#000000;stroke-width:1pt"
         transform="matrix(-0.4,0,0,-0.4,-4,0)" /></marker><marker
       inkscape:stockid="Arrow1Mend"
       orient="auto"
       refY="0"
       refX="0"
       id="marker4609-1"
       style="overflow:visible"><path
         inkscape:connector-curvature="0"
         id="path4611-4"
         d="M 0,0 5,-5 -12.5,0 5,5 0,0 z"
         style="fill-rule:evenodd;stroke:#000000;stroke-width:1pt"
         transform="matrix(-0.4,0,0,-0.4,-4,0)" /></marker><clipPath
       id="clipPath3056"
       clipPathUnits="userSpaceOnUse"><path
         id="path3058"
         d="m 0,0.0117188 3610,0 0,2591.9899812 -3610,0 L 0,0.0117188 z" /></clipPath><marker
       inkscape:stockid="Arrow1Mend"
       orient="auto"
       refY="0"
       refX="0"
       id="marker4609-1-0"
       style="overflow:visible"><path
         inkscape:connector-curvature="0"
         id="path4611-4-5"
         d="M 0,0 5,-5 -12.5,0 5,5 0,0 z"
         style="fill-rule:evenodd;stroke:#000000;stroke-width:1pt"
         transform="matrix(-0.4,0,0,-0.4,-4,0)" /></marker><marker
       inkscape:stockid="Arrow1Mend"
       orient="auto"
       refY="0"
       refX="0"
       id="Arrow1Mend-8"
       style="overflow:visible"><path
         inkscape:connector-curvature="0"
         id="path3959-1"
         d="M 0,0 5,-5 -12.5,0 5,5 0,0 z"
         style="fill-rule:evenodd;stroke:#000000;stroke-width:1pt"
         transform="matrix(-0.4,0,0,-0.4,-4,0)" /></marker><marker
       inkscape:stockid="Arrow1Mend"
       orient="auto"
       refY="0"
       refX="0"
       id="marker3034"
       style="overflow:visible"><path
         inkscape:connector-curvature="0"
         id="path3036"
         d="M 0,0 5,-5 -12.5,0 5,5 0,0 z"
         style="fill-rule:evenodd;stroke:#000000;stroke-width:1pt"
         transform="matrix(-0.4,0,0,-0.4,-4,0)" /></marker><marker
       inkscape:stockid="Arrow1Mend"
       orient="auto"
       refY="0"
       refX="0"
       id="marker4609-1-4"
       style="overflow:visible"><path
         inkscape:connector-curvature="0"
         id="path4611-4-1"
         d="M 0,0 5,-5 -12.5,0 5,5 0,0 z"
         style="fill-rule:evenodd;stroke:#000000;stroke-width:1pt"
         transform="matrix(-0.4,0,0,-0.4,-4,0)" /></marker><marker
       inkscape:stockid="Arrow1Mend"
       orient="auto"
       refY="0"
       refX="0"
       id="marker3040"
       style="overflow:visible"><path
         inkscape:connector-curvature="0"
         id="path3042"
         d="M 0,0 5,-5 -12.5,0 5,5 0,0 z"
         style="fill-rule:evenodd;stroke:#000000;stroke-width:1pt"
         transform="matrix(-0.4,0,0,-0.4,-4,0)" /></marker><marker
       inkscape:stockid="Arrow1Mend"
       orient="auto"
       refY="0"
       refX="0"
       id="Arrow1Mend-1"
       style="overflow:visible"><path
         inkscape:connector-curvature="0"
         id="path3959-13"
         d="M 0,0 5,-5 -12.5,0 5,5 0,0 z"
         style="fill-rule:evenodd;stroke:#000000;stroke-width:1pt"
         transform="matrix(-0.4,0,0,-0.4,-4,0)" /></marker><marker
       inkscape:stockid="Arrow1Mstart"
       orient="auto"
       refY="0"
       refX="0"
       id="Arrow1Mstart-2"
       style="overflow:visible"><path
         inkscape:connector-curvature="0"
         id="path4536-2"
         d="M 0,0 5,-5 -12.5,0 5,5 0,0 z"
         style="fill-rule:evenodd;stroke:#000000;stroke-width:1pt"
         transform="matrix(0.4,0,0,0.4,4,0)" /></marker><marker
       inkscape:stockid="Arrow1Mend"
       orient="auto"
       refY="0"
       refX="0"
       id="marker3040-3"
       style="overflow:visible"><path
         inkscape:connector-curvature="0"
         id="path3042-9"
         d="M 0,0 5,-5 -12.5,0 5,5 0,0 z"
         style="fill-rule:evenodd;stroke:#000000;stroke-width:1pt"
         transform="matrix(-0.4,0,0,-0.4,-4,0)" /></marker><marker
       inkscape:stockid="Arrow1Mstart"
       orient="auto"
       refY="0"
       refX="0"
       id="Arrow1Mstart-8"
       style="overflow:visible"><path
         inkscape:connector-curvature="0"
         id="path4536-9"
         d="M 0,0 5,-5 -12.5,0 5,5 0,0 z"
         style="fill-rule:evenodd;stroke:#000000;stroke-width:1pt"
         transform="matrix(0.4,0,0,0.4,4,0)" /></marker><marker
       inkscape:stockid="Arrow1Mend"
       orient="auto"
       refY="0"
       refX="0"
       id="marker3040-30"
       style="overflow:visible"><path
         inkscape:connector-curvature="0"
         id="path3042-6"
         d="M 0,0 5,-5 -12.5,0 5,5 0,0 z"
         style="fill-rule:evenodd;stroke:#000000;stroke-width:1pt"
         transform="matrix(-0.4,0,0,-0.4,-4,0)" /></marker><marker
       inkscape:stockid="Arrow1Mstart"
       orient="auto"
       refY="0"
       refX="0"
       id="Arrow1Mstart-4"
       style="overflow:visible"><path
         inkscape:connector-curvature="0"
         id="path4536-1"
         d="M 0,0 5,-5 -12.5,0 5,5 0,0 z"
         style="fill-rule:evenodd;stroke:#000000;stroke-width:1pt"
         transform="matrix(0.4,0,0,0.4,4,0)" /></marker><marker
       inkscape:stockid="Arrow1Mend"
       orient="auto"
       refY="0"
       refX="0"
       id="marker3040-4"
       style="overflow:visible"><path
         inkscape:connector-curvature="0"
         id="path3042-91"
         d="M 0,0 5,-5 -12.5,0 5,5 0,0 z"
         style="fill-rule:evenodd;stroke:#000000;stroke-width:1pt"
         transform="matrix(-0.4,0,0,-0.4,-4,0)" /></marker><marker
       inkscape:stockid="Arrow1Mend"
       orient="auto"
       refY="0"
       refX="0"
       id="marker4609-1-9"
       style="overflow:visible"><path
         inkscape:connector-curvature="0"
         id="path4611-4-3"
         d="M 0,0 5,-5 -12.5,0 5,5 0,0 z"
         style="fill-rule:evenodd;stroke:#000000;stroke-width:1pt"
         transform="matrix(-0.4,0,0,-0.4,-4,0)" /></marker><marker
       inkscape:stockid="Arrow1Mend"
       orient="auto"
       refY="0"
       refX="0"
       id="marker4609-1-3"
       style="overflow:visible"><path
         inkscape:connector-curvature="0"
         id="path4611-4-4"
         d="M 0,0 5,-5 -12.5,0 5,5 0,0 z"
         style="fill-rule:evenodd;stroke:#000000;stroke-width:1pt"
         transform="matrix(-0.4,0,0,-0.4,-4,0)" /></marker><clipPath
       id="clipPath5771"
       clipPathUnits="userSpaceOnUse"><path
         id="path5773"
         d="m 0,0 5310,0 0,721.988 -5310,0 L 0,0 z" /></clipPath></defs><sodipodi:namedview
     pagecolor="#ffffff"
     bordercolor="#666666"
     borderopacity="1"
     objecttolerance="10"
     gridtolerance="10"
     guidetolerance="10"
     inkscape:pageopacity="0"
     inkscape:pageshadow="2"
     inkscape:window-width="1548"
     inkscape:window-height="876"
     id="namedview4"
     showgrid="false"
     inkscape:zoom="1.9941231"
     inkscape:cx="244.58189"
     inkscape:cy="335.85125"
     inkscape:window-x="52"
     inkscape:window-y="24"
     inkscape:window-maximized="1"
     inkscape:current-layer="g10" /><g
     id="g10"
     inkscape:groupmode="layer"
     inkscape:label="ink_ext_XXXXXX"
     transform="matrix(1.25,0,0,-1.25,0,517.5)">



<flowRoot
   xml:space="preserve"
   id="flowRoot3072"
   style="font-size:40px;font-style:normal;font-weight:normal;line-height:125%;letter-spacing:0px;word-spacing:0px;fill:#000000;fill-opacity:1;stroke:none;font-family:Sans"
   transform="matrix(0.4,0,0,-0.4,188.82178,349.14405)"><flowRegion
     id="flowRegion3074"><rect
       id="rect3076"
       width="7.8010974"
       height="60.281208"
       x="768.05353"
       y="-747.69617" /></flowRegion><flowPara
     id="flowPara3078"></flowPara></flowRoot><flowRoot
   transform="matrix(0.5,0,0,0.5,0.11049,141.05815)"
   xml:space="preserve"
   id="flowRoot3072-0"
   style="font-size:40px;font-style:normal;font-weight:normal;line-height:125%;letter-spacing:0px;word-spacing:0px;fill:#000000;fill-opacity:1;stroke:none;font-family:Sans"><flowRegion
     id="flowRegion3074-0"><rect
       id="rect3076-1"
       width="7.8010974"
       height="60.281208"
       x="768.05353"
       y="-747.69617" /></flowRegion><flowPara
     id="flowPara3078-2" /></flowRoot><path
   style="fill:none;stroke:#000000;stroke-width:1.5;stroke-linecap:butt;stroke-linejoin:miter;stroke-opacity:1;stroke-miterlimit:4;stroke-dasharray:none"
   d="m 20.211935,308.28875 c 0,0 -0.0554,-2.85246 0.70919,-4.25515 0.764594,-1.40269 1.806874,-3.14916 3.399075,-4.29816 1.592202,-1.149 4.165072,-2.6837 6.175,-3.69283 2.009928,-1.00914 2.013185,-0.93566 6.382716,-2.08455 4.369531,-1.1489 7.801097,-1.9807 7.801097,-1.9807 l 8.510288,-0.70919 10.992456,-1.06378 23.048697,-0.7092 41.133056,0 51.41633,1.41839 61.34499,3.19135 78.72017,3.54596 78.36557,2.12757 61.69959,1.06379 33.33196,0 1.41838,0 -0.35459,6.73731"
   id="path5787"
   inkscape:connector-curvature="0"
   transform="matrix(0.8,0,0,-0.8,0,414)"
   sodipodi:nodetypes="czzzzccccccccccccc" /><path
   style="fill:none;stroke:#000000;stroke-width:0.5;stroke-linecap:butt;stroke-linejoin:miter;stroke-opacity:1;stroke-miterlimit:4;stroke-dasharray:none"
   d="m 20.211935,307.93415 0,-19.50274 192.190675,0.35459 64.76338,12.05625 217.28692,-0.48029"
   id="path5789"
   inkscape:connector-curvature="0"
   transform="matrix(0.8,0,0,-0.8,0,414)" /><path
   style="fill:none;stroke:#000000;stroke-width:1;stroke-linecap:butt;stroke-linejoin:miter;stroke-opacity:1;stroke-miterlimit:4;stroke-dasharray:1,1;stroke-dashoffset:0"
   d="M 20.058942,307.88406 494.45291,306.88111"
   id="path5791"
   inkscape:connector-curvature="0"
   transform="matrix(0.8,0,0,-0.8,0,414)" /><path
   sodipodi:type="arc"
   style="opacity:0.92000002;fill:#000000;fill-opacity:1;stroke:#000000;stroke-width:2;stroke-miterlimit:4;stroke-opacity:1;stroke-dasharray:none;stroke-dashoffset:0"
   id="path3080-9-2-3-6-0-7"
   sodipodi:cx="103.54184"
   sodipodi:cy="184.53497"
   sodipodi:rx="2.8367627"
   sodipodi:ry="3.1913581"
   d="m 106.3786,184.53497 a 2.8367627,3.1913581 0 1 1 -5.67352,0 2.8367627,3.1913581 0 1 1 5.67352,0 z"
   transform="matrix(0.4,0,0,-0.4,-25.369582,242.3091)" /><path
   sodipodi:type="arc"
   style="opacity:0.92000002;fill:#000000;fill-opacity:1;stroke:#000000;stroke-width:2;stroke-miterlimit:4;stroke-opacity:1;stroke-dasharray:none;stroke-dashoffset:0"
   id="path3080-9-2-3-6-0-7-8"
   sodipodi:cx="103.54184"
   sodipodi:cy="184.53497"
   sodipodi:rx="2.8367627"
   sodipodi:ry="3.1913581"
   d="m 106.3786,184.53497 a 2.8367627,3.1913581 0 1 1 -5.67352,0 2.8367627,3.1913581 0 1 1 5.67352,0 z"
   transform="matrix(0.4,0,0,-0.4,-24.968402,257.15272)" /><path
   sodipodi:type="arc"
   style="opacity:0.92000002;fill:#000000;fill-opacity:1;stroke:#000000;stroke-width:2;stroke-miterlimit:4;stroke-opacity:1;stroke-dasharray:none;stroke-dashoffset:0"
   id="path3080-9-2-3-6-0-7-8-2"
   sodipodi:cx="103.54184"
   sodipodi:cy="184.53497"
   sodipodi:rx="2.8367627"
   sodipodi:ry="3.1913581"
   d="m 106.3786,184.53497 a 2.8367627,3.1913581 0 1 1 -5.67352,0 2.8367627,3.1913581 0 1 1 5.67352,0 z"
   transform="matrix(0.4,0,0,-0.4,128.4825,256.55095)" /><path
   sodipodi:type="arc"
   style="opacity:0.92000002;fill:#000000;fill-opacity:1;stroke:#000000;stroke-width:2;stroke-miterlimit:4;stroke-opacity:1;stroke-dasharray:none;stroke-dashoffset:0"
   id="path3080-9-2-3-6-0-7-8-2-0"
   sodipodi:cx="103.54184"
   sodipodi:cy="184.53497"
   sodipodi:rx="2.8367627"
   sodipodi:ry="3.1913581"
   d="m 106.3786,184.53497 a 2.8367627,3.1913581 0 1 1 -5.67352,0 2.8367627,3.1913581 0 1 1 5.67352,0 z"
   transform="matrix(0.4,0,0,-0.4,179.43221,247.31911)" /><path
   sodipodi:type="arc"
   style="opacity:0.92000002;fill:#000000;fill-opacity:1;stroke:#000000;stroke-width:2;stroke-miterlimit:4;stroke-opacity:1;stroke-dasharray:none;stroke-dashoffset:0"
   id="path3080-9-2-3-6-0-7-8-2-0-4"
   sodipodi:cx="103.54184"
   sodipodi:cy="184.53497"
   sodipodi:rx="2.8367627"
   sodipodi:ry="3.1913581"
   d="m 106.3786,184.53497 a 2.8367627,3.1913581 0 1 1 -5.67352,0 2.8367627,3.1913581 0 1 1 5.67352,0 z"
   transform="matrix(0.4,0,0,-0.4,354.1456,247.32384)" /></g></svg>