<?xml version="1.0" encoding="UTF-8" standalone="no"?>
<!-- Created with Inkscape (http://www.inkscape.org/) -->

<svg
   xmlns:dc="http://purl.org/dc/elements/1.1/"
   xmlns:cc="http://creativecommons.org/ns#"
   xmlns:rdf="http://www.w3.org/1999/02/22-rdf-syntax-ns#"
   xmlns:svg="http://www.w3.org/2000/svg"
   xmlns="http://www.w3.org/2000/svg"
   xmlns:sodipodi="http://sodipodi.sourceforge.net/DTD/sodipodi-0.dtd"
   xmlns:inkscape="http://www.inkscape.org/namespaces/inkscape"
   id="svg2"
   version="1.1"
   inkscape:version="0.48.3.1 r9886"
   width="611.25"
   height="517.5"
   xml:space="preserve"
   sodipodi:docname="param9.svg"><metadata
     id="metadata8"><rdf:RDF><cc:Work
         rdf:about=""><dc:format>image/svg+xml</dc:format><dc:type
           rdf:resource="http://purl.org/dc/dcmitype/StillImage" /><dc:title></dc:title></cc:Work></rdf:RDF></metadata><defs
     id="defs6"><marker
       inkscape:stockid="Arrow1Mstart"
       orient="auto"
       refY="0.0"
       refX="0.0"
       id="Arrow1Mstart"
       style="overflow:visible"><path
         id="path4536"
         d="M 0.0,0.0 L 5.0,-5.0 L -12.5,0.0 L 5.0,5.0 L 0.0,0.0 z "
         style="fill-rule:evenodd;stroke:#000000;stroke-width:1.0pt"
         transform="scale(0.4) translate(10,0)" /></marker><clipPath
       clipPathUnits="userSpaceOnUse"
       id="clipPath18"><path
         d="m 0,0 4890,0 0,4136 L 0,4136 0,0 z"
         id="path20" /></clipPath><marker
       inkscape:stockid="Arrow1Mend"
       orient="auto"
       refY="0"
       refX="0"
       id="Arrow1Mend"
       style="overflow:visible"><path
         inkscape:connector-curvature="0"
         id="path3959"
         d="M 0,0 5,-5 -12.5,0 5,5 0,0 z"
         style="fill-rule:evenodd;stroke:#000000;stroke-width:1pt"
         transform="matrix(-0.4,0,0,-0.4,-4,0)" /></marker><marker
       inkscape:stockid="Arrow1Mend"
       orient="auto"
       refY="0"
       refX="0"
       id="marker4609"
       style="overflow:visible"><path
         inkscape:connector-curvature="0"
         id="path4611"
         d="M 0,0 5,-5 -12.5,0 5,5 0,0 z"
         style="fill-rule:evenodd;stroke:#000000;stroke-width:1pt"
         transform="matrix(-0.4,0,0,-0.4,-4,0)" /></marker><marker
       inkscape:stockid="Arrow1Mend"
       orient="auto"
       refY="0"
       refX="0"
       id="marker4609-1"
       style="overflow:visible"><path
         inkscape:connector-curvature="0"
         id="path4611-4"
         d="M 0,0 5,-5 -12.5,0 5,5 0,0 z"
         style="fill-rule:evenodd;stroke:#000000;stroke-width:1pt"
         transform="matrix(-0.4,0,0,-0.4,-4,0)" /></marker><clipPath
       id="clipPath3056"
       clipPathUnits="userSpaceOnUse"><path
         id="path3058"
         d="m 0,0.0117188 3610,0 0,2591.9899812 -3610,0 L 0,0.0117188 z" /></clipPath><marker
       inkscape:stockid="Arrow1Mend"
       orient="auto"
       refY="0"
       refX="0"
       id="marker4609-1-0"
       style="overflow:visible"><path
         inkscape:connector-curvature="0"
         id="path4611-4-5"
         d="M 0,0 5,-5 -12.5,0 5,5 0,0 z"
         style="fill-rule:evenodd;stroke:#000000;stroke-width:1pt"
         transform="matrix(-0.4,0,0,-0.4,-4,0)" /></marker><marker
       inkscape:stockid="Arrow1Mend"
       orient="auto"
       refY="0"
       refX="0"
       id="Arrow1Mend-8"
       style="overflow:visible"><path
         inkscape:connector-curvature="0"
         id="path3959-1"
         d="M 0,0 5,-5 -12.5,0 5,5 0,0 z"
         style="fill-rule:evenodd;stroke:#000000;stroke-width:1pt"
         transform="matrix(-0.4,0,0,-0.4,-4,0)" /></marker><marker
       inkscape:stockid="Arrow1Mend"
       orient="auto"
       refY="0"
       refX="0"
       id="marker3034"
       style="overflow:visible"><path
         inkscape:connector-curvature="0"
         id="path3036"
         d="M 0,0 5,-5 -12.5,0 5,5 0,0 z"
         style="fill-rule:evenodd;stroke:#000000;stroke-width:1pt"
         transform="matrix(-0.4,0,0,-0.4,-4,0)" /></marker><marker
       inkscape:stockid="Arrow1Mend"
       orient="auto"
       refY="0"
       refX="0"
       id="marker4609-1-4"
       style="overflow:visible"><path
         inkscape:connector-curvature="0"
         id="path4611-4-1"
         d="M 0,0 5,-5 -12.5,0 5,5 0,0 z"
         style="fill-rule:evenodd;stroke:#000000;stroke-width:1pt"
         transform="matrix(-0.4,0,0,-0.4,-4,0)" /></marker><marker
       inkscape:stockid="Arrow1Mend"
       orient="auto"
       refY="0"
       refX="0"
       id="marker3040"
       style="overflow:visible"><path
         inkscape:connector-curvature="0"
         id="path3042"
         d="M 0,0 5,-5 -12.5,0 5,5 0,0 z"
         style="fill-rule:evenodd;stroke:#000000;stroke-width:1pt"
         transform="matrix(-0.4,0,0,-0.4,-4,0)" /></marker><marker
       inkscape:stockid="Arrow1Mend"
       orient="auto"
       refY="0"
       refX="0"
       id="Arrow1Mend-1"
       style="overflow:visible"><path
         inkscape:connector-curvature="0"
         id="path3959-13"
         d="M 0,0 5,-5 -12.5,0 5,5 0,0 z"
         style="fill-rule:evenodd;stroke:#000000;stroke-width:1pt"
         transform="matrix(-0.4,0,0,-0.4,-4,0)" /></marker><marker
       inkscape:stockid="Arrow1Mstart"
       orient="auto"
       refY="0"
       refX="0"
       id="Arrow1Mstart-2"
       style="overflow:visible"><path
         inkscape:connector-curvature="0"
         id="path4536-2"
         d="M 0,0 5,-5 -12.5,0 5,5 0,0 z"
         style="fill-rule:evenodd;stroke:#000000;stroke-width:1pt"
         transform="matrix(0.4,0,0,0.4,4,0)" /></marker><marker
       inkscape:stockid="Arrow1Mend"
       orient="auto"
       refY="0"
       refX="0"
       id="marker3040-3"
       style="overflow:visible"><path
         inkscape:connector-curvature="0"
         id="path3042-9"
         d="M 0,0 5,-5 -12.5,0 5,5 0,0 z"
         style="fill-rule:evenodd;stroke:#000000;stroke-width:1pt"
         transform="matrix(-0.4,0,0,-0.4,-4,0)" /></marker><marker
       inkscape:stockid="Arrow1Mstart"
       orient="auto"
       refY="0"
       refX="0"
       id="Arrow1Mstart-8"
       style="overflow:visible"><path
         inkscape:connector-curvature="0"
         id="path4536-9"
         d="M 0,0 5,-5 -12.5,0 5,5 0,0 z"
         style="fill-rule:evenodd;stroke:#000000;stroke-width:1pt"
         transform="matrix(0.4,0,0,0.4,4,0)" /></marker><marker
       inkscape:stockid="Arrow1Mend"
       orient="auto"
       refY="0"
       refX="0"
       id="marker3040-30"
       style="overflow:visible"><path
         inkscape:connector-curvature="0"
         id="path3042-6"
         d="M 0,0 5,-5 -12.5,0 5,5 0,0 z"
         style="fill-rule:evenodd;stroke:#000000;stroke-width:1pt"
         transform="matrix(-0.4,0,0,-0.4,-4,0)" /></marker><marker
       inkscape:stockid="Arrow1Mstart"
       orient="auto"
       refY="0"
       refX="0"
       id="Arrow1Mstart-4"
       style="overflow:visible"><path
         inkscape:connector-curvature="0"
         id="path4536-1"
         d="M 0,0 5,-5 -12.5,0 5,5 0,0 z"
         style="fill-rule:evenodd;stroke:#000000;stroke-width:1pt"
         transform="matrix(0.4,0,0,0.4,4,0)" /></marker><marker
       inkscape:stockid="Arrow1Mend"
       orient="auto"
       refY="0"
       refX="0"
       id="marker3040-4"
       style="overflow:visible"><path
         inkscape:connector-curvature="0"
         id="path3042-91"
         d="M 0,0 5,-5 -12.5,0 5,5 0,0 z"
         style="fill-rule:evenodd;stroke:#000000;stroke-width:1pt"
         transform="matrix(-0.4,0,0,-0.4,-4,0)" /></marker><marker
       inkscape:stockid="Arrow1Mend"
       orient="auto"
       refY="0"
       refX="0"
       id="marker4609-1-9"
       style="overflow:visible"><path
         inkscape:connector-curvature="0"
         id="path4611-4-3"
         d="M 0,0 5,-5 -12.5,0 5,5 0,0 z"
         style="fill-rule:evenodd;stroke:#000000;stroke-width:1pt"
         transform="matrix(-0.4,0,0,-0.4,-4,0)" /></marker><marker
       inkscape:stockid="Arrow1Mend"
       orient="auto"
       refY="0"
       refX="0"
       id="marker4609-1-3"
       style="overflow:visible"><path
         inkscape:connector-curvature="0"
         id="path4611-4-4"
         d="M 0,0 5,-5 -12.5,0 5,5 0,0 z"
         style="fill-rule:evenodd;stroke:#000000;stroke-width:1pt"
         transform="matrix(-0.4,0,0,-0.4,-4,0)" /></marker></defs><sodipodi:namedview
     pagecolor="#ffffff"
     bordercolor="#666666"
     borderopacity="1"
     objecttolerance="10"
     gridtolerance="10"
     guidetolerance="10"
     inkscape:pageopacity="0"
     inkscape:pageshadow="2"
     inkscape:window-width="1548"
     inkscape:window-height="876"
     id="namedview4"
     showgrid="false"
     inkscape:zoom="1.9941231"
     inkscape:cx="247.38231"
     inkscape:cy="379.57336"
     inkscape:window-x="52"
     inkscape:window-y="24"
     inkscape:window-maximized="1"
     inkscape:current-layer="g10" /><g
     id="g10"
     inkscape:groupmode="layer"
     inkscape:label="ink_ext_XXXXXX"
     transform="matrix(1.25,0,0,-1.25,0,517.5)">




<flowRoot
   xml:space="preserve"
   id="flowRoot3072"
   style="font-size:40px;font-style:normal;font-weight:normal;line-height:125%;letter-spacing:0px;word-spacing:0px;fill:#000000;fill-opacity:1;stroke:none;font-family:Sans"
   transform="matrix(0.4,0,0,-0.4,188.82178,349.14405)"><flowRegion
     id="flowRegion3074"><rect
       id="rect3076"
       width="7.8010974"
       height="60.281208"
       x="768.05353"
       y="-747.69617" /></flowRegion><flowPara
     id="flowPara3078" /></flowRoot><path
   style="fill:none;stroke:#000000;stroke-width:0.40000001px;stroke-linecap:butt;stroke-linejoin:miter;stroke-opacity:1;marker-end:url(#Arrow1Mend)"
   d="m 39.25283,236.56686 0,109.12647"
   id="path3174-9"
   inkscape:connector-curvature="0"
   sodipodi:nodetypes="cc" /><path
   style="fill:none;stroke:#000000;stroke-width:0.40000001px;stroke-linecap:butt;stroke-linejoin:miter;stroke-opacity:1;marker-end:url(#Arrow1Mend)"
   d="m 39.11181,287.61487 146.12657,-0.35251"
   id="path3176-0"
   inkscape:connector-curvature="0"
   sodipodi:nodetypes="cc" /><text
   xml:space="preserve"
   style="font-size:16px;font-style:normal;font-weight:normal;line-height:125%;letter-spacing:0px;word-spacing:0px;fill:#000000;fill-opacity:1;stroke:none;font-family:Sans"
   x="178.19914"
   y="-273.03116"
   id="text4572-2"
   sodipodi:linespacing="125%"
   transform="scale(1,-1)"><tspan
     sodipodi:role="line"
     id="tspan4574-0"
     x="178.19914"
     y="-273.03116">ρ</tspan></text>

<text
   xml:space="preserve"
   style="font-size:16px;font-style:normal;font-weight:normal;line-height:125%;letter-spacing:0px;word-spacing:0px;fill:#000000;fill-opacity:1;stroke:none;font-family:Sans"
   x="26.318895"
   y="-334.90488"
   id="text4572-9-3"
   sodipodi:linespacing="125%"
   transform="scale(1,-1)"><tspan
     sodipodi:role="line"
     id="tspan4574-8-2"
     x="26.318895"
     y="-334.90488">t</tspan></text>

<flowRoot
   transform="matrix(0.5,0,0,0.5,0.11049,141.05815)"
   xml:space="preserve"
   id="flowRoot3072-0"
   style="font-size:40px;font-style:normal;font-weight:normal;line-height:125%;letter-spacing:0px;word-spacing:0px;fill:#000000;fill-opacity:1;stroke:none;font-family:Sans"><flowRegion
     id="flowRegion3074-0"><rect
       id="rect3076-1"
       width="7.8010974"
       height="60.281208"
       x="768.05353"
       y="-747.69617" /></flowRegion><flowPara
     id="flowPara3078-2" /></flowRoot><path
   sodipodi:type="arc"
   style="opacity:0.92000002;fill:#000000;fill-opacity:1;stroke:#000000;stroke-width:2;stroke-miterlimit:4;stroke-opacity:1;stroke-dasharray:none;stroke-dashoffset:0"
   id="path3080-7"
   sodipodi:cx="103.54184"
   sodipodi:cy="184.53497"
   sodipodi:rx="2.8367627"
   sodipodi:ry="3.1913581"
   d="m 106.3786,184.53497 a 2.8367627,3.1913581 0 1 1 -5.67352,0 2.8367627,3.1913581 0 1 1 5.67352,0 z"
   transform="matrix(0.4,0,0,-0.4,42.123458,370.05933)" /><path
   style="fill:none;stroke:#000000;stroke-width:1.20000005;stroke-linecap:butt;stroke-linejoin:miter;stroke-miterlimit:4;stroke-opacity:1;stroke-dasharray:none"
   d="m 39.50533,296.95883 c 0,0 27.544444,0.79911 54.778852,3.82451 27.234408,3.0254 28.630438,3.49671 50.335138,10.65056 21.70469,7.15384 28.91826,14.83437 28.91826,14.83437"
   id="path3922-0"
   inkscape:connector-curvature="0"
   sodipodi:nodetypes="czzc" /><path
   sodipodi:type="arc"
   style="opacity:0.92000002;fill:#000000;fill-opacity:1;stroke:#000000;stroke-width:2;stroke-miterlimit:4;stroke-opacity:1;stroke-dasharray:none;stroke-dashoffset:0"
   id="path3080-9-7-3-8"
   sodipodi:cx="103.54184"
   sodipodi:cy="184.53497"
   sodipodi:rx="2.8367627"
   sodipodi:ry="3.1913581"
   d="m 106.3786,184.53497 a 2.8367627,3.1913581 0 1 1 -5.67352,0 2.8367627,3.1913581 0 1 1 5.67352,0 z"
   transform="matrix(0.4,0,0,-0.4,99.865184,378.10142)" /><path
   style="fill:none;stroke:#000000;stroke-width:0.40000001px;stroke-linecap:butt;stroke-linejoin:miter;stroke-opacity:1"
   d="m 39.164532,297.17338 44.249992,-0.85665 58.598046,8.12832 31.23289,19.86569"
   id="path3986-1"
   inkscape:connector-curvature="0"
   sodipodi:nodetypes="cccc" /><text
   xml:space="preserve"
   style="font-size:16px;font-style:normal;font-weight:normal;line-height:125%;letter-spacing:0px;word-spacing:0px;fill:#000000;fill-opacity:1;stroke:none;font-family:Sans"
   x="125.845"
   y="-330.54361"
   id="text3988-2"
   sodipodi:linespacing="125%"
   transform="scale(1,-1)"><tspan
     sodipodi:role="line"
     id="tspan3990-0"
     x="125.845"
     y="-330.54361">PS</tspan></text>

<text
   xml:space="preserve"
   style="font-size:16px;font-style:normal;font-weight:normal;line-height:125%;letter-spacing:0px;word-spacing:0px;fill:#000000;fill-opacity:1;stroke:none;font-family:Sans"
   x="83.114052"
   y="-242.33049"
   id="text3992-0"
   sodipodi:linespacing="125%"
   transform="scale(1,-1)"><tspan
     sodipodi:role="line"
     id="tspan3994-8"
     x="83.114052"
     y="-242.33049">SS</tspan></text>

<path
   style="fill:none;stroke:#000000;stroke-width:0.40000001px;stroke-linecap:butt;stroke-linejoin:miter;stroke-opacity:1;marker-end:url(#marker4609-1)"
   d="M 131.71326,329.24239 123.0869,308.6835"
   id="path3996-8"
   inkscape:connector-curvature="0"
   sodipodi:nodetypes="cc" /><path
   style="fill:none;stroke:#000000;stroke-width:0.40000001px;stroke-linecap:butt;stroke-linejoin:miter;stroke-opacity:1;marker-end:url(#marker4609-1)"
   d="m 92.183262,256.38125 4.804376,14.00929"
   id="path3996-2-2"
   inkscape:connector-curvature="0"
   sodipodi:nodetypes="cc" />






<path
   sodipodi:type="arc"
   style="opacity:0.92000002;fill:#000000;fill-opacity:1;stroke:#000000;stroke-width:2;stroke-miterlimit:4;stroke-opacity:1;stroke-dasharray:none;stroke-dashoffset:0"
   id="path3080-9-7-3-8-3"
   sodipodi:cx="103.54184"
   sodipodi:cy="184.53497"
   sodipodi:rx="2.8367627"
   sodipodi:ry="3.1913581"
   d="m 106.3786,184.53497 a 2.8367627,3.1913581 0 1 1 -5.67352,0 2.8367627,3.1913581 0 1 1 5.67352,0 z"
   transform="matrix(0.4,0,0,-0.4,-1.9031655,370.88003)" /><path
   sodipodi:type="arc"
   style="opacity:0.92000002;fill:#000000;fill-opacity:1;stroke:#000000;stroke-width:2;stroke-miterlimit:4;stroke-opacity:1;stroke-dasharray:none;stroke-dashoffset:0"
   id="path3080-9-7-3-8-0"
   sodipodi:cx="103.54184"
   sodipodi:cy="184.53497"
   sodipodi:rx="2.8367627"
   sodipodi:ry="3.1913581"
   d="m 106.3786,184.53497 a 2.8367627,3.1913581 0 1 1 -5.67352,0 2.8367627,3.1913581 0 1 1 5.67352,0 z"
   transform="matrix(0.4,0,0,-0.4,131.56462,399.14899)" /><path
   sodipodi:type="arc"
   style="opacity:0.92000002;fill:#000000;fill-opacity:1;stroke:#000000;stroke-width:2;stroke-miterlimit:4;stroke-opacity:1;stroke-dasharray:none;stroke-dashoffset:0"
   id="path3080-7-7"
   sodipodi:cx="103.54184"
   sodipodi:cy="184.53497"
   sodipodi:rx="2.8367627"
   sodipodi:ry="3.1913581"
   d="m 106.3786,184.53497 a 2.8367627,3.1913581 0 1 1 -5.67352,0 2.8367627,3.1913581 0 1 1 5.67352,0 z"
   transform="matrix(0.4,0,0,0.39018884,42.5279,205.79164)" /><path
   style="fill:none;stroke:#000000;stroke-width:1.18519199;stroke-linecap:butt;stroke-linejoin:miter;stroke-miterlimit:4;stroke-opacity:1;stroke-dasharray:none"
   d="m 39.90977,277.09914 c 0,0 27.54444,-0.77951 54.77885,-3.73071 27.23441,-2.95119 28.63044,-3.41094 50.33514,-10.38932 21.70468,-6.97837 28.91825,-14.47051 28.91825,-14.47051"
   id="path3922-0-7"
   inkscape:connector-curvature="0"
   sodipodi:nodetypes="czzc" /><path
   sodipodi:type="arc"
   style="opacity:0.92000002;fill:#000000;fill-opacity:1;stroke:#000000;stroke-width:2;stroke-miterlimit:4;stroke-opacity:1;stroke-dasharray:none;stroke-dashoffset:0"
   id="path3080-9-7-3-8-00"
   sodipodi:cx="103.54184"
   sodipodi:cy="184.53497"
   sodipodi:rx="2.8367627"
   sodipodi:ry="3.1913581"
   d="m 106.3786,184.53497 a 2.8367627,3.1913581 0 1 1 -5.67352,0 2.8367627,3.1913581 0 1 1 5.67352,0 z"
   transform="matrix(0.4,0,0,0.39018884,100.26962,197.9468)" /><path
   style="fill:none;stroke:#000000;stroke-width:0.39506397px;stroke-linecap:butt;stroke-linejoin:miter;stroke-opacity:1"
   d="m 39.56897,276.88985 44.24999,0.83564 58.59804,-7.92895 31.23289,-19.37843"
   id="path3986-1-9"
   inkscape:connector-curvature="0"
   sodipodi:nodetypes="cccc" /><path
   sodipodi:type="arc"
   style="opacity:0.92000002;fill:#000000;fill-opacity:1;stroke:#000000;stroke-width:2;stroke-miterlimit:4;stroke-opacity:1;stroke-dasharray:none;stroke-dashoffset:0"
   id="path3080-9-7-3-8-3-8"
   sodipodi:cx="103.54184"
   sodipodi:cy="184.53497"
   sodipodi:rx="2.8367627"
   sodipodi:ry="3.1913581"
   d="m 106.3786,184.53497 a 2.8367627,3.1913581 0 1 1 -5.67352,0 2.8367627,3.1913581 0 1 1 5.67352,0 z"
   transform="matrix(0.4,0,0,0.39018884,-1.49873,204.99107)" /><path
   sodipodi:type="arc"
   style="opacity:0.92000002;fill:#000000;fill-opacity:1;stroke:#000000;stroke-width:2;stroke-miterlimit:4;stroke-opacity:1;stroke-dasharray:none;stroke-dashoffset:0"
   id="path3080-9-7-3-8-0-2"
   sodipodi:cx="103.54184"
   sodipodi:cy="184.53497"
   sodipodi:rx="2.8367627"
   sodipodi:ry="3.1913581"
   d="m 106.3786,184.53497 a 2.8367627,3.1913581 0 1 1 -5.67352,0 2.8367627,3.1913581 0 1 1 5.67352,0 z"
   transform="matrix(0.4,0,0,0.39018884,131.96906,177.41549)" /></g></svg>