<?xml version="1.0" encoding="UTF-8" standalone="no"?>
<!-- Created with Inkscape (http://www.inkscape.org/) -->

<svg
   xmlns:dc="http://purl.org/dc/elements/1.1/"
   xmlns:cc="http://creativecommons.org/ns#"
   xmlns:rdf="http://www.w3.org/1999/02/22-rdf-syntax-ns#"
   xmlns:svg="http://www.w3.org/2000/svg"
   xmlns="http://www.w3.org/2000/svg"
   xmlns:sodipodi="http://sodipodi.sourceforge.net/DTD/sodipodi-0.dtd"
   xmlns:inkscape="http://www.inkscape.org/namespaces/inkscape"
   id="svg2"
   version="1.1"
   inkscape:version="0.48.3.1 r9886"
   width="611.25"
   height="517.5"
   xml:space="preserve"
   sodipodi:docname="param4.svg"><metadata
     id="metadata8"><rdf:RDF><cc:Work
         rdf:about=""><dc:format>image/svg+xml</dc:format><dc:type
           rdf:resource="http://purl.org/dc/dcmitype/StillImage" /><dc:title></dc:title></cc:Work></rdf:RDF></metadata><defs
     id="defs6"><clipPath
       clipPathUnits="userSpaceOnUse"
       id="clipPath18"><path
         d="m 0,0 4890,0 0,4136 L 0,4136 0,0 z"
         id="path20" /></clipPath><marker
       inkscape:stockid="Arrow1Mend"
       orient="auto"
       refY="0"
       refX="0"
       id="Arrow1Mend"
       style="overflow:visible"><path
         inkscape:connector-curvature="0"
         id="path3959"
         d="M 0,0 5,-5 -12.5,0 5,5 0,0 z"
         style="fill-rule:evenodd;stroke:#000000;stroke-width:1pt"
         transform="matrix(-0.4,0,0,-0.4,-4,0)" /></marker><marker
       inkscape:stockid="Arrow1Mend"
       orient="auto"
       refY="0"
       refX="0"
       id="marker4609"
       style="overflow:visible"><path
         inkscape:connector-curvature="0"
         id="path4611"
         d="M 0,0 5,-5 -12.5,0 5,5 0,0 z"
         style="fill-rule:evenodd;stroke:#000000;stroke-width:1pt"
         transform="matrix(-0.4,0,0,-0.4,-4,0)" /></marker><marker
       inkscape:stockid="Arrow1Mend"
       orient="auto"
       refY="0"
       refX="0"
       id="marker4609-1"
       style="overflow:visible"><path
         inkscape:connector-curvature="0"
         id="path4611-4"
         d="M 0,0 5,-5 -12.5,0 5,5 0,0 z"
         style="fill-rule:evenodd;stroke:#000000;stroke-width:1pt"
         transform="matrix(-0.4,0,0,-0.4,-4,0)" /></marker><clipPath
       id="clipPath3056"
       clipPathUnits="userSpaceOnUse"><path
         id="path3058"
         d="m 0,0.0117188 3610,0 0,2591.9899812 -3610,0 L 0,0.0117188 z" /></clipPath><marker
       inkscape:stockid="Arrow1Mend"
       orient="auto"
       refY="0"
       refX="0"
       id="marker4609-1-0"
       style="overflow:visible"><path
         inkscape:connector-curvature="0"
         id="path4611-4-5"
         d="M 0,0 5,-5 -12.5,0 5,5 0,0 z"
         style="fill-rule:evenodd;stroke:#000000;stroke-width:1pt"
         transform="matrix(-0.4,0,0,-0.4,-4,0)" /></marker></defs><sodipodi:namedview
     pagecolor="#ffffff"
     bordercolor="#666666"
     borderopacity="1"
     objecttolerance="10"
     gridtolerance="10"
     guidetolerance="10"
     inkscape:pageopacity="0"
     inkscape:pageshadow="2"
     inkscape:window-width="1548"
     inkscape:window-height="876"
     id="namedview4"
     showgrid="false"
     inkscape:zoom="1.410058"
     inkscape:cx="205.47831"
     inkscape:cy="73.112848"
     inkscape:window-x="52"
     inkscape:window-y="24"
     inkscape:window-maximized="1"
     inkscape:current-layer="g10" /><g
     id="g10"
     inkscape:groupmode="layer"
     inkscape:label="ink_ext_XXXXXX"
     transform="matrix(1.25,0,0,-1.25,0,517.5)"><path
   style="fill:none;stroke:#000000;stroke-width:0.80000001px;stroke-linecap:butt;stroke-linejoin:miter;stroke-opacity:1;marker-end:url(#Arrow1Mend)"
   d="m 78.28468,191.01742 0,218.25295"
   id="path3174"
   inkscape:connector-curvature="0"
   sodipodi:nodetypes="cc" /><path
   style="fill:none;stroke:#000000;stroke-width:0.80000001px;stroke-linecap:butt;stroke-linejoin:miter;stroke-opacity:1;marker-end:url(#Arrow1Mend)"
   d="m 78.00265,190.71344 358.84883,1.70206"
   id="path3176"
   inkscape:connector-curvature="0"
   sodipodi:nodetypes="cc" /><text
   xml:space="preserve"
   style="font-size:32px;font-style:normal;font-weight:normal;line-height:125%;letter-spacing:0px;word-spacing:0px;fill:#000000;fill-opacity:1;stroke:none;font-family:Sans"
   x="437.15887"
   y="-167.1339"
   id="text4572"
   sodipodi:linespacing="125%"
   transform="scale(1,-1)"><tspan
     sodipodi:role="line"
     id="tspan4574"
     x="437.15887"
     y="-167.1339">β</tspan></text>

<text
   xml:space="preserve"
   style="font-size:32px;font-style:normal;font-weight:normal;line-height:125%;letter-spacing:0px;word-spacing:0px;fill:#000000;fill-opacity:1;stroke:none;font-family:Sans"
   x="52.416927"
   y="-387.69321"
   id="text4572-9"
   sodipodi:linespacing="125%"
   transform="scale(1,-1)"><tspan
     sodipodi:role="line"
     id="tspan4574-8"
     x="52.416927"
     y="-387.69321">ρ</tspan></text>



<flowRoot
   xml:space="preserve"
   id="flowRoot3072"
   style="fill:black;stroke:none;stroke-opacity:1;stroke-width:1px;stroke-linejoin:miter;stroke-linecap:butt;fill-opacity:1;font-family:Sans;font-style:normal;font-weight:normal;font-size:40px;line-height:125%;letter-spacing:0px;word-spacing:0px"><flowRegion
     id="flowRegion3074"><rect
       id="rect3076"
       width="7.8010974"
       height="60.281208"
       x="768.05353"
       y="-747.69617" /></flowRegion><flowPara
     id="flowPara3078"></flowPara></flowRoot><path
   sodipodi:type="arc"
   style="opacity:0.92000002;fill:#000000;fill-opacity:1;stroke:#000000;stroke-width:2;stroke-miterlimit:4;stroke-opacity:1;stroke-dasharray:none;stroke-dashoffset:0"
   id="path3080"
   sodipodi:cx="103.54184"
   sodipodi:cy="184.53497"
   sodipodi:rx="2.8367627"
   sodipodi:ry="3.1913581"
   d="m 106.3786,184.53497 a 2.8367627,3.1913581 0 1 1 -5.67352,0 2.8367627,3.1913581 0 1 1 5.67352,0 z"
   transform="matrix(0.8,0,0,-0.8,72,338.8)" /><path
   sodipodi:type="arc"
   style="opacity:0.92000002;fill:#000000;fill-opacity:1;stroke:#000000;stroke-width:2;stroke-miterlimit:4;stroke-opacity:1;stroke-dasharray:none;stroke-dashoffset:0"
   id="path3080-9"
   sodipodi:cx="103.54184"
   sodipodi:cy="184.53497"
   sodipodi:rx="2.8367627"
   sodipodi:ry="3.1913581"
   d="m 106.3786,184.53497 a 2.8367627,3.1913581 0 1 1 -5.67352,0 2.8367627,3.1913581 0 1 1 5.67352,0 z"
   transform="matrix(0.8,0,0,-0.8,70.13333,437.84801)" /><path
   sodipodi:type="arc"
   style="opacity:0.92000002;fill:#000000;fill-opacity:1;stroke:#000000;stroke-width:2;stroke-miterlimit:4;stroke-opacity:1;stroke-dasharray:none;stroke-dashoffset:0"
   id="path3080-9-2"
   sodipodi:cx="103.54184"
   sodipodi:cy="184.53497"
   sodipodi:rx="2.8367627"
   sodipodi:ry="3.1913581"
   d="m 106.3786,184.53497 a 2.8367627,3.1913581 0 1 1 -5.67352,0 2.8367627,3.1913581 0 1 1 5.67352,0 z"
   transform="matrix(0.8,0,0,-0.8,154.93333,477.84801)" /><path
   sodipodi:type="arc"
   style="opacity:0.92000002;fill:#000000;fill-opacity:1;stroke:#000000;stroke-width:2;stroke-miterlimit:4;stroke-opacity:1;stroke-dasharray:none;stroke-dashoffset:0"
   id="path3080-9-2-3"
   sodipodi:cx="103.54184"
   sodipodi:cy="184.53497"
   sodipodi:rx="2.8367627"
   sodipodi:ry="3.1913581"
   d="m 106.3786,184.53497 a 2.8367627,3.1913581 0 1 1 -5.67352,0 2.8367627,3.1913581 0 1 1 5.67352,0 z"
   transform="matrix(0.8,0,0,-0.8,184.30068,510.41536)" /><path
   style="fill:none;stroke:#000000;stroke-width:3;stroke-linecap:butt;stroke-linejoin:miter;stroke-miterlimit:4;stroke-opacity:1;stroke-dasharray:none"
   d="m 193.60906,279.21193 c 0,0 -4.27108,-54.07706 22.6941,-95.74074 26.96518,-41.66368 40.72807,-52.46781 73.04664,-80.84774 32.31857,-28.379928 46.09739,-40.42387 46.09739,-40.42387"
   id="path3922"
   inkscape:connector-curvature="0"
   transform="matrix(0.8,0,0,-0.8,0,414)"
   sodipodi:nodetypes="czzc" /><path
   style="fill:none;stroke:#000000;stroke-width:2.4000001;stroke-linecap:butt;stroke-linejoin:miter;stroke-miterlimit:4;stroke-opacity:1;stroke-dasharray:none"
   d="m 200.38969,190.20137 c 0,0 1.68931,39.29018 23.26145,72.62112 21.57214,33.33095 29.17835,43.10896 53.33114,68.64966 24.15279,25.5407 38.57998,32.90645 38.57998,32.90645"
   id="path3922-0"
   inkscape:connector-curvature="0"
   sodipodi:nodetypes="czzc" /><path
   sodipodi:type="arc"
   style="opacity:0.92000002;fill:#000000;fill-opacity:1;stroke:#000000;stroke-width:2;stroke-miterlimit:4;stroke-opacity:1;stroke-dasharray:none;stroke-dashoffset:0"
   id="path3080-9-7"
   sodipodi:cx="103.54184"
   sodipodi:cy="184.53497"
   sodipodi:rx="2.8367627"
   sodipodi:ry="3.1913581"
   d="m 106.3786,184.53497 a 2.8367627,3.1913581 0 1 1 -5.67352,0 2.8367627,3.1913581 0 1 1 5.67352,0 z"
   transform="matrix(0.8,0,0,-0.8,113.56324,378.56735)" /><path
   sodipodi:type="arc"
   style="opacity:0.92000002;fill:#000000;fill-opacity:1;stroke:#000000;stroke-width:2;stroke-miterlimit:4;stroke-opacity:1;stroke-dasharray:none;stroke-dashoffset:0"
   id="path3080-9-2-2"
   sodipodi:cx="103.54184"
   sodipodi:cy="184.53497"
   sodipodi:rx="2.8367627"
   sodipodi:ry="3.1913581"
   d="m 106.3786,184.53497 a 2.8367627,3.1913581 0 1 1 -5.67352,0 2.8367627,3.1913581 0 1 1 5.67352,0 z"
   transform="matrix(0.8,0,0,-0.8,166.36324,463.36735)" /><path
   sodipodi:type="arc"
   style="opacity:0.92000002;fill:#000000;fill-opacity:1;stroke:#000000;stroke-width:2;stroke-miterlimit:4;stroke-opacity:1;stroke-dasharray:none;stroke-dashoffset:0"
   id="path3080-9-2-3-6"
   sodipodi:cx="103.54184"
   sodipodi:cy="184.53497"
   sodipodi:rx="2.8367627"
   sodipodi:ry="3.1913581"
   d="m 106.3786,184.53497 a 2.8367627,3.1913581 0 1 1 -5.67352,0 2.8367627,3.1913581 0 1 1 5.67352,0 z"
   transform="matrix(0.8,0,0,-0.8,232.99589,510.90206)" /><path
   sodipodi:type="arc"
   style="opacity:0.92000002;fill:#000000;fill-opacity:1;stroke:#000000;stroke-width:2;stroke-miterlimit:4;stroke-opacity:1;stroke-dasharray:none;stroke-dashoffset:0"
   id="path3080-9-7-3"
   sodipodi:cx="103.54184"
   sodipodi:cy="184.53497"
   sodipodi:rx="2.8367627"
   sodipodi:ry="3.1913581"
   d="m 106.3786,184.53497 a 2.8367627,3.1913581 0 1 1 -5.67352,0 2.8367627,3.1913581 0 1 1 5.67352,0 z"
   transform="matrix(0.8,0,0,-0.8,118.67874,338.91248)" /><path
   style="fill:none;stroke:#000000;stroke-width:1px;stroke-linecap:butt;stroke-linejoin:miter;stroke-opacity:1"
   d="m 192.19068,278.50274 -0.70919,-123.39918 104.96022,-51.06173 37.5871,-41.13306"
   id="path3984"
   inkscape:connector-curvature="0"
   transform="matrix(0.8,0,0,-0.8,0,414)" /><path
   style="fill:none;stroke:#000000;stroke-width:1px;stroke-linecap:butt;stroke-linejoin:miter;stroke-opacity:1"
   d="M 249.63512,279.21193 246.08917,228.1502 310.62552,124.60836 395.7284,62.90877"
   id="path3986"
   inkscape:connector-curvature="0"
   transform="matrix(0.8,0,0,-0.8,0,414)" /><text
   xml:space="preserve"
   style="font-size:40px;font-style:normal;font-weight:normal;line-height:125%;letter-spacing:0px;word-spacing:0px;fill:#000000;fill-opacity:1;stroke:none;font-family:Sans"
   x="169.49657"
   y="60.781197"
   id="text3988"
   sodipodi:linespacing="125%"
   transform="matrix(0.8,0,0,-0.8,0,414)"><tspan
     sodipodi:role="line"
     id="tspan3990"
     x="169.49657"
     y="60.781197">ΤΕ</tspan></text>
<text
   xml:space="preserve"
   style="font-size:32px;font-style:normal;font-weight:normal;line-height:125%;letter-spacing:0px;word-spacing:0px;fill:#000000;fill-opacity:1;stroke:none;font-family:Sans"
   x="332.89749"
   y="-289.19919"
   id="text3992"
   sodipodi:linespacing="125%"
   transform="scale(1,-1)"><tspan
     sodipodi:role="line"
     id="tspan3994"
     x="332.89749"
     y="-289.19919">LE</tspan></text>
<path
   style="fill:none;stroke:#000000;stroke-width:1px;stroke-linecap:butt;stroke-linejoin:miter;stroke-opacity:1;marker-end:url(#marker4609-1)"
   d="m 193.60906,63.617961 49.64335,74.465019"
   id="path3996"
   inkscape:connector-curvature="0"
   transform="matrix(0.8,0,0,-0.8,0,414)" /><path
   style="fill:none;stroke:#000000;stroke-width:0.80000001px;stroke-linecap:butt;stroke-linejoin:miter;stroke-opacity:1;marker-end:url(#marker4609-1)"
   d="m 331.77936,297.24188 -65.81289,17.58793"
   id="path3996-2"
   inkscape:connector-curvature="0"
   sodipodi:nodetypes="cc" /></g></svg>