<?xml version="1.0" encoding="UTF-8" standalone="no"?>
<!-- Created with Inkscape (http://www.inkscape.org/) -->

<svg
   xmlns:dc="http://purl.org/dc/elements/1.1/"
   xmlns:cc="http://creativecommons.org/ns#"
   xmlns:rdf="http://www.w3.org/1999/02/22-rdf-syntax-ns#"
   xmlns:svg="http://www.w3.org/2000/svg"
   xmlns="http://www.w3.org/2000/svg"
   xmlns:sodipodi="http://sodipodi.sourceforge.net/DTD/sodipodi-0.dtd"
   xmlns:inkscape="http://www.inkscape.org/namespaces/inkscape"
   id="svg2"
   version="1.1"
   inkscape:version="0.48.3.1 r9886"
   width="611.25"
   height="517.5"
   xml:space="preserve"
   sodipodi:docname="param6_7.eps"><metadata
     id="metadata8"><rdf:RDF><cc:Work
         rdf:about=""><dc:format>image/svg+xml</dc:format><dc:type
           rdf:resource="http://purl.org/dc/dcmitype/StillImage" /><dc:title></dc:title></cc:Work></rdf:RDF></metadata><defs
     id="defs6"><marker
       inkscape:stockid="Arrow1Mstart"
       orient="auto"
       refY="0.0"
       refX="0.0"
       id="Arrow1Mstart"
       style="overflow:visible"><path
         id="path4536"
         d="M 0.0,0.0 L 5.0,-5.0 L -12.5,0.0 L 5.0,5.0 L 0.0,0.0 z "
         style="fill-rule:evenodd;stroke:#000000;stroke-width:1.0pt"
         transform="scale(0.4) translate(10,0)" /></marker><clipPath
       clipPathUnits="userSpaceOnUse"
       id="clipPath18"><path
         d="m 0,0 4890,0 0,4136 L 0,4136 0,0 z"
         id="path20" /></clipPath><marker
       inkscape:stockid="Arrow1Mend"
       orient="auto"
       refY="0"
       refX="0"
       id="Arrow1Mend"
       style="overflow:visible"><path
         inkscape:connector-curvature="0"
         id="path3959"
         d="M 0,0 5,-5 -12.5,0 5,5 0,0 z"
         style="fill-rule:evenodd;stroke:#000000;stroke-width:1pt"
         transform="matrix(-0.4,0,0,-0.4,-4,0)" /></marker><marker
       inkscape:stockid="Arrow1Mend"
       orient="auto"
       refY="0"
       refX="0"
       id="marker4609"
       style="overflow:visible"><path
         inkscape:connector-curvature="0"
         id="path4611"
         d="M 0,0 5,-5 -12.5,0 5,5 0,0 z"
         style="fill-rule:evenodd;stroke:#000000;stroke-width:1pt"
         transform="matrix(-0.4,0,0,-0.4,-4,0)" /></marker><marker
       inkscape:stockid="Arrow1Mend"
       orient="auto"
       refY="0"
       refX="0"
       id="marker4609-1"
       style="overflow:visible"><path
         inkscape:connector-curvature="0"
         id="path4611-4"
         d="M 0,0 5,-5 -12.5,0 5,5 0,0 z"
         style="fill-rule:evenodd;stroke:#000000;stroke-width:1pt"
         transform="matrix(-0.4,0,0,-0.4,-4,0)" /></marker><clipPath
       id="clipPath3056"
       clipPathUnits="userSpaceOnUse"><path
         id="path3058"
         d="m 0,0.0117188 3610,0 0,2591.9899812 -3610,0 L 0,0.0117188 z" /></clipPath><marker
       inkscape:stockid="Arrow1Mend"
       orient="auto"
       refY="0"
       refX="0"
       id="marker4609-1-0"
       style="overflow:visible"><path
         inkscape:connector-curvature="0"
         id="path4611-4-5"
         d="M 0,0 5,-5 -12.5,0 5,5 0,0 z"
         style="fill-rule:evenodd;stroke:#000000;stroke-width:1pt"
         transform="matrix(-0.4,0,0,-0.4,-4,0)" /></marker><marker
       inkscape:stockid="Arrow1Mend"
       orient="auto"
       refY="0"
       refX="0"
       id="Arrow1Mend-8"
       style="overflow:visible"><path
         inkscape:connector-curvature="0"
         id="path3959-1"
         d="M 0,0 5,-5 -12.5,0 5,5 0,0 z"
         style="fill-rule:evenodd;stroke:#000000;stroke-width:1pt"
         transform="matrix(-0.4,0,0,-0.4,-4,0)" /></marker><marker
       inkscape:stockid="Arrow1Mend"
       orient="auto"
       refY="0"
       refX="0"
       id="marker3034"
       style="overflow:visible"><path
         inkscape:connector-curvature="0"
         id="path3036"
         d="M 0,0 5,-5 -12.5,0 5,5 0,0 z"
         style="fill-rule:evenodd;stroke:#000000;stroke-width:1pt"
         transform="matrix(-0.4,0,0,-0.4,-4,0)" /></marker><marker
       inkscape:stockid="Arrow1Mend"
       orient="auto"
       refY="0"
       refX="0"
       id="marker4609-1-4"
       style="overflow:visible"><path
         inkscape:connector-curvature="0"
         id="path4611-4-1"
         d="M 0,0 5,-5 -12.5,0 5,5 0,0 z"
         style="fill-rule:evenodd;stroke:#000000;stroke-width:1pt"
         transform="matrix(-0.4,0,0,-0.4,-4,0)" /></marker><marker
       inkscape:stockid="Arrow1Mend"
       orient="auto"
       refY="0"
       refX="0"
       id="marker3040"
       style="overflow:visible"><path
         inkscape:connector-curvature="0"
         id="path3042"
         d="M 0,0 5,-5 -12.5,0 5,5 0,0 z"
         style="fill-rule:evenodd;stroke:#000000;stroke-width:1pt"
         transform="matrix(-0.4,0,0,-0.4,-4,0)" /></marker><marker
       inkscape:stockid="Arrow1Mend"
       orient="auto"
       refY="0"
       refX="0"
       id="Arrow1Mend-1"
       style="overflow:visible"><path
         inkscape:connector-curvature="0"
         id="path3959-13"
         d="M 0,0 5,-5 -12.5,0 5,5 0,0 z"
         style="fill-rule:evenodd;stroke:#000000;stroke-width:1pt"
         transform="matrix(-0.4,0,0,-0.4,-4,0)" /></marker><marker
       inkscape:stockid="Arrow1Mstart"
       orient="auto"
       refY="0"
       refX="0"
       id="Arrow1Mstart-2"
       style="overflow:visible"><path
         inkscape:connector-curvature="0"
         id="path4536-2"
         d="M 0,0 5,-5 -12.5,0 5,5 0,0 z"
         style="fill-rule:evenodd;stroke:#000000;stroke-width:1pt"
         transform="matrix(0.4,0,0,0.4,4,0)" /></marker><marker
       inkscape:stockid="Arrow1Mend"
       orient="auto"
       refY="0"
       refX="0"
       id="marker3040-3"
       style="overflow:visible"><path
         inkscape:connector-curvature="0"
         id="path3042-9"
         d="M 0,0 5,-5 -12.5,0 5,5 0,0 z"
         style="fill-rule:evenodd;stroke:#000000;stroke-width:1pt"
         transform="matrix(-0.4,0,0,-0.4,-4,0)" /></marker><marker
       inkscape:stockid="Arrow1Mstart"
       orient="auto"
       refY="0"
       refX="0"
       id="Arrow1Mstart-8"
       style="overflow:visible"><path
         inkscape:connector-curvature="0"
         id="path4536-9"
         d="M 0,0 5,-5 -12.5,0 5,5 0,0 z"
         style="fill-rule:evenodd;stroke:#000000;stroke-width:1pt"
         transform="matrix(0.4,0,0,0.4,4,0)" /></marker><marker
       inkscape:stockid="Arrow1Mend"
       orient="auto"
       refY="0"
       refX="0"
       id="marker3040-30"
       style="overflow:visible"><path
         inkscape:connector-curvature="0"
         id="path3042-6"
         d="M 0,0 5,-5 -12.5,0 5,5 0,0 z"
         style="fill-rule:evenodd;stroke:#000000;stroke-width:1pt"
         transform="matrix(-0.4,0,0,-0.4,-4,0)" /></marker><marker
       inkscape:stockid="Arrow1Mstart"
       orient="auto"
       refY="0"
       refX="0"
       id="Arrow1Mstart-4"
       style="overflow:visible"><path
         inkscape:connector-curvature="0"
         id="path4536-1"
         d="M 0,0 5,-5 -12.5,0 5,5 0,0 z"
         style="fill-rule:evenodd;stroke:#000000;stroke-width:1pt"
         transform="matrix(0.4,0,0,0.4,4,0)" /></marker><marker
       inkscape:stockid="Arrow1Mend"
       orient="auto"
       refY="0"
       refX="0"
       id="marker3040-4"
       style="overflow:visible"><path
         inkscape:connector-curvature="0"
         id="path3042-91"
         d="M 0,0 5,-5 -12.5,0 5,5 0,0 z"
         style="fill-rule:evenodd;stroke:#000000;stroke-width:1pt"
         transform="matrix(-0.4,0,0,-0.4,-4,0)" /></marker><marker
       inkscape:stockid="Arrow1Mend"
       orient="auto"
       refY="0"
       refX="0"
       id="marker4609-1-9"
       style="overflow:visible"><path
         inkscape:connector-curvature="0"
         id="path4611-4-3"
         d="M 0,0 5,-5 -12.5,0 5,5 0,0 z"
         style="fill-rule:evenodd;stroke:#000000;stroke-width:1pt"
         transform="matrix(-0.4,0,0,-0.4,-4,0)" /></marker><marker
       inkscape:stockid="Arrow1Mend"
       orient="auto"
       refY="0"
       refX="0"
       id="marker4609-1-3"
       style="overflow:visible"><path
         inkscape:connector-curvature="0"
         id="path4611-4-4"
         d="M 0,0 5,-5 -12.5,0 5,5 0,0 z"
         style="fill-rule:evenodd;stroke:#000000;stroke-width:1pt"
         transform="matrix(-0.4,0,0,-0.4,-4,0)" /></marker></defs><sodipodi:namedview
     pagecolor="#ffffff"
     bordercolor="#666666"
     borderopacity="1"
     objecttolerance="10"
     gridtolerance="10"
     guidetolerance="10"
     inkscape:pageopacity="0"
     inkscape:pageshadow="2"
     inkscape:window-width="1548"
     inkscape:window-height="876"
     id="namedview4"
     showgrid="false"
     inkscape:zoom="1.9941231"
     inkscape:cx="247.38231"
     inkscape:cy="379.57336"
     inkscape:window-x="52"
     inkscape:window-y="24"
     inkscape:window-maximized="1"
     inkscape:current-layer="g10" /><g
     id="g10"
     inkscape:groupmode="layer"
     inkscape:label="ink_ext_XXXXXX"
     transform="matrix(1.25,0,0,-1.25,0,517.5)"><path
   style="fill:none;stroke:#000000;stroke-width:0.40000001px;stroke-linecap:butt;stroke-linejoin:miter;stroke-opacity:1;marker-end:url(#Arrow1Mend)"
   d="m 235.96412,237.65276 0,109.12648"
   id="path3174"
   inkscape:connector-curvature="0"
   sodipodi:nodetypes="cc" /><path
   style="fill:none;stroke:#000000;stroke-width:0.40000001px;stroke-linecap:butt;stroke-linejoin:miter;stroke-opacity:1;marker-end:url(#Arrow1Mend)"
   d="m 235.82311,339.90077 89.02441,0.85103"
   id="path3176"
   inkscape:connector-curvature="0"
   sodipodi:nodetypes="cc" /><text
   xml:space="preserve"
   style="font-size:16px;font-style:normal;font-weight:normal;line-height:125%;letter-spacing:0px;word-spacing:0px;fill:#000000;fill-opacity:1;stroke:none;font-family:Sans"
   x="323.40085"
   y="-324.91138"
   id="text4572"
   sodipodi:linespacing="125%"
   transform="scale(1,-1)"><tspan
     sodipodi:role="line"
     id="tspan4574"
     x="323.40085"
     y="-324.91138">θ</tspan></text>




<flowRoot
   xml:space="preserve"
   id="flowRoot3072"
   style="font-size:40px;font-style:normal;font-weight:normal;line-height:125%;letter-spacing:0px;word-spacing:0px;fill:#000000;fill-opacity:1;stroke:none;font-family:Sans"
   transform="matrix(0.4,0,0,-0.4,188.82178,349.14405)"><flowRegion
     id="flowRegion3074"><rect
       id="rect3076"
       width="7.8010974"
       height="60.281208"
       x="768.05353"
       y="-747.69617" /></flowRegion><flowPara
     id="flowPara3078"></flowPara></flowRoot><path
   style="fill:none;stroke:#000000;stroke-width:0.40000001px;stroke-linecap:butt;stroke-linejoin:miter;stroke-opacity:1;marker-end:url(#Arrow1Mend)"
   d="m 39.25283,236.56686 0,109.12647"
   id="path3174-9"
   inkscape:connector-curvature="0"
   sodipodi:nodetypes="cc" /><path
   style="fill:none;stroke:#000000;stroke-width:0.40000001px;stroke-linecap:butt;stroke-linejoin:miter;stroke-opacity:1;marker-end:url(#Arrow1Mend)"
   d="m 39.11181,236.41487 179.42441,0.85103"
   id="path3176-0"
   inkscape:connector-curvature="0"
   sodipodi:nodetypes="cc" /><text
   xml:space="preserve"
   style="font-size:16px;font-style:normal;font-weight:normal;line-height:125%;letter-spacing:0px;word-spacing:0px;fill:#000000;fill-opacity:1;stroke:none;font-family:Sans"
   x="209.08992"
   y="-223.02509"
   id="text4572-2"
   sodipodi:linespacing="125%"
   transform="scale(1,-1)"><tspan
     sodipodi:role="line"
     id="tspan4574-0"
     x="209.08992"
     y="-223.02509">ρ</tspan></text>
<text
   xml:space="preserve"
   style="font-size:16px;font-style:normal;font-weight:normal;line-height:125%;letter-spacing:0px;word-spacing:0px;fill:#000000;fill-opacity:1;stroke:none;font-family:Sans"
   x="26.318895"
   y="-334.90488"
   id="text4572-9-3"
   sodipodi:linespacing="125%"
   transform="scale(1,-1)"><tspan
     sodipodi:role="line"
     id="tspan4574-8-2"
     x="26.318895"
     y="-334.90488">ζ</tspan></text>
<flowRoot
   transform="matrix(0.5,0,0,0.5,0.11049,141.05815)"
   xml:space="preserve"
   id="flowRoot3072-0"
   style="font-size:40px;font-style:normal;font-weight:normal;line-height:125%;letter-spacing:0px;word-spacing:0px;fill:#000000;fill-opacity:1;stroke:none;font-family:Sans"><flowRegion
     id="flowRegion3074-0"><rect
       id="rect3076-1"
       width="7.8010974"
       height="60.281208"
       x="768.05353"
       y="-747.69617" /></flowRegion><flowPara
     id="flowPara3078-2" /></flowRoot><path
   sodipodi:type="arc"
   style="opacity:0.92000002;fill:#000000;fill-opacity:1;stroke:#000000;stroke-width:2;stroke-miterlimit:4;stroke-opacity:1;stroke-dasharray:none;stroke-dashoffset:0"
   id="path3080-7"
   sodipodi:cx="103.54184"
   sodipodi:cy="184.53497"
   sodipodi:rx="2.8367627"
   sodipodi:ry="3.1913581"
   d="m 106.3786,184.53497 a 2.8367627,3.1913581 0 1 1 -5.67352,0 2.8367627,3.1913581 0 1 1 5.67352,0 z"
   transform="matrix(0.4,0,0,-0.4,33.297523,316.0888)" /><path
   sodipodi:type="arc"
   style="opacity:0.92000002;fill:#000000;fill-opacity:1;stroke:#000000;stroke-width:2;stroke-miterlimit:4;stroke-opacity:1;stroke-dasharray:none;stroke-dashoffset:0"
   id="path3080-9-0"
   sodipodi:cx="103.54184"
   sodipodi:cy="184.53497"
   sodipodi:rx="2.8367627"
   sodipodi:ry="3.1913581"
   d="m 106.3786,184.53497 a 2.8367627,3.1913581 0 1 1 -5.67352,0 2.8367627,3.1913581 0 1 1 5.67352,0 z"
   transform="matrix(0.4,0,0,-0.4,35.17715,359.98215)" /><path
   sodipodi:type="arc"
   style="opacity:0.92000002;fill:#000000;fill-opacity:1;stroke:#000000;stroke-width:2;stroke-miterlimit:4;stroke-opacity:1;stroke-dasharray:none;stroke-dashoffset:0"
   id="path3080-9-2-5"
   sodipodi:cx="103.54184"
   sodipodi:cy="184.53497"
   sodipodi:rx="2.8367627"
   sodipodi:ry="3.1913581"
   d="m 106.3786,184.53497 a 2.8367627,3.1913581 0 1 1 -5.67352,0 2.8367627,3.1913581 0 1 1 5.67352,0 z"
   transform="matrix(0.4,0,0,-0.4,80.576563,381.18097)" /><path
   style="fill:none;stroke:#000000;stroke-width:1.20000005;stroke-linecap:butt;stroke-linejoin:miter;stroke-miterlimit:4;stroke-opacity:1;stroke-dasharray:none"
   d="m 38.351754,285.49676 c 0,0 33.883308,-0.2124 50.285887,6.02268 16.402579,6.23508 23.538499,10.95871 38.846949,14.28605 15.30844,3.32734 45.71912,6.54126 45.71912,6.54126"
   id="path3922-3"
   inkscape:connector-curvature="0"
   sodipodi:nodetypes="czzc" /><path
   style="fill:none;stroke:#000000;stroke-width:1.20000005;stroke-linecap:butt;stroke-linejoin:miter;stroke-miterlimit:4;stroke-opacity:1;stroke-dasharray:none"
   d="m 39.50533,244.15883 c 0,0 37.975089,-2.39618 54.778852,-0.97549 16.803758,1.42068 28.229258,3.10025 48.730418,8.2482 20.50115,5.14795 30.52298,10.83673 30.52298,10.83673"
   id="path3922-0"
   inkscape:connector-curvature="0"
   sodipodi:nodetypes="czzc" /><path
   sodipodi:type="arc"
   style="opacity:0.92000002;fill:#000000;fill-opacity:1;stroke:#000000;stroke-width:2;stroke-miterlimit:4;stroke-opacity:1;stroke-dasharray:none;stroke-dashoffset:0"
   id="path3080-9-2-3-6-0"
   sodipodi:cx="103.54184"
   sodipodi:cy="184.53497"
   sodipodi:rx="2.8367627"
   sodipodi:ry="3.1913581"
   d="m 106.3786,184.53497 a 2.8367627,3.1913581 0 1 1 -5.67352,0 2.8367627,3.1913581 0 1 1 5.67352,0 z"
   transform="matrix(0.4,0,0,-0.4,131.6102,386.11154)" /><path
   sodipodi:type="arc"
   style="opacity:0.92000002;fill:#000000;fill-opacity:1;stroke:#000000;stroke-width:2;stroke-miterlimit:4;stroke-opacity:1;stroke-dasharray:none;stroke-dashoffset:0"
   id="path3080-9-7-3-8"
   sodipodi:cx="103.54184"
   sodipodi:cy="184.53497"
   sodipodi:rx="2.8367627"
   sodipodi:ry="3.1913581"
   d="m 106.3786,184.53497 a 2.8367627,3.1913581 0 1 1 -5.67352,0 2.8367627,3.1913581 0 1 1 5.67352,0 z"
   transform="matrix(0.4,0,0,-0.4,95.051038,318.11321)" /><path
   style="fill:none;stroke:#000000;stroke-width:0.40000001px;stroke-linecap:butt;stroke-linejoin:miter;stroke-opacity:1"
   d="m 38.987936,285.37925 37.715146,0.63747 45.193518,21.22705 50.13799,5.42081"
   id="path3984-8"
   inkscape:connector-curvature="0"
   sodipodi:nodetypes="cccc" /><path
   style="fill:none;stroke:#000000;stroke-width:0.40000001px;stroke-linecap:butt;stroke-linejoin:miter;stroke-opacity:1"
   d="m 39.164532,244.37338 39.837025,-1.64486 58.598043,1.72832 35.24468,17.45862"
   id="path3986-1"
   inkscape:connector-curvature="0"
   sodipodi:nodetypes="cccc" /><text
   xml:space="preserve"
   style="font-size:16px;font-style:normal;font-weight:normal;line-height:125%;letter-spacing:0px;word-spacing:0px;fill:#000000;fill-opacity:1;stroke:none;font-family:Sans"
   x="90.541267"
   y="-260.5257"
   id="text3988-2"
   sodipodi:linespacing="125%"
   transform="scale(1,-1)"><tspan
     sodipodi:role="line"
     id="tspan3990-0"
     x="90.541267"
     y="-260.5257">ΤΕ</tspan></text>
<text
   xml:space="preserve"
   style="font-size:16px;font-style:normal;font-weight:normal;line-height:125%;letter-spacing:0px;word-spacing:0px;fill:#000000;fill-opacity:1;stroke:none;font-family:Sans"
   x="141.68616"
   y="-329.78748"
   id="text3992-0"
   sodipodi:linespacing="125%"
   transform="scale(1,-1)"><tspan
     sodipodi:role="line"
     id="tspan3994-8"
     x="141.68616"
     y="-329.78748">LE</tspan></text>
<path
   style="fill:none;stroke:#000000;stroke-width:0.40000001px;stroke-linecap:butt;stroke-linejoin:miter;stroke-opacity:1;marker-end:url(#marker4609-1)"
   d="m 101.62484,258.02117 7.01961,-11.33178"
   id="path3996-8"
   inkscape:connector-curvature="0"
   sodipodi:nodetypes="cc" /><path
   style="fill:none;stroke:#000000;stroke-width:0.40000001px;stroke-linecap:butt;stroke-linejoin:miter;stroke-opacity:1;marker-end:url(#marker4609-1)"
   d="m 150.35419,327.3899 -6.82981,-17.28266"
   id="path3996-2-2"
   inkscape:connector-curvature="0"
   sodipodi:nodetypes="cc" /><path
   style="fill:none;stroke:#000000;stroke-width:1.20000005;stroke-linecap:butt;stroke-linejoin:miter;stroke-miterlimit:4;stroke-opacity:1;stroke-dasharray:none"
   d="m 236.85734,253.04609 c 0,0 21.83669,6.02863 33.75747,19.85734 11.92077,13.8287 11.18507,10.77478 19.85735,27.5166 8.67227,16.74181 13.61645,39.14733 13.61645,39.14733"
   id="path3922-0-1"
   inkscape:connector-curvature="0"
   sodipodi:nodetypes="czzc" /><path
   sodipodi:type="arc"
   style="opacity:0.92000002;fill:#000000;fill-opacity:1;stroke:#000000;stroke-width:2;stroke-miterlimit:4;stroke-opacity:1;stroke-dasharray:none;stroke-dashoffset:0"
   id="path3080-9-2-3-6-0-2"
   sodipodi:cx="103.54184"
   sodipodi:cy="184.53497"
   sodipodi:rx="2.8367627"
   sodipodi:ry="3.1913581"
   d="m 106.3786,184.53497 a 2.8367627,3.1913581 0 1 1 -5.67352,0 2.8367627,3.1913581 0 1 1 5.67352,0 z"
   transform="matrix(0.4,0,0,-0.4,262.40055,413.09081)" /><path
   style="fill:none;stroke:#000000;stroke-width:0.5;stroke-linecap:butt;stroke-linejoin:miter;stroke-miterlimit:4;stroke-opacity:1;stroke-dasharray:none"
   d="m 384.12621,73.630993 -14.63786,69.061727 -37.23251,47.87037 -36.52332,10.28327"
   id="path4472"
   inkscape:connector-curvature="0"
   transform="matrix(0.8,0,0,-0.8,0,414)"
   sodipodi:nodetypes="cccc" /><path
   sodipodi:type="arc"
   style="opacity:0.92000002;fill:#000000;fill-opacity:1;stroke:#000000;stroke-width:2;stroke-miterlimit:4;stroke-opacity:1;stroke-dasharray:none;stroke-dashoffset:0"
   id="path3080-9-2-3-6-0-2-5"
   sodipodi:cx="103.54184"
   sodipodi:cy="184.53497"
   sodipodi:rx="2.8367627"
   sodipodi:ry="3.1913581"
   d="m 106.3786,184.53497 a 2.8367627,3.1913581 0 1 1 -5.67352,0 2.8367627,3.1913581 0 1 1 5.67352,0 z"
   transform="matrix(0.4,0,0,-0.4,254.45762,373.94349)" /><path
   sodipodi:type="arc"
   style="opacity:0.92000002;fill:#000000;fill-opacity:1;stroke:#000000;stroke-width:2;stroke-miterlimit:4;stroke-opacity:1;stroke-dasharray:none;stroke-dashoffset:0"
   id="path3080-9-2-3-6-0-2-5-7"
   sodipodi:cx="103.54184"
   sodipodi:cy="184.53497"
   sodipodi:rx="2.8367627"
   sodipodi:ry="3.1913581"
   d="m 106.3786,184.53497 a 2.8367627,3.1913581 0 1 1 -5.67352,0 2.8367627,3.1913581 0 1 1 5.67352,0 z"
   transform="matrix(0.00336076,0,0,-0.00336076,351.42014,294.09401)" /><path
   sodipodi:type="arc"
   style="opacity:0.92000002;fill:#000000;fill-opacity:1;stroke:#000000;stroke-width:2;stroke-miterlimit:4;stroke-opacity:1;stroke-dasharray:none;stroke-dashoffset:0"
   id="path3080-9-2-3-6-0-2-5-8"
   sodipodi:cx="103.54184"
   sodipodi:cy="184.53497"
   sodipodi:rx="2.8367627"
   sodipodi:ry="3.1913581"
   d="m 106.3786,184.53497 a 2.8367627,3.1913581 0 1 1 -5.67352,0 2.8367627,3.1913581 0 1 1 5.67352,0 z"
   transform="matrix(0.4,0,0,-0.4,223.82058,335.36351)" /><path
   sodipodi:type="arc"
   style="opacity:0.92000002;fill:#000000;fill-opacity:1;stroke:#000000;stroke-width:2;stroke-miterlimit:4;stroke-opacity:1;stroke-dasharray:none;stroke-dashoffset:0"
   id="path3080-9-2-3-6-0-2-5-5"
   sodipodi:cx="103.54184"
   sodipodi:cy="184.53497"
   sodipodi:rx="2.8367627"
   sodipodi:ry="3.1913581"
   d="m 106.3786,184.53497 a 2.8367627,3.1913581 0 1 1 -5.67352,0 2.8367627,3.1913581 0 1 1 5.67352,0 z"
   transform="matrix(0.4,0,0,-0.4,194.70398,326.75115)" /><path
   style="fill:none;stroke:#000000;stroke-width:0.50000000000000000;stroke-linecap:butt;stroke-linejoin:miter;stroke-opacity:1;stroke-miterlimit:4;stroke-dasharray:none;marker-start:url(#Arrow1Mstart);marker-end:url(#marker3040)"
   d="m 390.40947,91.985588 c 0,0 -0.23679,-5.409206 -1.77297,-7.446502 -1.30637,-1.732512 -5.67353,-3.191358 -5.67353,-3.191358"
   id="path4524"
   inkscape:connector-curvature="0"
   transform="matrix(0.8,0,0,-0.8,0,414)"
   sodipodi:nodetypes="cac" /><path
   style="fill:none;stroke:#000000;stroke-width:0.40000000000000002;stroke-linecap:butt;stroke-linejoin:miter;stroke-miterlimit:4;stroke-opacity:1;stroke-dasharray:none;stroke-dashoffset:0;marker-end:none"
   d="m 236.46977,252.70991 32.74073,0.28368"
   id="path3176-04"
   inkscape:connector-curvature="0"
   sodipodi:nodetypes="cc" /><path
   style="fill:none;stroke:#000000;stroke-width:0.40000001;stroke-linecap:butt;stroke-linejoin:miter;stroke-miterlimit:4;stroke-opacity:1;stroke-dasharray:none;marker-start:url(#Arrow1Mstart);marker-end:url(#marker3040)"
   d="m 262.36781,253.10326 0.85103,2.73813 c 0.5152,1.65765 -1.91482,4.25514 -1.91482,4.25514"
   id="path4524-0"
   inkscape:connector-curvature="0"
   sodipodi:nodetypes="csc" /><text
   xml:space="preserve"
   style="font-size:16px;font-style:normal;font-weight:normal;line-height:125%;letter-spacing:0px;word-spacing:0px;fill:#000000;fill-opacity:1;stroke:none;font-family:Sans"
   x="223.7735"
   y="-335.35242"
   id="text4572-3"
   sodipodi:linespacing="125%"
   transform="scale(1,-1)"
   inkscape:transform-center-x="-91.268185"
   inkscape:transform-center-y="16.548627"><tspan
     sodipodi:role="line"
     id="tspan4574-8"
     x="223.7735"
     y="-335.35242">μ</tspan></text>
<text
   xml:space="preserve"
   style="font-size:32px;font-style:normal;font-weight:normal;line-height:125%;letter-spacing:0px;word-spacing:0px;fill:#000000;fill-opacity:1;stroke:none;font-family:Sans"
   x="312.91949"
   y="-345.41498"
   id="text5459"
   sodipodi:linespacing="125%"
   transform="scale(1,-1)"><tspan
     sodipodi:role="line"
     id="tspan5461"
     x="312.91949"
     y="-345.41498"><tspan
       style="font-size:8px"
       id="tspan5463">Θ</tspan><tspan
       style="font-size:4.80000019px"
       id="tspan5465">LE</tspan></tspan></text>
<text
   xml:space="preserve"
   style="font-size:32px;font-style:normal;font-weight:normal;line-height:125%;letter-spacing:0px;word-spacing:0px;fill:#000000;fill-opacity:1;stroke:none;font-family:Sans"
   x="267.99338"
   y="-255.27162"
   id="text5459-1"
   sodipodi:linespacing="125%"
   transform="scale(1,-1)"><tspan
     sodipodi:role="line"
     id="tspan5461-2"
     x="267.99338"
     y="-255.27162"><tspan
       style="font-size:8px"
       id="tspan5463-6">Θ</tspan><tspan
       style="font-size:4.80000019px"
       id="tspan5465-6">TE</tspan></tspan></text>
<path
   style="fill:none;stroke:#000000;stroke-width:0.5;stroke-linecap:butt;stroke-linejoin:miter;stroke-opacity:1;stroke-miterlimit:4;stroke-dasharray:0.5,0.5;stroke-dashoffset:0"
   d="M 402.18178,162.9582 294.61571,92.751909 336.23801,202.57461"
   id="path5494"
   inkscape:connector-curvature="0"
   transform="matrix(0.8,0,0,-0.8,0,414)" /><path
   style="fill:none;stroke:#000000;stroke-width:0.40000001;stroke-linecap:butt;stroke-linejoin:miter;stroke-miterlimit:4;stroke-opacity:1;stroke-dasharray:none;marker-start:url(#Arrow1Mstart);marker-end:url(#marker3040)"
   d="m 253.11649,329.47093 c 0,0 2.56714,2.66583 3.19517,4.35249 0.69581,1.86868 0.47592,5.9631 0.47592,5.9631"
   id="path4524-07"
   inkscape:connector-curvature="0"
   sodipodi:nodetypes="cac" /><path
   style="fill:none;stroke:#000000;stroke-width:0.40000001;stroke-linecap:butt;stroke-linejoin:miter;stroke-miterlimit:4;stroke-opacity:1;stroke-dasharray:none;marker-start:url(#Arrow1Mstart);marker-end:url(#marker3040)"
   d="m 236.13964,306.50251 c 0,0 4.14539,-0.41109 6.00342,0.3407 1.58644,0.6419 3.88594,3.35544 3.88594,3.35544"
   id="path4524-07-8"
   inkscape:connector-curvature="0"
   sodipodi:nodetypes="cac" /><text
   xml:space="preserve"
   style="font-size:32px;font-style:normal;font-weight:normal;line-height:125%;letter-spacing:0px;word-spacing:0px;fill:#000000;fill-opacity:1;stroke:none;font-family:Sans"
   x="257.70322"
   y="-330.66809"
   id="text5459-9"
   sodipodi:linespacing="125%"
   transform="scale(1,-1)"><tspan
     sodipodi:role="line"
     id="tspan5461-9"
     x="257.70322"
     y="-330.66809"><tspan
       style="font-size:8px"
       id="tspan5463-3">ζ</tspan><tspan
       style="font-size:4.80000019px"
       id="tspan5465-4">LE</tspan></tspan></text>
<text
   xml:space="preserve"
   style="font-size:32px;font-style:normal;font-weight:normal;line-height:125%;letter-spacing:0px;word-spacing:0px;fill:#000000;fill-opacity:1;stroke:none;font-family:Sans"
   x="236.91124"
   y="-296.96906"
   id="text5459-1-1"
   sodipodi:linespacing="125%"
   transform="scale(1,-1)"><tspan
     sodipodi:role="line"
     id="tspan5461-2-8"
     x="236.91124"
     y="-296.96906"><tspan
       style="font-size:8px"
       id="tspan5463-6-3">ζ</tspan><tspan
       style="font-size:4.80000019px"
       id="tspan5465-6-0">TE</tspan></tspan></text>
<text
   xml:space="preserve"
   style="font-size:16px;font-style:normal;font-weight:normal;line-height:125%;letter-spacing:0px;word-spacing:0px;fill:#000000;fill-opacity:1;stroke:none;font-family:Sans"
   x="346.51614"
   y="-298.57507"
   id="text3992-0-9"
   sodipodi:linespacing="125%"
   transform="scale(1,-1)"><tspan
     sodipodi:role="line"
     id="tspan3994-8-6"
     x="346.51614"
     y="-298.57507">LE</tspan></text>
<text
   xml:space="preserve"
   style="font-size:16px;font-style:normal;font-weight:normal;line-height:125%;letter-spacing:0px;word-spacing:0px;fill:#000000;fill-opacity:1;stroke:none;font-family:Sans"
   x="312.8461"
   y="-226.21516"
   id="text3988-2-2"
   sodipodi:linespacing="125%"
   transform="scale(1,-1)"><tspan
     sodipodi:role="line"
     id="tspan3990-0-7"
     x="312.8461"
     y="-226.21516">ΤΕ</tspan></text>
<path
   style="fill:none;stroke:#000000;stroke-width:0.40000001px;stroke-linecap:butt;stroke-linejoin:miter;stroke-opacity:1;marker-end:url(#marker4609-1)"
   d="m 345.09356,306.12236 -39.43098,31.28395"
   id="path3996-2-2-1"
   inkscape:connector-curvature="0"
   sodipodi:nodetypes="cc" /><path
   style="fill:none;stroke:#000000;stroke-width:0.40000001px;stroke-linecap:butt;stroke-linejoin:miter;stroke-opacity:1;marker-end:url(#marker4609-1)"
   d="m 312.57608,229.6637 -74.89051,21.0716"
   id="path3996-2-2-1-5"
   inkscape:connector-curvature="0"
   sodipodi:nodetypes="cc" /><path
   sodipodi:type="arc"
   style="opacity:0.92000002;fill:#000000;fill-opacity:1;stroke:#000000;stroke-width:2;stroke-miterlimit:4;stroke-opacity:1;stroke-dasharray:none;stroke-dashoffset:0"
   id="path3080-9-7-3-8-3"
   sodipodi:cx="103.54184"
   sodipodi:cy="184.53497"
   sodipodi:rx="2.8367627"
   sodipodi:ry="3.1913581"
   d="m 106.3786,184.53497 a 2.8367627,3.1913581 0 1 1 -5.67352,0 2.8367627,3.1913581 0 1 1 5.67352,0 z"
   transform="matrix(0.4,0,0,-0.4,-2.7055232,318.11304)" /><path
   sodipodi:type="arc"
   style="opacity:0.92000002;fill:#000000;fill-opacity:1;stroke:#000000;stroke-width:2;stroke-miterlimit:4;stroke-opacity:1;stroke-dasharray:none;stroke-dashoffset:0"
   id="path3080-9-7-3-8-0"
   sodipodi:cx="103.54184"
   sodipodi:cy="184.53497"
   sodipodi:rx="2.8367627"
   sodipodi:ry="3.1913581"
   d="m 106.3786,184.53497 a 2.8367627,3.1913581 0 1 1 -5.67352,0 2.8367627,3.1913581 0 1 1 5.67352,0 z"
   transform="matrix(0.4,0,0,-0.4,131.16344,335.55017)" /></g></svg>